<svg id="Khronos" xmlns="http://www.w3.org/2000/svg" viewBox="0 0 1921.69 456.12"><defs><style>.cls-1{fill:#231f20;}.cls-2{stroke:#000;stroke-width:0.98px;}.cls-3{fill:#c33;}</style></defs><title>Khronos_Tagline_RGB_June16</title><polygon class="cls-1" points="1891.37 38.35 1884.02 38.35 1884.02 57.47 1877.6 57.47 1877.6 38.35 1870.25 38.35 1870.25 32.84 1891.37 32.84 1891.37 38.35 1891.37 38.35"/><polygon class="cls-1" points="1894.23 32.84 1903.68 32.84 1907.92 49.26 1907.99 49.26 1912.24 32.84 1921.69 32.84 1921.69 57.47 1915.65 57.47 1915.65 38.77 1915.59 38.77 1910.41 57.47 1905.51 57.47 1900.34 38.77 1900.27 38.77 1900.27 57.47 1894.23 57.47 1894.23 32.84 1894.23 32.84"/><path class="cls-1" d="M137.15,260.49H97.53V58h39.62V260.49Zm0.55-100.54L199,58h44.16l-65,100.54,65,101.93H199Z" transform="translate(-95.86 -20.55)"/><path class="cls-1" d="M378.59,178.33v82.16H339V58h39.62v82.16h65.29V58h39.62V260.49H443.88V178.33H378.59Z" transform="translate(-95.86 -20.55)"/><path class="cls-1" d="M639.65,260.49H600V58h48.13q23,0,34.17,1.6a70.05,70.05,0,0,1,19.15,5.22q17.26,8.07,26.31,22.54t9.05,34q0,23.52-12.92,39.87T688.8,182l50.55,78.5h-47.2l-52.5-93.85v93.85Zm0-103.8h8.8q24.15,0,36.66-8.71t12.5-25.44q0-16.18-10.48-23.84T654.45,91h-14.8v65.66Z" transform="translate(-95.86 -20.55)"/><path class="cls-1" d="M1298.67,260.49h-38.88V58h37.59l83.82,129.32V58h38.88V260.49h-36.8l-84.61-133.22V260.49Z" transform="translate(-95.86 -20.55)"/><path class="cls-1" d="M1528.05,158.83a108.76,108.76,0,0,1,4.45-31.5,101,101,0,0,1,13.22-27.74,103.75,103.75,0,0,1,37.72-33.72A105,105,0,0,1,1633,54a100.35,100.35,0,0,1,38.9,7.79,104.09,104.09,0,0,1,33.47,22.39,105.67,105.67,0,0,1,23.1,34.07A101.82,101.82,0,0,1,1736.4,158a110.88,110.88,0,0,1-7.45,40.75A99.39,99.39,0,0,1,1707,232.54a100.81,100.81,0,0,1-34,23.71,102.56,102.56,0,0,1-40.57,8.27,106.25,106.25,0,0,1-41.76-8.06,98,98,0,0,1-33.81-23.92,103.47,103.47,0,0,1-21.5-33.72A109,109,0,0,1,1528.05,158.83Zm41.45-1.39a67.36,67.36,0,0,0,4.32,24.32,64.72,64.72,0,0,0,12.81,20.56A66.87,66.87,0,0,0,1607.79,218a57.74,57.74,0,0,0,24.51,5.48q26.59,0,44.62-18.9t18-47.1a60.29,60.29,0,0,0-18.17-44.11q-18.17-18.27-43.65-18.27-26.6,0-45.11,18.2A59.64,59.64,0,0,0,1569.5,157.45Z" transform="translate(-95.86 -20.55)"/><path class="cls-1" d="M1832,197.77l36.32-.14v2.9q0,12.71,6.61,20.38t17.64,7.67q11.84,0,18.74-7.14t6.89-19.36q0-19.56-27.94-28-3.6-1.11-5.68-1.8-23.6-7.38-35-20.94T1838.25,117q0-28.53,15.78-45.78T1896.11,54q24.61,0,39.21,15.35t16.27,43h-35.94v-1.65q0-9.63-5.85-15.54t-15.31-5.92q-9.74,0-15.38,6.08t-5.64,16.59a23.57,23.57,0,0,0,1.18,7.81,17.82,17.82,0,0,0,3.69,6.15q5.7,6.26,24.48,11.55,8.34,2.22,12.8,3.75,20.86,7.1,30.8,20.31t9.94,33.8q0,31.31-17.37,50.29t-46.12,19q-27.1,0-43.76-18.31T1832,197.77Z" transform="translate(-95.86 -20.55)"/><path class="cls-2" d="M109.83,476.18a23,23,0,0,1-6.22-.73,11.58,11.58,0,0,1-4.18-2,7.69,7.69,0,0,1-2.35-3.12,10.6,10.6,0,0,1-.73-4V445.07a10.67,10.67,0,0,1,.73-4,7.65,7.65,0,0,1,2.35-3.15,11.59,11.59,0,0,1,4.18-2,23,23,0,0,1,6.22-.73h34.59v6.06H109.83q-5.37,0-5.37,3.79v21.32q0,3.79,5.37,3.79h34.59v6.06H109.83Z" transform="translate(-95.86 -20.55)"/><path class="cls-2" d="M174.67,476.18a23,23,0,0,1-6.22-.73,11.57,11.57,0,0,1-4.18-2,7.69,7.69,0,0,1-2.35-3.12,10.6,10.6,0,0,1-.73-4V445.07a10.67,10.67,0,0,1,.73-4,7.66,7.66,0,0,1,2.35-3.15,11.59,11.59,0,0,1,4.18-2,23,23,0,0,1,6.22-.73H203a23,23,0,0,1,6.22.73,11.61,11.61,0,0,1,4.18,2,7.67,7.67,0,0,1,2.35,3.15,10.67,10.67,0,0,1,.73,4v21.21a10.6,10.6,0,0,1-.73,4,7.71,7.71,0,0,1-2.35,3.12,11.59,11.59,0,0,1-4.18,2,23,23,0,0,1-6.22.73H174.67ZM208.4,445q0-3.79-5.37-3.79H174.67q-5.37,0-5.37,3.79v21.32q0,3.79,5.37,3.79H203q5.37,0,5.37-3.79V445Z" transform="translate(-95.86 -20.55)"/><path class="cls-2" d="M287.34,476.18l-45.81-31.93v31.93h-7.14v-41h7.08l42.7,30.47V435.17h7.14v41h-4Z" transform="translate(-95.86 -20.55)"/><path class="cls-2" d="M362.37,476.18l-45.81-31.93v31.93h-7.14v-41h7.08l42.7,30.47V435.17h7.14v41h-4Z" transform="translate(-95.86 -20.55)"/><path class="cls-2" d="M384.45,476.18v-41h44.16v6.06H392.56v10.25h34.22v6.06H392.56v12.58h36.05v6.06H384.45Z" transform="translate(-95.86 -20.55)"/><path class="cls-2" d="M458.93,476.18a23,23,0,0,1-6.22-.73,11.59,11.59,0,0,1-4.18-2,7.7,7.7,0,0,1-2.35-3.12,10.6,10.6,0,0,1-.73-4V445.07a10.67,10.67,0,0,1,.73-4,7.67,7.67,0,0,1,2.35-3.15,11.6,11.6,0,0,1,4.18-2,23,23,0,0,1,6.22-.73h34.59v6.06H458.93q-5.37,0-5.37,3.79v21.32q0,3.79,5.37,3.79h34.59v6.06H458.93Z" transform="translate(-95.86 -20.55)"/><path class="cls-2" d="M530.54,476.18v-35H508v-6.06h52.52v6.06h-21.9v35h-8.11Z" transform="translate(-95.86 -20.55)"/><path class="cls-2" d="M576.53,476.18v-41h8.11v41h-8.11Z" transform="translate(-95.86 -20.55)"/><path class="cls-2" d="M656.08,476.18l-45.81-31.93v31.93h-7.14v-41h7.08l42.7,30.47V435.17H660v41h-4Z" transform="translate(-95.86 -20.55)"/><path class="cls-2" d="M693.17,476.18q-15.31,0-15.31-8.86V444q0-8.86,15.31-8.86h33.61v6.06H693.17q-7.2,0-7.2,2.8v23.3q0,2.8,7.2,2.8h19q7.2,0,7.2-2.68V453.81h8.11v13.63q0,8.74-15.31,8.74h-19Z" transform="translate(-95.86 -20.55)"/><path class="cls-2" d="M793.63,476.18v-6.06H831q5.37,0,5.37-3.79v-5.18q0-3.79-5.37-3.79H805.71a23,23,0,0,1-6.22-.73,11.58,11.58,0,0,1-4.18-2,7.72,7.72,0,0,1-2.35-3.12,10.62,10.62,0,0,1-.73-4v-2.39a10.69,10.69,0,0,1,.73-4,7.67,7.67,0,0,1,2.35-3.15,11.59,11.59,0,0,1,4.18-2,23,23,0,0,1,6.22-.73h36.36v6.06H805.71q-5.37,0-5.37,3.79v2.5q0,3.79,5.37,3.79H831a23,23,0,0,1,6.22.73,11.61,11.61,0,0,1,4.18,2,7.67,7.67,0,0,1,2.35,3.15,10.67,10.67,0,0,1,.73,4v5.07a10.6,10.6,0,0,1-.73,4,7.7,7.7,0,0,1-2.35,3.12,11.6,11.6,0,0,1-4.18,2,23,23,0,0,1-6.22.73H793.63Z" transform="translate(-95.86 -20.55)"/><path class="cls-2" d="M874.51,476.18a23,23,0,0,1-6.22-.73,11.58,11.58,0,0,1-4.18-2,7.7,7.7,0,0,1-2.35-3.12,10.6,10.6,0,0,1-.73-4V445.07a10.67,10.67,0,0,1,.73-4,7.66,7.66,0,0,1,2.35-3.15,11.59,11.59,0,0,1,4.18-2,23,23,0,0,1,6.22-.73h28.36a23,23,0,0,1,6.22.73,11.61,11.61,0,0,1,4.18,2,7.67,7.67,0,0,1,2.35,3.15,10.66,10.66,0,0,1,.73,4v21.21a10.59,10.59,0,0,1-.73,4,7.7,7.7,0,0,1-2.35,3.12,11.6,11.6,0,0,1-4.18,2,23,23,0,0,1-6.22.73H874.51ZM908.25,445q0-3.79-5.37-3.79H874.51q-5.37,0-5.37,3.79v21.32q0,3.79,5.37,3.79h28.36q5.37,0,5.37-3.79V445Z" transform="translate(-95.86 -20.55)"/><path class="cls-2" d="M942.35,459.29v16.9h-8.11v-41H978.4v6.06H942.35v12H976v6.06H942.35Z" transform="translate(-95.86 -20.55)"/><path class="cls-2" d="M1015.12,476.18v-35H992.61v-6.06h52.52v6.06h-21.9v35h-8.11Z" transform="translate(-95.86 -20.55)"/><path class="cls-2" d="M1112.59,476.18l-14.88-31.46-15.19,31.46h-5.92l-19.76-41h7.81l14.94,31.46,15.07-31.46h6l14.88,31.46,15.07-31.46h7.87l-19.83,41h-6.1Z" transform="translate(-95.86 -20.55)"/><path class="cls-2" d="M1192.75,476.18l-7.87-11.65h-29.65l-7.87,11.65h-8.72l28.55-41h5.92l28.37,41h-8.72Zm-22.57-33.5-10.74,15.79h21.35Z" transform="translate(-95.86 -20.55)"/><path class="cls-2" d="M1256.8,476.18l-10.07-18.29H1224.1v18.29H1216v-41h36.48a23,23,0,0,1,6.22.73,11.61,11.61,0,0,1,4.18,2,7.67,7.67,0,0,1,2.35,3.15,10.69,10.69,0,0,1,.73,4V448a9.39,9.39,0,0,1-2.44,6.61q-2.44,2.65-8.17,3.17l10.13,18.41h-8.66Zm1-31.17q0-3.79-5.37-3.79H1224.1v10.6h28.36q5.37,0,5.37-3.79v-3Z" transform="translate(-95.86 -20.55)"/><path class="cls-2" d="M1282.72,476.18v-41h44.16v6.06h-36.05v10.25h34.22v6.06h-34.22v12.58h36.05v6.06h-44.16Z" transform="translate(-95.86 -20.55)"/><path class="cls-2" d="M1411.85,476.18v-35h-22.51v-6.06h52.52v6.06H1420v35h-8.11Z" transform="translate(-95.86 -20.55)"/><path class="cls-2" d="M1469,476.18a23,23,0,0,1-6.22-.73,11.58,11.58,0,0,1-4.18-2,7.7,7.7,0,0,1-2.35-3.12,10.62,10.62,0,0,1-.73-4V445.07a10.69,10.69,0,0,1,.73-4,7.66,7.66,0,0,1,2.35-3.15,11.6,11.6,0,0,1,4.18-2,23,23,0,0,1,6.22-.73h28.37a23,23,0,0,1,6.22.73,11.61,11.61,0,0,1,4.18,2,7.67,7.67,0,0,1,2.35,3.15,10.67,10.67,0,0,1,.73,4v21.21a10.6,10.6,0,0,1-.73,4,7.71,7.71,0,0,1-2.35,3.12,11.6,11.6,0,0,1-4.18,2,23,23,0,0,1-6.22.73H1469ZM1502.74,445q0-3.79-5.37-3.79H1469q-5.37,0-5.37,3.79v21.32q0,3.79,5.37,3.79h28.37q5.37,0,5.37-3.79V445Z" transform="translate(-95.86 -20.55)"/><path class="cls-2" d="M1577.16,476.18v-6.06h37.33q5.37,0,5.37-3.79v-5.18q0-3.79-5.37-3.79h-25.25a23,23,0,0,1-6.22-.73,11.58,11.58,0,0,1-4.18-2,7.7,7.7,0,0,1-2.35-3.12,10.62,10.62,0,0,1-.73-4v-2.39a10.69,10.69,0,0,1,.73-4,7.65,7.65,0,0,1,2.35-3.15,11.6,11.6,0,0,1,4.18-2,23,23,0,0,1,6.22-.73h36.36v6.06h-36.36q-5.37,0-5.37,3.79v2.5q0,3.79,5.37,3.79h25.25a23,23,0,0,1,6.22.73,11.59,11.59,0,0,1,4.18,2,7.67,7.67,0,0,1,2.35,3.15,10.67,10.67,0,0,1,.73,4v5.07a10.6,10.6,0,0,1-.73,4,7.71,7.71,0,0,1-2.35,3.12,11.57,11.57,0,0,1-4.18,2,23,23,0,0,1-6.22.73h-37.33Z" transform="translate(-95.86 -20.55)"/><path class="cls-2" d="M1645.17,476.18v-41h8.11v41h-8.11Z" transform="translate(-95.86 -20.55)"/><path class="cls-2" d="M1671.77,476.18v-41h8.11v35h34.83v6.06h-42.95Z" transform="translate(-95.86 -20.55)"/><path class="cls-2" d="M1731,476.18v-41h8.11v41H1731Z" transform="translate(-95.86 -20.55)"/><path class="cls-2" d="M1770.77,476.18a23,23,0,0,1-6.22-.73,11.6,11.6,0,0,1-4.18-2,7.7,7.7,0,0,1-2.35-3.12,10.6,10.6,0,0,1-.73-4V445.07a10.67,10.67,0,0,1,.73-4,7.67,7.67,0,0,1,2.35-3.15,11.61,11.61,0,0,1,4.18-2,23,23,0,0,1,6.22-.73h34.59v6.06h-34.59q-5.37,0-5.37,3.79v21.32q0,3.79,5.37,3.79h34.59v6.06h-34.59Z" transform="translate(-95.86 -20.55)"/><path class="cls-2" d="M1835.61,476.18a23,23,0,0,1-6.22-.73,11.58,11.58,0,0,1-4.18-2,7.71,7.71,0,0,1-2.35-3.12,10.62,10.62,0,0,1-.73-4V445.07a10.69,10.69,0,0,1,.73-4,7.67,7.67,0,0,1,2.35-3.15,11.59,11.59,0,0,1,4.18-2,23,23,0,0,1,6.22-.73H1864a23,23,0,0,1,6.22.73,11.61,11.61,0,0,1,4.18,2,7.67,7.67,0,0,1,2.35,3.15,10.69,10.69,0,0,1,.73,4v21.21a10.62,10.62,0,0,1-.73,4,7.71,7.71,0,0,1-2.35,3.12,11.59,11.59,0,0,1-4.18,2,23,23,0,0,1-6.22.73h-28.37ZM1869.35,445q0-3.79-5.37-3.79h-28.37q-5.37,0-5.37,3.79v21.32q0,3.79,5.37,3.79H1864q5.37,0,5.37-3.79V445Z" transform="translate(-95.86 -20.55)"/><path class="cls-2" d="M1948.28,476.18l-45.81-31.93v31.93h-7.14v-41h7.08l42.7,30.47V435.17h7.14v41h-4Z" transform="translate(-95.86 -20.55)"/><path class="cls-1" d="M1442.3,301.36l-5.42,6a28.39,28.39,0,0,0-8-5,22.9,22.9,0,0,0-8.55-1.59,20.73,20.73,0,0,0-15.54,6.46,23.4,23.4,0,0,0,0,31.83,20.76,20.76,0,0,0,15.54,6.46,22.9,22.9,0,0,0,7.75-1.3,21.87,21.87,0,0,0,6.77-3.92v-13.4h-12V319h20.63v26a43.78,43.78,0,0,1-11.39,6.58,33.15,33.15,0,0,1-11.75,2.15q-13.16,0-21.87-8.73t-8.72-21.9a30.89,30.89,0,0,1,2.08-11.19,30.27,30.27,0,0,1,5.93-9.6,29.56,29.56,0,0,1,10.13-7.25,30.9,30.9,0,0,1,12.46-2.5,32.68,32.68,0,0,1,12.27,2.34A26.23,26.23,0,0,1,1442.3,301.36Z" transform="translate(-95.86 -20.55)"/><path class="cls-1" d="M1526.79,294.12h11.14a45.69,45.69,0,0,1,7.71.53,18.76,18.76,0,0,1,5.3,1.73,14.53,14.53,0,0,1,5.93,5.92,17.73,17.73,0,0,1,2.2,8.79,14.37,14.37,0,0,1-3.73,9.91,16.45,16.45,0,0,1-9.87,5.19l17.72,24-8.2,3.51-19.49-28.29v26.72l-8.71.74V294.12Zm8.71,7.7v18.43h3.14q5.6,0,8.66-2.5a8.5,8.5,0,0,0,3.06-7,8,8,0,0,0-2.92-6.7q-2.92-2.26-8.61-2.26h-3.33Z" transform="translate(-95.86 -20.55)"/><path class="cls-1" d="M1670.08,292.56a31.5,31.5,0,0,1,10.83,1.86,28.54,28.54,0,0,1,9.13,5.36,31.7,31.7,0,0,1,7.88,10.63,30.33,30.33,0,0,1,2.74,12.7,31.26,31.26,0,0,1-8,20.87,29.28,29.28,0,0,1-10.09,7.26,32.37,32.37,0,0,1-23.31.63,27.66,27.66,0,0,1-9-5.35,32.09,32.09,0,0,1-7.95-10.67,30.65,30.65,0,0,1,0-25.44,31.71,31.71,0,0,1,7.93-10.61,27.74,27.74,0,0,1,9-5.36A31.39,31.39,0,0,1,1670.08,292.56Zm0,8.16a20.72,20.72,0,0,0-15.53,6.46,23.46,23.46,0,0,0,0,31.85,21.9,21.9,0,0,0,31.07,0,23.35,23.35,0,0,0,0-31.81A20.71,20.71,0,0,0,1670.08,300.72Z" transform="translate(-95.86 -20.55)"/><path class="cls-1" d="M1791.24,293.3v33q0,10.51,2.7,14.76c1.8,2.83,4.82,4.25,9.08,4.25s7.37-1.34,9.29-4,2.87-7.12,2.87-13.35V294.12l8.44-.83v36.56a43.14,43.14,0,0,1-1,10.88,16.22,16.22,0,0,1-10.2,11.2,23.64,23.64,0,0,1-8.88,1.71q-10.54,0-15.75-5.9t-5.21-17.88V294.12Z" transform="translate(-95.86 -20.55)"/><path class="cls-1" d="M1908.48,294.12h15.37q10,0,15.17,4.47t5.21,13.11a15.55,15.55,0,0,1-6,12.9q-6,4.73-16.46,4.73-1.39,0-4.36-.16a0.49,0.49,0,0,1-.24,0v23l-8.71.74V294.12Zm8.71,7.7v19.41c0.76,0.13,1.58.23,2.44,0.29s1.83,0.11,2.92.11q6.34,0,9.62-2.52t3.27-7.38c0-3.41-1-5.91-3-7.51s-5.21-2.39-9.55-2.39h-5.67Z" transform="translate(-95.86 -20.55)"/><path class="cls-3" d="M985.54,247.35c-69.53-2.46-164.38-34.19-184.06-80-17-41.68-.12-90.24,80.13-124.65,47.6-19.83,119.63-25.44,175.09-20.35,78.74,7.21,153.73,47.94,153.83,48v57.06l-0.06,3.84a369.73,369.73,0,0,0-54.91-39.92c-28.71-16.77-55-28.61-107.25-33.44-12.21-1.13-33-3.86-66.71.83-13.61,1.9-32.79,3.34-76,22.28-14,6.66-26.89,13.81-36.87,22.09-5.23,4.34-12.28,10.45-17.31,15.6-12.31,15.44-18.85,27-15.72,48,3.6,15.79,10.63,25.72,30.87,40.82,8.78,6.55,9.81,6.52,13.7,8.53,36.29,18.76,65.3,25.68,106.74,30.87" transform="translate(-95.86 -20.55)"/><path class="cls-3" d="M989.27,69.27c69.67-.28,168.5,27.63,194.21,72.57,22.52,40.9,12.12,90-63.35,127.48C1075.29,291,1004.19,299.4,948.2,296.51c-79.49-4.11-159.69-41.78-159.81-41.89l-7.58-56.9-0.45-3.84a421,421,0,0,0,60.07,37.66c30.87,15.61,58.71,26.38,111.41,29.14,12.32,0.65,33.45,2.55,66.42-3.45,13.33-2.42,32.27-4.61,72.81-25.21,13.11-7.19,25-14.83,33.84-23.49a215.06,215.06,0,0,0,15.19-16.23c10.22-15.88,15.21-27.69,9.3-48.51-5.7-15.61-14-25.24-36.22-39.51-9.62-6.19-10.64-6.11-14.8-8-38.69-17.27-68.54-23-110.56-26.58" transform="translate(-95.86 -20.55)"/></svg>