<?xml version="1.0" standalone="no"?>
<!DOCTYPE svg PUBLIC "-//W3C//DTD SVG 1.1//EN" "http://www.w3.org/Graphics/SVG/1.1/DTD/svg11.dtd" >
<svg>
<metadata>
Created by FontForge 20090622 at Wed Nov  2 06:00:57 2016
 By deploy user
Copyright (c) 2014, Erin McLaughlin (hello@erinmclaughlin.com). Digitized data copyright 2010, Google Corporation.
</metadata>
<defs>
<font id="Khula-Semibold" horiz-adv-x="0" >
  <font-face 
    font-family="Khula Semibold"
    font-weight="600"
    font-stretch="normal"
    units-per-em="1978"
    panose-1="2 0 0 0 0 0 0 0 0 0"
    ascent="1582"
    descent="-396"
    x-height="995"
    cap-height="1316"
    bbox="-1386 -1071 3446 1894"
    underline-thickness="0"
    underline-position="0"
    unicode-range="U+000D-U+25CC"
  />
<missing-glyph horiz-adv-x="1067" 
d="M285 156h502v980h-502v-980zM100 0v1283h867v-1283h-867z" />
    <glyph glyph-name=".notdef" horiz-adv-x="1067" 
d="M285 156h502v980h-502v-980zM100 0v1283h867v-1283h-867z" />
    <glyph glyph-name=".null" 
 />
    <glyph glyph-name="nonmarkingreturn" unicode="&#xd;" horiz-adv-x="532" 
 />
    <glyph glyph-name="space" unicode=" " horiz-adv-x="532" 
 />
    <glyph glyph-name="exclam" unicode="!" horiz-adv-x="607" 
d="M402 11q-35 -37 -98 -37t-98.5 36t-35.5 102t35 101t99 35t98.5 -36t34.5 -100t-35 -101zM430 1316l-46 -916h-157l-47 916h250z" />
    <glyph glyph-name="quotedbl" unicode="&#x22;" horiz-adv-x="904" 
d="M170 1316h208l-36 -475h-135zM525 1316h209l-37 -475h-135z" />
    <glyph glyph-name="numbersign" unicode="#" horiz-adv-x="1191" 
d="M1147 783h-257l-49 -256h243v-151h-273l-72 -376h-160l72 376h-224l-72 -376h-156l68 376h-225v151h255l51 256h-237v151h263l72 380h162l-72 -380h227l72 380h157l-72 -380h227v-151zM507 783l-52 -256h225l52 256h-225z" />
    <glyph glyph-name="dollar" unicode="$" horiz-adv-x="1052" 
d="M957 408q0 -132 -96 -216t-275 -104v-195h-120v190q-222 3 -366 68v190q81 -40 180 -64t186 -26v337l-75 28q-148 56 -216 135t-68 199.5t98 200.5t261 96v152h120v-149q181 -6 346 -74l-65 -164q-143 56 -281 66v-327l68 -27q171 -64 237 -138t66 -178zM744 394
q0 51 -36.5 85.5t-121.5 65.5v-287q158 26 158 136zM357 1030.5q-38 -33.5 -38 -84t31 -84t116 -67.5v280q-71 -11 -109 -44.5z" />
    <glyph glyph-name="percent" unicode="%" horiz-adv-x="1588" 
d="M1220 660q-59 0 -85.5 -64t-26.5 -200t26.5 -201.5t85.5 -65.5q118 0 118 265.5t-118 265.5zM1220 807q139 0 216 -106.5t77 -308.5t-74.5 -306t-215 -104t-216 107t-75.5 307q0 411 288 411zM363 1187q-59 0 -85.5 -64.5t-26.5 -201t26.5 -201t85.5 -64.5
q118 0 118 265.5t-118 265.5zM1071 1316h175l-730 -1316h-175zM363 1335q141 0 217 -107t76 -305q0 -415 -293 -415q-137 0 -212 108t-75 307q0 412 287 412z" />
    <glyph glyph-name="ampersand" unicode="&#x26;" horiz-adv-x="1364" 
d="M86 348q0 118 58.5 206.5t207.5 173.5q-86 101 -117 169t-31 142q0 136 98 216t259.5 80t252.5 -76.5t91 -208.5q0 -103 -61.5 -187t-201.5 -166l311 -301q72 94 122 283h217q-63 -257 -201 -417l271 -262h-273l-134 130q-188 -148 -426 -148q-206 0 -324.5 97.5
t-118.5 268.5zM540 164q165 0 282 96l-345 339q-96 -62 -131.5 -114.5t-35.5 -121.5q0 -88 62 -143.5t168 -55.5zM664.5 1131q-39.5 35 -107 35t-109.5 -36.5t-42 -93.5t28 -107t86 -111q103 59 143.5 108.5t40.5 109.5t-39.5 95z" />
    <glyph glyph-name="quotesingle" unicode="'" horiz-adv-x="548" 
d="M170 1316h208l-36 -475h-135z" />
    <glyph glyph-name="parenleft" unicode="(" horiz-adv-x="670" 
d="M164.5 165.5q-69.5 204.5 -69.5 441t69.5 444.5t201.5 365h184q-125 -170 -191.5 -380t-66.5 -430t67 -427t189 -371h-182q-132 153 -201.5 357.5z" />
    <glyph glyph-name="parenright" unicode=")" horiz-adv-x="670" 
d="M575 605q0 -237 -69.5 -441t-201.5 -356h-182q124 169 190 374.5t66 426t-66.5 429t-191.5 378.5h184q132 -158 201.5 -366t69.5 -445z" />
    <glyph glyph-name="asterisk" unicode="*" horiz-adv-x="1010" 
d="M400 1400h205l-37 -343l346 97l26 -196l-324 -26l212 -280l-179 -96l-150 304l-134 -304l-184 96l208 280l-322 26l31 196l338 -97z" />
    <glyph glyph-name="plus" unicode="+" horiz-adv-x="1052" 
d="M445 204v366h-359v160h359v367h162v-367h359v-160h-359v-366h-162z" />
    <glyph glyph-name="comma" unicode="," horiz-adv-x="492" 
d="M357 214l14 -21q-44 -168 -159 -431h-155q62 247 92 452h208z" />
    <glyph glyph-name="hyphen" unicode="-" horiz-adv-x="672" 
d="M567 504h-462v180h462v-180z" />
    <glyph glyph-name="period" unicode="." horiz-adv-x="507" 
d="M253 -26q-64 0 -98.5 36.5t-34.5 102t34 100.5t99 35t99.5 -36t34.5 -100t-35 -101t-99 -37z" />
    <glyph glyph-name="slash" unicode="/" horiz-adv-x="719" 
d="M505 1316h199l-490 -1316h-200z" />
    <glyph glyph-name="zero" unicode="0" horiz-adv-x="1052" 
d="M293 658q0 -271 55 -385.5t177.5 -114.5t177.5 117q57 117 57 382t-56.5 383.5t-178 118.5t-177 -115t-55.5 -386zM189 1170.5q110 165.5 333.5 165.5t337 -172.5t113.5 -510t-110.5 -504.5t-333.5 -167t-336.5 172t-113.5 511.5t110 505z" />
    <glyph glyph-name="one" unicode="1" horiz-adv-x="1052" 
d="M702 1316v-1316h-212v850q0 147 8 241q-21 -23 -68 -62.5l-185 -151.5l-106 135l387 304h176z" />
    <glyph glyph-name="two" unicode="2" horiz-adv-x="1052" 
d="M973 186v-186h-892v160l339 341q150 153 200 219t72 122t22 120q0 90 -53.5 141t-140 51t-157 -28.5t-161.5 -100.5l-114 140q108 91 211.5 130.5t222.5 39.5q184 0 294.5 -96t110.5 -258q0 -88 -31.5 -167.5t-97.5 -165t-221 -231.5l-229 -222v-9h625z" />
    <glyph glyph-name="three" unicode="3" horiz-adv-x="1052" 
d="M923 1013q0 -125 -72.5 -208t-205.5 -112v-7q158 -20 237.5 -98.5t79.5 -209.5q0 -189 -133.5 -292.5t-382.5 -103.5q-216 0 -369 71v188q175 -86 358 -86q154 0 229 56.5t75 168.5t-84 161.5t-263 49.5h-114v172h116q315 0 315 218q0 85 -55 130.5t-162 45.5
q-74 0 -144.5 -21.5t-163.5 -81.5l-103 147q182 134 420 134q198 0 310 -85.5t112 -236.5z" />
    <glyph glyph-name="four" unicode="4" horiz-adv-x="1052" 
d="M636 463v330q0 177 9 289h-7q-26 -62 -79 -144l-327 -475h404zM1020 463v-176h-178v-287h-206v287h-601v163l601 869h206v-856h178z" />
    <glyph glyph-name="five" unicode="5" horiz-adv-x="1052" 
d="M440 645q-85 0 -213 -28l-95 56l51 643h684v-188h-498l-30 -326q123 20 188 20q200 0 315.5 -105.5t115.5 -287.5q0 -211 -131 -329t-375 -118q-220 0 -347 71v192q76 -43 167.5 -65t175.5 -22q143 0 218 64t75 187q0 236 -301 236z" />
    <glyph glyph-name="six" unicode="6" horiz-adv-x="1052" 
d="M544 157q108 0 167 70t59 193t-56 186.5t-165 63.5q-100 4 -176.5 -63.5t-73.5 -149.5q0 -126 68 -214q69 -86 177 -86zM599 837q178 0 278.5 -109.5t100.5 -307t-116 -318t-323 -120.5t-330.5 153t-123.5 426q0 772 629 772q100 0 167 -15v-177q-69 20 -158 20
q-214 0 -319 -114.5t-114 -362.5h11q42 73 119 113t179 40z" />
    <glyph glyph-name="seven" unicode="7" horiz-adv-x="1052" 
d="M67 1128v186h909v-148l-517 -1166h-229l521 1128h-684z" />
    <glyph glyph-name="eight" unicode="8" horiz-adv-x="1052" 
d="M335 485.5q-53 -62.5 -53 -150t65 -139.5t179.5 -52t179 53t64.5 146q0 143 -239 245l-26 11q-117 -51 -170 -113.5zM680.5 880.5q45.5 52.5 45.5 126.5t-54.5 118.5t-146.5 44.5t-146.5 -44.5t-54.5 -121.5q0 -86 77 -151q37 -29 128 -72q106 47 151.5 99.5zM232 1248
q112 85 296 85t293.5 -85.5t109.5 -230.5q0 -203 -243 -322q154 -78 219.5 -164t65.5 -190q0 -163 -120.5 -261t-328.5 -98t-326.5 91.5t-118.5 260.5q0 113 63 199.5t201 154.5q-119 71 -171 150.5t-52 181.5q0 143 112 228z" />
    <glyph glyph-name="nine" unicode="9" horiz-adv-x="1052" 
d="M193 1211q116 122 322.5 122t331 -153.5t124.5 -425.5q0 -389 -156.5 -580.5t-471.5 -191.5q-118 0 -172 14v178q81 -23 161 -23q214 0 319.5 115.5t115.5 361.5h-11q-52 -80 -126.5 -116.5t-177.5 -36.5q-175 0 -275 109t-100 307t116 320zM343.5 1086
q-58.5 -71 -58.5 -193.5t55.5 -186t163.5 -63.5t181 64t73 150q2 122 -69.5 212.5t-176.5 87.5q-110 0 -168.5 -71z" />
    <glyph glyph-name="colon" unicode=":" horiz-adv-x="507" 
d="M253 -26q-64 0 -98.5 36.5t-34.5 102t34 100.5t99 35t99.5 -36t34.5 -100t-35 -101t-99 -37zM352 779q-35 -37 -99.5 -37t-98.5 36.5t-34 102.5q0 136 133 136q66 0 100 -35.5t34 -100.5t-35 -102z" />
    <glyph glyph-name="semicolon" unicode=";" horiz-adv-x="512" 
d="M149 214h208l14 -21q-44 -168 -159 -431h-155q62 247 92 452zM350 779q-35 -37 -99.5 -37t-98.5 36.5t-34 102.5q0 136 133 136q67 0 100.5 -35.5t33.5 -100.5t-35 -102z" />
    <glyph glyph-name="less" unicode="&#x3c;" horiz-adv-x="1052" 
d="M966 376v-177l-880 387v109l880 439v-176l-660 -309z" />
    <glyph glyph-name="equal" unicode="=" horiz-adv-x="1052" 
d="M958 389h-866v160h866v-160zM958 748h-866v161h866v-161z" />
    <glyph glyph-name="greater" unicode="&#x3e;" horiz-adv-x="1052" 
d="M86 199v177l660 273l-660 309v176l880 -439v-109z" />
    <glyph glyph-name="question" unicode="?" horiz-adv-x="987" 
d="M462 -26q-63 0 -97.5 36t-34.5 102q0 136 132 136q65 0 99 -35t34 -100t-35 -102t-98 -37zM543 400h-176v57q0 99 36 164.5t134 142.5t129.5 124t31.5 117.5t-50.5 111t-144.5 40.5q-133 0 -301 -82l-76 158q183 102 392 102q176 0 279.5 -86.5t103.5 -238.5
q0 -128 -79 -221q-44 -51 -139 -124q-85 -68 -112.5 -110t-27.5 -115v-40z" />
    <glyph glyph-name="at" unicode="@" horiz-adv-x="1655" 
d="M628 551q0 -210 165 -210q173 0 190 264l11 215q-57 15 -122 15q-115 0 -179.5 -76.5t-64.5 -207.5zM770 204q-146 0 -231 94q-84 95 -84 256q0 186 112.5 301.5t299.5 115.5q69 0 153 -12t146 -34l-19 -418v-22q0 -144 93 -144q71 0 113 91.5t42 234.5q3 230 -139.5 373
t-369.5 140q-189 2 -332 -78.5t-218.5 -228.5t-73.5 -340q0 -261 139.5 -401.5t400.5 -140.5q199 0 415 81v-148q-190 -77 -412 -77q-332 0 -519 179q-186 180 -186 501q0 236 100 418q99 182 278.5 280t406.5 98q193 3 346.5 -79.5t239 -234t82.5 -344.5q1 -197 -90.5 -331
t-233.5 -130q-71 0 -123 38t-70 103h-11q-88 -141 -255 -141z" />
    <glyph glyph-name="A" unicode="A" horiz-adv-x="1219" 
d="M1219 0h-229l-131 365h-504l-128 -365h-227l492 1321h234zM418 551h384q-153 447 -169 498t-25 87q-24 -109 -71 -242z" />
    <glyph glyph-name="B" unicode="B" horiz-adv-x="1217" 
d="M607 598h-218v-417h228q137 0 205 52.5t68 159t-70 156t-213 49.5zM389 1136v-364h207q136 0 197.5 43.5t61.5 140.5t-66.5 138.5t-213.5 41.5h-186zM174 0v1316h390q271 0 392.5 -79.5t121.5 -250.5q0 -116 -60 -192t-170 -96v-9q137 -26 203 -102.5t66 -208.5
q0 -178 -124 -278t-344 -100h-475z" />
    <glyph glyph-name="C" unicode="C" horiz-adv-x="1168" 
d="M733 1150q-185 0 -291 -131t-106 -367.5t101.5 -361t295.5 -124.5q136 0 325 59v-185q-153 -58 -351 -58q-290 0 -444 175t-154 501q-2 203 74 357.5t219.5 238t332.5 81.5q203 0 373 -85l-78 -179q-170 79 -297 79z" />
    <glyph glyph-name="D" unicode="D" horiz-adv-x="1353" 
d="M542 181q475 0 475 482q0 473 -442 473h-186v-955h153zM580 1316q314 0 489 -169.5t175 -486t-181 -488.5t-521 -172h-368v1316h406z" />
    <glyph glyph-name="E" unicode="E" horiz-adv-x="1029" 
d="M918 183v-183h-744v1316h744v-182h-529v-358h496v-180h-496v-413h529z" />
    <glyph glyph-name="F" unicode="F" horiz-adv-x="981" 
d="M387 540v-540h-213v1316h742v-182h-529v-411h496v-183h-496z" />
    <glyph glyph-name="G" unicode="G" horiz-adv-x="1338" 
d="M712 529v185h484v-661q-116 -38 -225 -54.5t-239 -16.5q-299 0 -461 177t-162 497t182.5 499.5t503.5 179.5q204 0 390 -80l-75 -179q-162 74 -321 74q-210 0 -333 -132q-122 -133 -122 -367.5t110 -360.5t317 -126q103 0 224 26v339h-273z" />
    <glyph glyph-name="H" unicode="H" horiz-adv-x="1384" 
d="M1211 1316v-1316h-216v593h-606v-593h-215v1316h215v-538h606v538h216z" />
    <glyph glyph-name="I" unicode="I" horiz-adv-x="562" 
d="M389 0h-215v1316h215v-1316z" />
    <glyph glyph-name="J" unicode="J" horiz-adv-x="551" 
d="M383 48q0 -202 -95.5 -308.5t-280.5 -106.5q-90 0 -147 22v181q73 -19 131 -19q176 0 176 223v1276h216v-1268z" />
    <glyph glyph-name="K" unicode="K" horiz-adv-x="1178" 
d="M389 0h-215v1316h215v-628l175 207l356 421h245l-495 -577l508 -739h-249l-413 596l-127 -104v-492z" />
    <glyph glyph-name="L" unicode="L" horiz-adv-x="999" 
d="M946 0h-772v1316h215v-1132h557v-184z" />
    <glyph glyph-name="M" unicode="M" horiz-adv-x="1701" 
d="M369 640v-640h-195v1316h303l365 -1047h6l376 1047h304v-1316h-207v651q0 80 5 246.5t9 199.5h-8l-395 -1097h-190l-381 1099h-7q15 -245 15 -459z" />
    <glyph glyph-name="N" unicode="N" horiz-adv-x="1444" 
d="M1270 1316v-1316h-264l-647 1048h-7l4 -58q13 -160 13 -306v-684h-195v1316h261l645 -1043h5q-12 257 -12 353v690h197z" />
    <glyph glyph-name="O" unicode="O" horiz-adv-x="1451" 
d="M1016 1027.5q-97 124.5 -289 124.5t-291 -125t-99 -367.5t98.5 -368t290.5 -125.5q387 0 387 494q0 243 -97 367.5zM1342 660q0 -321 -160.5 -499.5t-457 -178.5t-456.5 177q-159 177 -159 503t160 500t455.5 174t456.5 -177.5t161 -498.5z" />
    <glyph glyph-name="P" unicode="P" horiz-adv-x="1134" 
d="M389 1136v-463h114q166 0 243 57.5t77 176t-69.5 174t-215.5 55.5h-149zM553 1316q245 0 368.5 -100.5t123.5 -302t-134.5 -311.5t-384.5 -110h-137v-492h-215v1316h379z" />
    <glyph glyph-name="Q" unicode="Q" horiz-adv-x="1451" 
d="M1016 1027.5q-97 124.5 -289 124.5t-291 -125t-99 -367.5t98.5 -368t290.5 -125.5q387 0 387 494q0 243 -97 367.5zM1342 660q0 -241 -91.5 -404t-265.5 -230l315 -339h-290l-249 295h-35q-298 0 -458 177q-159 177 -159 503t160 500t455.5 174t456.5 -177.5t161 -498.5z
" />
    <glyph glyph-name="R" unicode="R" horiz-adv-x="1178" 
d="M389 526v-526h-215v1316h371q254 0 377 -95t123 -289q0 -245 -256 -350l372 -582h-245l-315 526h-212zM389 1134v-430h149q148 0 216.5 54.5t68.5 165.5t-71.5 160.5t-220.5 49.5h-142z" />
    <glyph glyph-name="S" unicode="S" horiz-adv-x="1013" 
d="M801 630q131 -99 131 -273.5t-126 -274.5t-350 -100t-366 69v204q192 -91 380 -91q125 0 187 47.5t62 126.5t-55 129.5t-234 123t-252 166.5t-73 224q0 165 117.5 259.5t309.5 94.5t381 -83l-69 -176q-177 74 -313 74q-102 0 -157 -44.5t-55 -120.5q0 -52 21 -89
q24 -38 72.5 -69t185 -88t203.5 -109z" />
    <glyph glyph-name="T" unicode="T" horiz-adv-x="1043" 
d="M628 1131v-1131h-215v1131h-387v185h989v-185h-387z" />
    <glyph glyph-name="U" unicode="U" horiz-adv-x="1368" 
d="M990 1316h215v-852q2 -220 -140 -352.5t-386 -129.5q-245 0 -381 129q-136 130 -136 357v848h216v-833q0 -162 75.5 -239.5t232.5 -77.5q304 0 304 319v831z" />
    <glyph glyph-name="V" unicode="V" horiz-adv-x="1147" 
d="M649 501l274 815h224l-461 -1316h-227l-459 1316h221l275 -818q20 -56 44 -144.5t33 -143.5q12 69 37.5 161t38.5 130z" />
    <glyph glyph-name="W" unicode="W" horiz-adv-x="1743" 
d="M1731 1316l-343 -1316h-234l-223 785q-13 45 -37 148q-22 104 -26 134q-8 -50 -27 -140.5t-36 -145.5l-217 -781h-234l-170 659l-173 657h219l188 -767q45 -184 63 -326q24 175 66 324l214 769h214l219 -772q34 -116 67 -321q14 134 65 328l187 765h218z" />
    <glyph glyph-name="X" unicode="X" horiz-adv-x="1147" 
d="M700 679l443 -679h-248l-329 538l-332 -538h-230l436 682l-409 634h240l304 -498l304 498h232z" />
    <glyph glyph-name="Y" unicode="Y" horiz-adv-x="1091" 
d="M652 0h-216v503l-436 813h234l311 -601l312 601h234l-439 -806v-510z" />
    <glyph glyph-name="Z" unicode="Z" horiz-adv-x="1060" 
d="M1001 184v-184h-942v149l664 982h-646v185h906v-151l-666 -981h684z" />
    <glyph glyph-name="bracketleft" unicode="[" horiz-adv-x="608" 
d="M562 -32v-160h-423v1608h423v-159h-230v-1289h230z" />
    <glyph glyph-name="backslash" unicode="\" horiz-adv-x="719" 
d="M14 1316h200l490 -1316h-199z" />
    <glyph glyph-name="bracketright" unicode="]" horiz-adv-x="608" 
d="M46 -192v160h230v1289h-230v159h422v-1608h-422z" />
    <glyph glyph-name="asciicircum" unicode="^" horiz-adv-x="990" 
d="M199 481h-173l392 842h109l437 -842h-175l-314 625z" />
    <glyph glyph-name="underscore" unicode="_" horiz-adv-x="791" 
d="M795 -166v-121h-799v121h799z" />
    <glyph glyph-name="grave" unicode="`" horiz-adv-x="1081" 
d="M769 1249l-103 -8q-5 3 -49.5 21.5t-65.5 33.5q-104 79 -185 153q-28 28 -63 79l170 8q5 -7 66.5 -37.5t84.5 -54.5q7 -12 45 -61t62.5 -84t37.5 -50z" />
    <glyph glyph-name="a" unicode="a" horiz-adv-x="1069" 
d="M925 0h-151l-42 139h-8q-72 -91 -144.5 -124t-187.5 -33q-147 0 -229 79.5t-82 228.5q0 299 463 313l171 5v53q0 96 -44.5 143t-137.5 47q-119 0 -282 -75l-68 151q166 86 358.5 86t288 -83.5t95.5 -259.5v-670zM301 283q0 -67 40 -103t118 -36q115 0 185 64t70 181v86
l-128 -5q-150 -6 -217.5 -50.5t-67.5 -136.5z" />
    <glyph glyph-name="b" unicode="b" horiz-adv-x="1148" 
d="M837 501q0 340 -232 340q-128 0 -184 -75.5t-58 -251.5v-15q0 -181 58 -262.5t187 -81.5q113 0 171 88.5t58 257.5zM363 865q100 148 291.5 148t295.5 -135.5t104 -379.5t-105.5 -380t-294 -136t-291.5 136h-15l-38 -118h-159v1400h212v-333q0 -36 -9 -202h9z" />
    <glyph glyph-name="c" unicode="c" horiz-adv-x="913" 
d="M553 -18q-225 0 -343 131.5t-118 381t122.5 384t355.5 134.5q158 0 283 -58l-64 -170q-132 52 -221 52q-258 0 -258 -343q0 -167 64 -251.5t188 -84.5q141 0 268 71v-185q-107 -62 -277 -62z" />
    <glyph glyph-name="d" unicode="d" horiz-adv-x="1148" 
d="M785 130q-102 -148 -293 -148t-296 135q-104 136 -104 379.5t105 380.5q106 136 298 136t294 -145h11q-15 108 -15 170v362h212v-1400h-165l-37 130h-10zM370 750.5q-60 -90.5 -60 -257.5t59 -253.5t182 -86.5t182.5 73.5t61.5 237.5v30q0 187 -62 267t-191 80
q-112 0 -172 -90.5z" />
    <glyph glyph-name="e" unicode="e" horiz-adv-x="1062" 
d="M547 853q-102 0 -162 -64t-72 -186h452q-2 122 -59 186t-159 64zM586 -18q-232 0 -363 136t-131 376t121.5 379.5t326 139.5t318.5 -120q115 -118 115 -329v-114h-663q4 -145 78 -223t208 -78q163 0 327 72v-172q-144 -67 -337 -67z" />
    <glyph glyph-name="f" unicode="f" horiz-adv-x="669" 
d="M651 995v-160h-243v-835h-213v835h-164v99l164 65v65q0 176 83 261t253 85q113 0 220 -37l-56 -160q-78 25 -149.5 25t-104.5 -44t-33 -134v-65h243z" />
    <glyph glyph-name="g" unicode="g" horiz-adv-x="1025" 
d="M408 4q-91 0 -144.5 -43t-53.5 -113.5t61.5 -107.5t173.5 -37q168 0 255 48.5t87 132.5q0 64 -46.5 92t-172.5 28h-160zM992 995v-116l-170 -31q54 -75 54 -175q0 -153 -106.5 -241.5t-292.5 -88.5q-51 0 -86 7q-69 -42 -69 -99q0 -35 33.5 -51.5t116.5 -16.5h173
q164 0 250 -70t86 -203q0 -169 -140 -261t-403 -92q-202 0 -309.5 72t-107.5 205q0 92 57.5 154.5t162.5 87.5q-42 18 -69.5 58t-27.5 89t29.5 87.5t95.5 78.5q-79 34 -126.5 109.5t-47.5 174.5q0 162 102.5 251t291.5 89q41 0 88.5 -5.5t69.5 -12.5h345zM487 877
q-92 0 -139 -52t-47 -148.5t48 -147t138 -50.5q183 0 183 199t-183 199z" />
    <glyph glyph-name="h" unicode="h" horiz-adv-x="1170" 
d="M1027 649v-649h-213v612q0 116 -46.5 172.5t-146.5 56.5q-133 0 -195.5 -80t-62.5 -267v-494h-212v1400h212v-355q0 -81 -11 -183h13q93 151 300 151q362 0 362 -364z" />
    <glyph glyph-name="i" unicode="i" horiz-adv-x="514" 
d="M363 995v-995h-212v995h212zM345 1174q-31 -31 -87.5 -31t-87.5 31t-31 86.5t31 86t87.5 30.5t87.5 -30.5t31 -86t-31 -86.5z" />
    <glyph glyph-name="j" unicode="j" horiz-adv-x="514" 
d="M363 -131q0 -153 -80.5 -232.5t-233.5 -79.5q-94 0 -158 23v167q60 -16 125 -16q135 0 135 153v1111h212v-1126zM345 1174q-31 -31 -87.5 -31t-87.5 31t-31 86.5t31 86t87.5 30.5t87.5 -30.5t31 -86t-31 -86.5z" />
    <glyph glyph-name="k" unicode="k" horiz-adv-x="1054" 
d="M361 0h-210v1400h210v-683l-11 -191h5l120 149l301 320h244l-401 -427l426 -568h-249l-319 436l-116 -95v-341z" />
    <glyph glyph-name="l" unicode="l" horiz-adv-x="514" 
d="M363 1400v-1400h-212v1400h212z" />
    <glyph glyph-name="m" unicode="m" horiz-adv-x="1762" 
d="M990 527v-527h-212v614q0 115 -43.5 171t-135.5 56q-123 0 -179.5 -80.5t-56.5 -264.5v-496h-212v995h166l29 -130h11q42 71 120 109.5t174 38.5q229 0 304 -156h14q44 74 124.5 115t183.5 41q176 0 258.5 -89.5t82.5 -274.5v-649h-211v614q0 227 -179 227
q-123 0 -180.5 -76.5t-57.5 -237.5z" />
    <glyph glyph-name="n" unicode="n" horiz-adv-x="1170" 
d="M1027 649v-649h-213v612q0 116 -46.5 172.5t-146.5 56.5q-134 0 -196 -80t-62 -265v-496h-212v995h166l29 -130h11q45 71 127.5 109.5t184.5 38.5q358 0 358 -364z" />
    <glyph glyph-name="o" unicode="o" horiz-adv-x="1126" 
d="M562 841q-252 0 -252 -343t254 -343q252 0 252 343t-254 343zM92 499q0 244 124 379t345 135t347 -139.5t126 -378.5t-125 -376t-348 -137q-210 -4 -341 140.5t-128 376.5z" />
    <glyph glyph-name="p" unicode="p" horiz-adv-x="1148" 
d="M363 862q99 151 291 151t296 -135.5t104 -379t-106.5 -380t-294 -136.5t-290.5 136h-13q13 -121 13 -153v-408h-212v1438h171q8 -31 30 -133h11zM777.5 245q59.5 90 59.5 257t-59 253t-179 86t-178 -74t-58 -236v-32q0 -181 58 -262.5t187 -81.5q110 0 169.5 90z" />
    <glyph glyph-name="q" unicode="q" horiz-adv-x="1148" 
d="M310 492q0 -341 235 -341q132 0 191 75.5t59 234.5v33q0 185 -60 266t-193 81q-114 0 -173 -90t-59 -259zM485 -18q-184 0 -289 135q-104 137 -104 380t106.5 379.5t295 136.5t297.5 -148h7l24 130h175v-1438h-212v422q0 55 10 151h-12q-94 -148 -298 -148z" />
    <glyph glyph-name="r" unicode="r" horiz-adv-x="795" 
d="M656 1013q64 0 105 -9l-20 -197q-47 11 -94 11q-126 0 -206 -83q-78 -83 -78 -215v-520h-212v995h166l28 -175h10q51 90 130.5 141.5t170.5 51.5z" />
    <glyph glyph-name="s" unicode="s" horiz-adv-x="897" 
d="M710 498q110 -76 110 -218t-106.5 -220t-304 -78t-319.5 60v183q176 -81 327 -81q195 0 195 118q-1 54 -46 86.5t-184 89.5q-172 67 -233 133.5t-61 172.5q0 128 103.5 198.5t278.5 70.5t334 -71l-69 -159q-159 67 -271 67q-167 0 -167 -96q0 -48 43.5 -79.5t180 -84.5
t189.5 -92z" />
    <glyph glyph-name="t" unicode="t" horiz-adv-x="724" 
d="M383 302q0 -74 37.5 -111.5t108 -37.5t148.5 24v-159q-85 -36 -205 -36q-301 0 -301 317v536h-136v94l146 77l72 211h130v-222h284v-160h-284v-533z" />
    <glyph glyph-name="u" unicode="u" horiz-adv-x="1170" 
d="M1020 0h-167l-30 130h-10q-45 -70 -126.5 -109t-185.5 -39q-181 0 -270 90t-89 273v650h213v-613q0 -116 47.5 -172.5t146.5 -56.5q134 0 195 79q63 80 63 267v496h213v-995z" />
    <glyph glyph-name="v" unicode="v" horiz-adv-x="986" 
d="M607 0h-229l-378 995h223l203 -578q52 -145 63 -236h7q8 65 63 236l202 578h225z" />
    <glyph glyph-name="w" unicode="w" horiz-adv-x="1506" 
d="M1205 0h-238l-128 464q-22 66 -85 343h-8q-55 -255 -83 -344l-132 -463h-234l-279 995h216l127 -490q42 -177 61 -312h5q9 65 27.5 149t32.5 130l151 523h232l147 -523q14 -46 33.5 -134.5t24.5 -142.5h7q13 110 63 310l128 490h213z" />
    <glyph glyph-name="x" unicode="x" horiz-adv-x="1015" 
d="M22 0l351 508l-334 487h241l227 -348l228 348h240l-335 -487l352 -508h-240l-245 373l-245 -373h-240z" />
    <glyph glyph-name="y" unicode="y" horiz-adv-x="988" 
d="M175 -443q-70 0 -136 15v168q49 -11 109 -11q154 0 215 177l37 94l-400 995h230l203 -564q46 -120 61 -227h7q7 50 34 133.5t225 657.5h228l-426 -1127q-116 -311 -387 -311z" />
    <glyph glyph-name="z" unicode="z" horiz-adv-x="881" 
d="M816 162v-162h-755v130l503 703h-472v162h710v-147l-492 -686h506z" />
    <glyph glyph-name="braceleft" unicode="{" horiz-adv-x="790" 
d="M320 102v256q0 168 -240 168v172q122 0 181 40.5t59 124.5v280q0 139 97 206t293 67v-164q-102 -5 -148.5 -42t-46.5 -111v-267q0 -179 -206 -215v-10q206 -33 206 -214v-269q0 -75 46.5 -112t148.5 -39v-165q-207 1 -298.5 70.5t-91.5 223.5z" />
    <glyph glyph-name="bar" unicode="|" horiz-adv-x="1015" 
d="M426 -433v1830h162v-1830h-162z" />
    <glyph glyph-name="braceright" unicode="}" horiz-adv-x="763" 
d="M457 358v-276q0 -141 -90 -206.5t-287 -67.5v165q90 1 135.5 36t45.5 115v236q0 110 48.5 169t157.5 78v10q-206 36 -206 215v267q0 75 -41.5 111.5t-139.5 41.5v164q200 0 288.5 -69t88.5 -226v-258q0 -88 55.5 -126.5t170.5 -38.5v-172q-113 0 -169.5 -39.5
t-56.5 -128.5z" />
    <glyph glyph-name="asciitilde" unicode="~" horiz-adv-x="1052" 
d="M297 623q-102 0 -211 -109v172q88 97 225 97q61 0 113 -11.5t150.5 -53t179.5 -41.5q101 0 212 108v-171q-94 -100 -225 -100q-102 0 -247 59q-115 50 -197 50z" />
    <glyph glyph-name="nonbreakingspace" unicode="&#xa0;" horiz-adv-x="532" 
 />
    <glyph glyph-name="copyright" unicode="&#xa9;" horiz-adv-x="1534" 
d="M986 881q-95 50 -188 50t-147.5 -72t-54.5 -204.5t50 -202t158 -69.5q51 0 107.5 13.5t96.5 32.5v-142q-102 -46 -212 -46q-177 0 -274.5 108.5t-97.5 304.5t99 307.5t275 111.5q124 0 247 -63zM201 658q0 -154 76.5 -284t206.5 -207q132 -75 284 -75t283.5 77t206.5 207
t75 282t-76.5 283.5t-207.5 207t-282 75.5t-281.5 -74t-207.5 -206t-77 -286zM1356 325q-86 -155 -244 -249t-345 -94t-344 92.5t-245 249t-88 335.5t90 336.5t247 248.5t338 91t338.5 -90t249 -247.5t91.5 -337.5t-88 -335z" />
    <glyph glyph-name="multiply" unicode="&#xd7;" horiz-adv-x="1052" 
d="M120 355l291 296l-293 293l112 114l296 -293l296 293l112 -110l-296 -297l293 -296l-111 -112l-296 293l-292 -293z" />
    <glyph glyph-name="divide" unicode="&#xf7;" horiz-adv-x="1052" 
d="M607.5 245.5q-30.5 -33.5 -83 -33.5t-83 32t-30.5 91t29 90.5t84.5 31.5t84.5 -32t29 -89t-30.5 -90.5zM966 570h-880v160h880v-160zM607.5 874q-30.5 -33 -83.5 -33t-83 32t-30 90.5t29 90t84.5 31.5t84.5 -32t29 -89t-30.5 -90z" />
    <glyph glyph-name="uni02BC" unicode="&#x2bc;" horiz-adv-x="725" 
d="M549 1498l13 -24l-175 -460h-182l101 484h243z" />
    <glyph glyph-name="invertedcandrabindu" unicode="&#x900;" 
d="M-281 1416q0 -43 -25.5 -71t-74 -28t-74 27.5t-25.5 71t25.5 71.5t74 28t74 -28t25.5 -71zM-787 1619q154 174 392.5 174t422.5 -166l-53 -152q-166 156 -358 156t-342 -153z" />
    <glyph glyph-name="candrabindudeva" unicode="&#x901;" 
d="M73 1572q-154 -174 -392.5 -174t-422.5 166l53 152q166 -156 358 -156t342 153zM-433 1775q0 43 25.5 71t74 28t74 -27.5t25.5 -71t-25.5 -71.5t-74 -28t-74 28t-25.5 71z" />
    <glyph glyph-name="anusvaradeva" unicode="&#x902;" 
d="M-448 1598q0 48 30.5 80.5t85.5 32.5t85 -32.5t30 -80.5t-30.5 -81t-84.5 -33t-85 33t-31 81z" />
    <glyph glyph-name="visargadeva" unicode="&#x903;" horiz-adv-x="528" 
d="M253 -26q-64 0 -98.5 36.5t-34.5 102t34 100.5t99 35t99.5 -36t34.5 -100t-35 -101t-99 -37zM352 779q-35 -37 -99.5 -37t-98.5 36.5t-34 102.5q0 136 133 136q66 0 100 -35.5t34 -100.5t-35 -102z" />
    <glyph glyph-name="ashortdeva" unicode="&#x904;" horiz-adv-x="1616" 
d="M1184 0v505q-80 -28 -178 -28q-55 0 -119 8q2 -28 2 -44q0 -141 -98.5 -237.5t-262.5 -96.5q-226 0 -442 158l48 163q184 -146 358 -146q97 0 152.5 52t55.5 133q0 131 -134 208q-107 -36 -246 -39l-15 -1l-35 162h9q185 4 275.5 60.5t90.5 138.5q0 63 -48 101t-135 38
q-132 0 -280 -87l-55 165q163 85 337.5 85t268 -86.5t93.5 -225.5t-107 -229q68 -51 108 -109q60 -10 129 -10q130 0 228 58v440h-205v147h198v80q0 121 -109 121q-31 0 -113.5 -21.5t-159.5 -21.5q-153 0 -281 154l78 127q64 -64 110.5 -88.5t95 -24.5t152 27t173.5 27
q111 0 179.5 -74t68.5 -199v-107h275v-147h-255v-1136h-207z" />
    <glyph glyph-name="adeva" unicode="&#x905;" horiz-adv-x="1616" 
d="M1184 0v505q-80 -28 -178 -28q-55 0 -119 8q2 -28 2 -44q0 -141 -98.5 -237.5t-262.5 -96.5q-226 0 -442 158l48 163q184 -146 358 -146q97 0 152.5 52t55.5 133q0 131 -134 208q-107 -36 -246 -39l-15 -1l-35 162h9q185 4 275.5 60.5t90.5 138.5q0 63 -48 101t-135 38
q-132 0 -280 -87l-55 165q163 85 337.5 85t268 -86.5t93.5 -225.5t-107 -229q68 -51 108 -109q60 -10 129 -10q130 0 228 58v440h-205v147h667v-147h-255v-1136h-207z" />
    <glyph glyph-name="aadeva" unicode="&#x906;" horiz-adv-x="2217" 
d="M1184 0v505q-80 -28 -178 -28q-55 0 -119 8q2 -28 2 -44q0 -141 -98.5 -237.5t-262.5 -96.5q-226 0 -442 158l48 163q184 -146 358 -146q97 0 152.5 52t55.5 133q0 131 -134 208q-107 -36 -246 -39l-15 -1l-35 162h9q185 4 275.5 60.5t90.5 138.5q0 63 -48 101t-135 38
q-132 0 -280 -87l-55 165q163 85 337.5 85t268 -86.5t93.5 -225.5t-107 -229q68 -51 108 -109q60 -10 129 -10q130 0 228 58v440h-205v147h1268v-147h-254v-1136h-206v1136h-396v-1136h-207z" />
    <glyph glyph-name="ideva" unicode="&#x907;" horiz-adv-x="1052" 
d="M120 184q0 49 37.5 85t94.5 36q102 0 216 -114q141 8 216 57.5t75 112.5q0 50 -39.5 79t-114.5 29q-103 0 -232 -73h-12q-268 125 -268 322q0 101 75.5 166.5t229.5 65.5h245v186h-673v147h1112v-147h-232v-335h-430q-68 0 -104 -31t-36 -79q0 -70 78 -117
q129 55 270.5 55t230 -75t88.5 -191t-91.5 -204t-255.5 -116l188 -202l-132 -91l-255 279q-144 5 -212.5 50t-68.5 105z" />
    <glyph glyph-name="iideva" unicode="&#x908;" horiz-adv-x="1052" 
d="M120 184q0 49 37.5 85t94.5 36q102 0 216 -114q141 8 216 57.5t75 112.5q0 50 -39.5 79t-114.5 29q-103 0 -232 -73h-12q-268 125 -268 322q0 101 75.5 166.5t229.5 65.5h245v186h-673v147h636q-80 126 -80 248.5t86 198t241 75.5q90 0 161 -20l-11 -133q-58 12 -115 12
q-79 0 -124.5 -46t-45.5 -117q0 -101 82 -218h282v-147h-232v-335h-430q-68 0 -104 -31t-36 -79q0 -70 78 -117q129 55 270.5 55t230 -75t88.5 -191t-91.5 -204t-255.5 -116l188 -202l-132 -91l-255 279q-144 5 -212.5 50t-68.5 105z" />
    <glyph glyph-name="udeva" unicode="&#x909;" horiz-adv-x="1083" 
d="M557 18q-139 0 -260.5 41t-244.5 125l56 168q206 -155 422 -155q107 0 170.5 57t63.5 146q0 72 -50 135.5t-140 101.5q-104 -29 -242 -32l-41 -1l-36 170l39 1q388 16 388 205q0 101 -105 156h-607v147h1143v-147h-290q49 -72 49 -177q0 -142 -119 -236
q101 -66 154 -155.5t53 -191.5q0 -154 -110 -256t-293 -102z" />
    <glyph glyph-name="uudeva" unicode="&#x90a;" horiz-adv-x="1567" 
d="M960 376q0 -154 -110 -256t-293 -102q-139 0 -260.5 41t-244.5 125l56 168q206 -155 422 -155q107 0 170.5 57t63.5 146q0 72 -50 135.5t-140 101.5q-104 -29 -242 -32l-41 -1l-36 170l39 1q388 16 388 205q0 101 -105 156h-607v147h1627v-147h-774q49 -72 49 -177
q0 -142 -119 -236q42 -29 69 -53q147 80 275 80q170 0 270 -94t100 -248q0 -186 -128 -358l-179 71q126 173 126 308q0 70 -42.5 111.5t-118.5 41.5q-96 0 -191 -70q26 -66 26 -136z" />
    <glyph glyph-name="rvocalicdeva" unicode="&#x90b;" horiz-adv-x="1624" 
d="M938 0h-211v374l-468 -238l-93 164l532 264l-82 55q-166 112 -296 112q-84 0 -204 -59l-54 182q125 59 236 59q169 0 354 -122l75 -50v395h-757v147h1684v-147h-716v-464q44 -10 111 -10t139 31q-30 50 -30 89.5t31 63.5t92 23q92 0 153 -32t61 -88.5t-67 -120.5
q110 -168 110 -290.5t-75 -200t-223 -102.5l-93 138q114 27 162 73t48 118.5t-68 175.5q-117 -51 -248 -51q-49 0 -103 8v-497z" />
    <glyph glyph-name="lvocalicdeva" unicode="&#x90c;" horiz-adv-x="1574" 
d="M1265 -142q-133 0 -219 69t-86 169.5t72 167.5t188 74q63 102 63 189t-42.5 134t-119.5 47q-100 0 -179 -100t-114 -293l-186 60q26 149 84 260q-103 84 -218 84q-93 0 -152.5 -62t-59.5 -154.5t56 -184.5t194 -219l-149 -90q-149 136 -223 268.5t-74 277.5t99 245
t263 100q197 0 361 -128q102 103 241 115v249h-1094v147h1634v-147h-329v-282q95 -44 146.5 -132t51.5 -200q0 -153 -107 -304h-38q-98 0 -145.5 -36t-47.5 -84.5t36.5 -77.5t110.5 -29t168 39l25 -132q-101 -40 -210 -40z" />
    <glyph glyph-name="ecandradeva" unicode="&#x90d;" horiz-adv-x="1211" 
d="M769 -123q39 69 39 126.5t-87 115.5l-360 240q-108 73 -149 155.5t-41 221.5v400h-201v147h1271v-147h-231v-355q0 -100 -24.5 -172t-83.5 -144l-165 85q36 62 51 121t15 150v315h-425v-416q0 -96 28.5 -146t110.5 -105l362 -243q141 -95 141 -216q0 -84 -54 -185z
M1000 1593q-154 -174 -392.5 -174t-422.5 166l53 152q166 -156 358 -156t342 153z" />
    <glyph glyph-name="eshortdeva" unicode="&#x90e;" horiz-adv-x="1211" 
d="M769 -123q39 69 39 126.5t-87 115.5l-360 240q-108 73 -149 155.5t-41 221.5v400h-201v147h833v80q0 121 -109 121q-31 0 -113.5 -21.5t-159.5 -21.5q-153 0 -281 154l78 127q64 -64 110.5 -88.5t95 -24.5t152 27t173.5 27q111 0 179.5 -74t68.5 -199v-107h244v-147h-231
v-355q0 -100 -24.5 -172t-83.5 -144l-165 85q36 62 51 121t15 150v315h-425v-416q0 -96 28.5 -146t110.5 -105l362 -243q141 -95 141 -216q0 -84 -54 -185z" />
    <glyph glyph-name="edeva" unicode="&#x90f;" horiz-adv-x="1211" 
d="M769 -123q39 69 39 126.5t-87 115.5l-360 240q-108 73 -149 155.5t-41 221.5v400h-201v147h1271v-147h-231v-355q0 -100 -24.5 -172t-83.5 -144l-165 85q36 62 51 121t15 150v315h-425v-416q0 -96 28.5 -146t110.5 -105l362 -243q141 -95 141 -216q0 -84 -54 -185z" />
    <glyph glyph-name="aideva" unicode="&#x910;" horiz-adv-x="1211" 
d="M769 -123q39 69 39 126.5t-87 115.5l-360 240q-108 73 -149 155.5t-41 221.5v400h-201v147h768l-425 411l151 117l521 -528h256v-147h-231v-355q0 -100 -24.5 -172t-83.5 -144l-165 85q36 62 51 121t15 150v315h-425v-416q0 -96 28.5 -146t110.5 -105l362 -243
q141 -95 141 -216q0 -84 -54 -185z" />
    <glyph glyph-name="ocandradeva" unicode="&#x911;" horiz-adv-x="2217" 
d="M1184 0v505q-80 -28 -178 -28q-55 0 -119 8q2 -28 2 -44q0 -141 -98.5 -237.5t-262.5 -96.5q-226 0 -442 158l48 163q184 -146 358 -146q97 0 152.5 52t55.5 133q0 131 -134 208q-107 -36 -246 -39l-15 -1l-35 162h9q185 4 275.5 60.5t90.5 138.5q0 63 -48 101t-135 38
q-132 0 -280 -87l-55 165q163 85 337.5 85t268 -86.5t93.5 -225.5t-107 -229q68 -51 108 -109q60 -10 129 -10q130 0 228 58v440h-205v147h1268v-147h-254v-1136h-206v1136h-396v-1136h-207zM2274 1573q-154 -174 -392.5 -174t-422.5 166l53 152q166 -156 358 -156t342 153z
" />
    <glyph glyph-name="oshortdeva" unicode="&#x912;" horiz-adv-x="2217" 
d="M1184 0v505q-80 -28 -178 -28q-55 0 -119 8q2 -28 2 -44q0 -141 -98.5 -237.5t-262.5 -96.5q-226 0 -442 158l48 163q184 -146 358 -146q97 0 152.5 52t55.5 133q0 131 -134 208q-107 -36 -246 -39l-15 -1l-35 162h9q185 4 275.5 60.5t90.5 138.5q0 63 -48 101t-135 38
q-132 0 -280 -87l-55 165q163 85 337.5 85t268 -86.5t93.5 -225.5t-107 -229q68 -51 108 -109q60 -10 129 -10q130 0 228 58v440h-205v147h800v80q0 121 -109 121q-31 0 -113.5 -21.5t-159.5 -21.5q-153 0 -281 154l78 127q64 -64 110.5 -88.5t95 -24.5t152 27t173.5 27
q111 0 179.5 -74t68.5 -199v-107h274v-147h-254v-1136h-206v1136h-396v-1136h-207z" />
    <glyph glyph-name="odeva" unicode="&#x913;" horiz-adv-x="2217" 
d="M1184 0v505q-80 -28 -178 -28q-55 0 -119 8q2 -28 2 -44q0 -141 -98.5 -237.5t-262.5 -96.5q-226 0 -442 158l48 163q184 -146 358 -146q97 0 152.5 52t55.5 133q0 131 -134 208q-107 -36 -246 -39l-15 -1l-35 162h9q185 4 275.5 60.5t90.5 138.5q0 63 -48 101t-135 38
q-132 0 -280 -87l-55 165q163 85 337.5 85t268 -86.5t93.5 -225.5t-107 -229q68 -51 108 -109q60 -10 129 -10q130 0 228 58v440h-205v147h735l-425 411l151 117l521 -528h286v-147h-254v-1136h-206v1136h-396v-1136h-207z" />
    <glyph glyph-name="audeva" unicode="&#x914;" horiz-adv-x="2217" 
d="M1184 0v505q-80 -28 -178 -28q-55 0 -119 8q2 -28 2 -44q0 -141 -98.5 -237.5t-262.5 -96.5q-226 0 -442 158l48 163q184 -146 358 -146q97 0 152.5 52t55.5 133q0 131 -134 208q-107 -36 -246 -39l-15 -1l-35 162h9q185 4 275.5 60.5t90.5 138.5q0 63 -48 101t-135 38
q-132 0 -280 -87l-55 165q163 85 337.5 85t268 -86.5t93.5 -225.5t-107 -229q68 -51 108 -109q60 -10 129 -10q130 0 228 58v440h-205v147h490l-443 322l137 134l588 -456h24l-218 516l186 57l228 -573h276v-147h-254v-1136h-206v1136h-396v-1136h-207z" />
    <glyph glyph-name="kadeva" unicode="&#x915;" horiz-adv-x="1631" 
d="M925 0h-206v307q-107 -74 -245 -74q-166 0 -274.5 109.5t-108.5 264.5q0 134 88.5 220.5t249 87t290.5 -58.5v280h-749v147h1691v-147h-736v-337q97 43 204 43q165 0 271 -95.5t106 -243.5q0 -187 -131 -352l-175 64q119 157 119 294q0 72 -45 115.5t-125 43.5
q-122 0 -224 -100v-568zM454 396q152 0 265 132v169q-118 56 -231 56t-165.5 -48t-52.5 -126.5t51 -130.5t133 -52z" />
    <glyph glyph-name="khadeva" unicode="&#x916;" horiz-adv-x="1802" 
d="M1142 522q132 0 227 86v163q-103 46 -216 46q-86 0 -132 -41.5t-46 -105t47 -106t120 -42.5zM1369 0v66q-148 -41 -339 -41t-380.5 71t-318.5 200q-72 73 -139 168q-137 196 -137 273q0 38 24.5 64t61 26t63.5 -18t58 -62l32 -51q86 41 120 105.5t34 169.5v165h-478v147
h1862v-147h-256v-1136h-207zM721 242.5q150 -58.5 324 -58.5t324 58v175q-89 -48 -212 -48q-146 0 -247.5 94.5t-101.5 234.5q0 119 82 193t225.5 74t253.5 -44v215h-714v-180q0 -74 -11.5 -133t-40.5 -119q-59 -120 -225 -198q37 -49 91 -103q102 -102 252 -160.5z" />
    <glyph glyph-name="gadeva" unicode="&#x917;" horiz-adv-x="1337" 
d="M906 0v1136h-401v-685q0 -95 -83 -95q-59 0 -132.5 48.5t-123.5 112.5t-50 108q0 71 84 71h98v440h-328v147h1397v-147h-255v-1136h-206z" />
    <glyph glyph-name="ghadeva" unicode="&#x918;" horiz-adv-x="1408" 
d="M533.5 397q51.5 -44 137 -44t165.5 35.5t141 101.5v646h-650q-20 -43 -20 -105t53 -116t159 -77q81 27 181 27h38l31 -166h-17q-136 0 -203 -55t-67 -129t51.5 -118zM977 0v255q-118 -81 -292 -81t-284 103.5t-110 252.5q0 112 65 196q-126 47 -190.5 133t-64.5 193
q0 45 10 84h-141v147h1468v-147h-254v-1136h-207z" />
    <glyph glyph-name="ngadeva" unicode="&#x919;" horiz-adv-x="1353" 
d="M640 14q-259 0 -525 136l46 162q235 -136 453 -136q124 0 189 45.5t65 117.5q0 57 -47.5 91.5t-132.5 34.5q-135 0 -254 -72h-15q-271 127 -271 328q0 97 74.5 163t218.5 66h299v186h-770v147h1413v-147h-436v-335h-472q-67 0 -101.5 -30.5t-34.5 -78.5q0 -73 79 -119
q123 55 270 55q175 0 273.5 -82t98.5 -217t-105 -225t-315 -90zM1069 695q0 51 30 84.5t92 33.5t92 -33t30 -84.5t-31 -84.5t-92 -33t-91 33t-30 84z" />
    <glyph glyph-name="cadeva" unicode="&#x91a;" horiz-adv-x="1420" 
d="M988 0v255q-112 -72 -270 -72q-184 0 -299 101.5t-115 253.5q0 107 59 189h-291v169h718v-169h-90q-101 -10 -153.5 -66t-52.5 -133t57 -125.5t144 -48.5t163 34.5t130 95.5v652h-1018v147h1480v-147h-255v-1136h-207z" />
    <glyph glyph-name="chadeva" unicode="&#x91b;" horiz-adv-x="1569" 
d="M1069 780.5q-33 -41.5 -33 -108t42 -127.5t138 -122q73 107 73 205.5t-35 146t-93.5 47.5t-91.5 -41.5zM736 177q211 0 373 130q-257 174 -257 405q0 112 78.5 194.5t206.5 83.5v146h-704q-126 -64 -126 -189.5t175 -190.5q82 29 184 30h10l52 -168h-10
q-147 -3 -216.5 -64t-69.5 -154.5t82 -158t222 -64.5zM1046 60.5q-137 -55.5 -280.5 -55.5t-246 35t-165.5 94q-128 121 -128 290q0 136 97 234q-111 55 -164 136t-53 174t62 168h-198v147h1629v-147h-255v-213q123 -99 123 -296q0 -112 -51.5 -222.5t-142 -199.5
t-227.5 -144.5z" />
    <glyph glyph-name="jadeva" unicode="&#x91c;" horiz-adv-x="1639" 
d="M1206 0v723h-390q138 -124 138 -303q0 -135 -92.5 -227t-249.5 -92q-320 0 -563 409l105 141q224 -365 435 -365q83 0 130 43t47 119q0 94 -80.5 178t-215.5 119v151h736v240h-1236v147h1699v-147h-256v-1136h-207z" />
    <glyph glyph-name="jhadeva" unicode="&#x91d;" horiz-adv-x="1660" 
d="M120 184q0 49 37.5 85t94.5 36q102 0 216 -114q141 8 216 57.5t75 112.5q0 50 -39.5 79t-114.5 29q-103 0 -232 -73h-12q-268 125 -268 322q0 101 75.5 166.5t229.5 65.5h245v186h-673v147h1720v-147h-256v-1136h-207v363q-76 -17 -146 -17t-134 8q-2 -112 -93.5 -198
t-253.5 -113l188 -202l-132 -91l-255 279q-144 5 -212.5 50t-68.5 105zM1027 511q109 0 200 38v587h-377v-335h-430q-68 0 -104 -31t-36 -79q0 -70 78 -117q129 55 261 55q182 0 270 -106q69 -12 138 -12z" />
    <glyph glyph-name="nyadeva" unicode="&#x91e;" horiz-adv-x="1716" 
d="M1285 0v491q-84 -21 -170 -21t-166 13q-17 -146 -115.5 -231t-244 -85t-276.5 64t-274 207l76 154q129 -133 229.5 -187.5t201.5 -54.5t162 57.5t60.5 148t-64 148.5t-157.5 58q-118 0 -223 -85l-85 155q60 46 140 76t161 30q143 0 251 -76.5t145 -204.5q60 -10 127 -10
q112 0 222 40v449h-1315v147h1776v-147h-255v-1136h-206z" />
    <glyph glyph-name="ttadeva" unicode="&#x91f;" horiz-adv-x="1162" 
d="M849.5 71q-81.5 -15 -195.5 -15t-218.5 36t-173.5 97.5t-107 144.5t-38 177q0 175 117 280t335 105h157v240h-756v147h1222v-147h-260v-399h-298q-161 0 -237 -70t-76 -183.5t86 -183t239.5 -69.5t333.5 69l43 -179q-92 -35 -173.5 -50z" />
    <glyph glyph-name="tthadeva" unicode="&#x920;" horiz-adv-x="1280" 
d="M397 293.5q91 -77.5 253 -77.5t253.5 77t91.5 197q0 146 -123 248h-229q-172 0 -254.5 -68.5t-82.5 -183.5t91 -192.5zM668 40q-255 0 -407.5 136.5t-152.5 338.5q0 172 123 276.5t334 104.5h274v240h-869v147h1340v-147h-265v-331q61 -68 98.5 -156t38.5 -178
t-31.5 -166.5t-94.5 -136t-162.5 -94t-225.5 -34.5z" />
    <glyph glyph-name="ddadeva" unicode="&#x921;" horiz-adv-x="1187" 
d="M640 14q-259 0 -525 136l46 162q235 -136 453 -136q124 0 189 45.5t65 117.5q0 57 -47.5 91.5t-132.5 34.5q-135 0 -254 -72h-15q-271 127 -271 328q0 97 74.5 163t218.5 66h299v186h-770v147h1247v-147h-270v-335h-472q-67 0 -101.5 -30.5t-34.5 -78.5q0 -73 79 -119
q123 55 270 55q175 0 273.5 -82t98.5 -217t-105 -225t-315 -90z" />
    <glyph glyph-name="ddhadeva" unicode="&#x922;" horiz-adv-x="1201" 
d="M704 165q128 0 197 41.5t69 101.5q0 46 -35 74t-102.5 28t-111.5 -42t-44 -98.5t23 -104.5h4zM725 27q-134 0 -251 39.5t-197 106t-126 154t-46 176t27.5 157t82 122.5t144.5 84t207 30h184v240h-780v147h1261v-147h-274v-395h-321q-178 0 -259 -73t-81 -193
q0 -86 60 -161t162 -115q-13 43 -13 98q0 107 81.5 180.5t227.5 73.5t234 -73t88 -179q0 -120 -105 -196t-306 -76z" />
    <glyph glyph-name="nnadeva" unicode="&#x923;" horiz-adv-x="1616" 
d="M389 553.5q43 -47.5 123 -47.5t125 55.5t45 160.5v414h-336v-445q0 -90 43 -137.5zM1184 0v1136h-295v-394q0 -184 -91.5 -292.5t-274.5 -108.5t-283 109t-100 289v397h-170v147h1676v-147h-255v-1136h-207z" />
    <glyph glyph-name="tadeva" unicode="&#x924;" horiz-adv-x="1233" 
d="M537 896h265v240h-832v147h1293v-147h-255v-1136h-206v721h-218q-134 0 -201 -63t-67 -169q0 -183 186 -448l-174 -58q-100 141 -155.5 288t-54.5 268q2 160 107 258.5t312 98.5z" />
    <glyph glyph-name="thadeva" unicode="&#x925;" horiz-adv-x="1375" 
d="M241 1060q0 -62 64.5 -107.5t201.5 -60.5q20 43 20 91q0 82 -50 135.5t-121 53.5q-55 0 -85 -31t-30 -81zM944 0v328q-97 -59 -234 -59q-172 0 -329 97.5t-249 268.5l5 20q166 50 260 116q-165 29 -253.5 116.5t-88.5 205.5q0 98 72 167.5t196 69.5q169 0 275 -104.5
t106 -262.5q0 -137 -85.5 -236.5t-229.5 -158.5q113 -121 269 -121q176 0 286 122v567h-101v147h562v-147h-255v-1136h-206z" />
    <glyph glyph-name="dadeva" unicode="&#x926;" horiz-adv-x="1139" 
d="M647 106q-244 0 -394 119.5t-150 312.5q0 151 105 252q53 51 139 80t197 29h160v237h-734v147h1199v-147h-258v-393h-300q-161 0 -237.5 -65.5t-76.5 -170t88 -173.5t221 -69q32 0 47 1q-25 49 -23.5 92t35.5 69.5t100 26.5q104 0 183 -42.5t79 -99.5q0 -39 -31.5 -80.5
t-91.5 -72.5l152 -302l-158 -66l-160 320q-47 -5 -91 -5z" />
    <glyph glyph-name="dhadeva" unicode="&#x927;" horiz-adv-x="1403" 
d="M214.5 1166q-42.5 -45 -42.5 -105t34 -106q108 6 165 50t57 108q0 44 -28.5 71t-85.5 27t-99.5 -45zM972 0v255q-122 -81 -294 -81t-282 103.5t-110 253.5q0 96 53 171q-152 41 -239 128q-103 103 -103 247q0 122 81.5 203t220 81t217 -73.5t78.5 -184.5
q0 -87 -60.5 -155.5t-161.5 -97.5q55 -17 129 -28q84 31 195 31h37l31 -166h-18q-134 0 -201.5 -51t-67.5 -123t52 -116t135 -44q182 0 308 137v646h-143v147h604v-147h-254v-1136h-207z" />
    <glyph glyph-name="nadeva" unicode="&#x928;" horiz-adv-x="1250" 
d="M818 0v635h-427v-206q0 -42 -20.5 -66t-58 -24t-81 43.5t-84 140.5t-40.5 176q0 108 119 108h592v329h-848v147h1310v-147h-255v-1136h-207z" />
    <glyph glyph-name="nnnadeva" unicode="&#x929;" horiz-adv-x="1250" 
d="M154 -22q0 48 30.5 80.5t85.5 32.5t85 -32.5t30 -80.5t-30.5 -81t-84.5 -33t-85 33t-31 81zM818 0v635h-427v-206q0 -42 -20.5 -66t-58 -24t-81 43.5t-84 140.5t-40.5 176q0 108 119 108h592v329h-848v147h1310v-147h-255v-1136h-207z" />
    <glyph glyph-name="padeva" unicode="&#x92a;" horiz-adv-x="1197" 
d="M533 529q130 0 232 79v528h-416v-413q0 -194 184 -194zM765 0v393q-101 -37 -204 -37q-193 0 -306 105.5t-113 302.5v372h-172v147h1257v-147h-255v-1136h-207z" />
    <glyph glyph-name="phadeva" unicode="&#x92b;" horiz-adv-x="1672" 
d="M965 0h-207v418q-96 -31 -190 -31q-197 0 -309 106.5t-112 306.5v336h-177v147h1732v-147h-737v-388q98 49 219 49q169 0 273 -100.5t104 -248.5q0 -91 -32.5 -185.5t-88.5 -170.5l-181 63q112 157 112 300q0 73 -45.5 119.5t-122.5 46.5q-131 0 -238 -113v-508zM538 559
q116 0 220 70v507h-405v-382q0 -97 48 -146t137 -49z" />
    <glyph glyph-name="badeva" unicode="&#x92c;" horiz-adv-x="1212" 
d="M515 385q59 0 111 15l-287 333q-56 -53 -56 -141.5t63 -147.5t169 -59zM529 793q-36 0 -61 -4l283 -324q20 16 29 26v252q-137 50 -251 50zM780 0v280q-101 -60 -240 -60q-196 0 -319 118.5t-123 288.5q0 141 103.5 233t272.5 92t306 -46v230h-810v147h1272v-147h-255
v-1136h-207z" />
    <glyph glyph-name="bhadeva" unicode="&#x92d;" horiz-adv-x="1451" 
d="M1019 0v494h-392v-99q0 -88 -73 -88q-37 0 -86.5 25.5t-94.5 70t-74 96.5t-29 90t21.5 58.5t63.5 20.5h74v108q-219 9 -332 98.5t-113 231.5q0 101 72.5 175t208.5 74q165 0 263.5 -101t98.5 -262v-324h392v468h-142v147h604v-147h-255v-1136h-207zM168 1083
q0 -145 261 -153v87q0 78 -41.5 126.5t-100.5 48.5t-89 -33t-30 -76z" />
    <glyph glyph-name="madeva" unicode="&#x92e;" horiz-adv-x="1293" 
d="M862 0v494h-421v-99q0 -88 -73 -88q-38 0 -87.5 25.5t-94 70t-74 97t-29.5 90t21.5 58t64.5 20.5h65v468h-264v147h1353v-147h-255v-1136h-206zM862 1136h-421v-468h421v468z" />
    <glyph glyph-name="yadeva" unicode="&#x92f;" horiz-adv-x="1308" 
d="M591 450q175 0 285 119v567h-305v-166q0 -146 -61 -244t-189 -154q113 -122 270 -122zM876 0v329q-97 -60 -233 -60q-173 0 -329.5 97.5t-249.5 270.5l5 21q164 55 229.5 131t65.5 196v151h-394v147h1368v-147h-255v-1136h-207z" />
    <glyph glyph-name="radeva" unicode="&#x930;" horiz-adv-x="905" 
d="M95 657q-51 69 -51 109t25 65.5t65 25.5q54 0 94 -55l105 -145q99 36 143.5 104.5t44.5 176.5v198h-551v147h965v-147h-207v-231q0 -143 -68.5 -253t-216.5 -165l305 -415l-148 -100z" />
    <glyph glyph-name="rradeva" unicode="&#x931;" horiz-adv-x="905" 
d="M31 20q0 48 30.5 80.5t85.5 32.5t85 -32.5t30 -80.5t-30.5 -81t-84.5 -33t-85 33t-31 81zM95 657q-51 69 -51 109t25 65.5t65 25.5q54 0 94 -55l105 -145q99 36 143.5 104.5t44.5 176.5v198h-551v147h965v-147h-207v-231q0 -143 -68.5 -253t-216.5 -165l305 -415
l-148 -100z" />
    <glyph glyph-name="ladeva" unicode="&#x932;" horiz-adv-x="1571" 
d="M1140 0v642l-428 -359l-129 128l191 166q-130 138 -281 138q-95 0 -153.5 -60t-58.5 -153t55.5 -185t196.5 -217l-158 -97q-292 256 -292 535q0 155 105 258t272 103q252 0 450 -204l230 199v242h-1181v147h1642v-147h-254v-1136h-207z" />
    <glyph glyph-name="lladeva" unicode="&#x933;" horiz-adv-x="1677" 
d="M343 330.5q53 -56.5 137.5 -56.5t151 66.5t125.5 211.5q21 50 40 88q-134 95 -268 95q-111 0 -175 -68t-64 -174t53 -162.5zM1171 276q109 0 173.5 65.5t64.5 173.5t-51.5 166t-135.5 58t-156.5 -61.5t-119.5 -183.5q-28 -69 -50 -110q136 -108 275 -108zM1197 100
q-106 0 -199 36.5t-189 112.5q-126 -149 -309.5 -149t-291.5 112t-108 292t109 294t288 114q213 0 389 -140q128 145 321 145q26 0 39 -1v220h-1276v147h1737v-147h-255v-297q69 -55 104.5 -142.5t35.5 -196.5q0 -182 -109 -291t-286 -109z" />
    <glyph glyph-name="llladeva" unicode="&#x934;" horiz-adv-x="1677" 
d="M105 -99q0 48 30.5 80.5t85.5 32.5t85 -32.5t30 -80.5t-30.5 -81t-84.5 -33t-85 33t-31 81zM343 330.5q53 -56.5 137.5 -56.5t151 66.5t125.5 211.5q21 50 40 88q-134 95 -268 95q-111 0 -175 -68t-64 -174t53 -162.5zM1171 276q109 0 173.5 65.5t64.5 173.5t-51.5 166
t-135.5 58t-156.5 -61.5t-119.5 -183.5q-28 -69 -50 -110q136 -108 275 -108zM1197 100q-106 0 -199 36.5t-189 112.5q-126 -149 -309.5 -149t-291.5 112t-108 292t109 294t288 114q213 0 389 -140q128 145 321 145q26 0 39 -1v220h-1276v147h1737v-147h-255v-297
q69 -55 104.5 -142.5t35.5 -196.5q0 -182 -109 -291t-286 -109z" />
    <glyph glyph-name="vadeva" unicode="&#x935;" horiz-adv-x="1211" 
d="M514 390q148 0 266 112v236q-134 49 -249.5 49t-178.5 -54.5t-63 -140.5t61.5 -144t163.5 -58zM780 0v283q-99 -61 -240 -61q-196 0 -319 117t-123 289q0 140 104 231t272 91t306 -45v231h-810v147h1271v-147h-255v-1136h-206z" />
    <glyph glyph-name="shadeva" unicode="&#x936;" horiz-adv-x="1561" 
d="M386 326q-70 -18 -138.5 -18t-99 37.5t-30.5 105.5t51 130.5t112 62.5q44 0 80.5 -22.5t86.5 -80.5q149 61 220 188q-250 7 -385 105.5t-135 245.5q0 103 78 178t216 75q188 0 316.5 -123.5t128.5 -318.5q0 -156 -91.5 -287.5t-236.5 -210.5l272 -299l-127 -113zM713 906
q0 110 -76 185t-173 75q-63 0 -97 -32t-32 -79q2 -72 93 -125.5t283 -58.5q2 24 2 35zM1129 0v1136h-179v147h641v-147h-255v-1136h-207z" />
    <glyph glyph-name="ssadeva" unicode="&#x937;" horiz-adv-x="1197" 
d="M393 576.5q51 -48.5 143 -48.5t167 34l-361 440v-279q0 -98 51 -146.5zM766 1136h-356l356 -432v432zM766 0v392q-101 -37 -205 -37q-193 0 -306 106t-113 303v372h-172v147h1257v-147h-254v-1136h-207z" />
    <glyph glyph-name="sadeva" unicode="&#x938;" horiz-adv-x="1503" 
d="M93 657q-49 66 -49 108t25 67t65 25q54 0 94 -55l92 -126q78 37 114.5 102t36.5 164v194h-501v147h1563v-147h-255v-1136h-207v508q-92 -23 -203 -23q-178 0 -358 73q-39 -29 -83 -49l321 -437l-149 -100zM630 699q108 -33 220.5 -33t220.5 34v436h-394v-227
q0 -119 -47 -210z" />
    <glyph glyph-name="hadeva" unicode="&#x939;" horiz-adv-x="1198" 
d="M203 223q0 120 70 211q-184 111 -184 272q0 97 75 163.5t219 66.5h385v200h-798v147h1258v-147h-254v-351h-533q-77 0 -113.5 -31t-36.5 -81q0 -81 113 -131q102 52 238 52q191 0 305.5 -91.5t114.5 -223.5q0 -113 -54 -199l-174 39q41 68 41 150q0 66 -56 112t-164.5 46
t-178.5 -68.5t-70 -155.5q0 -63 27.5 -113.5t90.5 -93.5q130 -89 446 -125l-54 -153q-357 35 -535 167.5t-178 337.5z" />
    <glyph glyph-name="oevowelsigndevaKSH" unicode="&#x93a;" 
d="M-434 1496h206v-320h-206v320z" />
    <glyph glyph-name="ooevowelsigndevaKSH" unicode="&#x93b;" horiz-adv-x="618" 
d="M186 0v1136h-216v147h217v211h206v-211h255v-147h-255v-1136h-207z" />
    <glyph glyph-name="nuktadeva" unicode="&#x93c;" 
d="M-955 -295q0 48 30.5 80.5t85.5 32.5t85 -32.5t30 -80.5t-30.5 -81t-84.5 -33t-85 33t-31 81z" />
    <glyph glyph-name="avagrahadeva" unicode="&#x93d;" horiz-adv-x="1115" 
d="M968 394q0 -152 -106 -239.5t-267 -87.5q-255 0 -492 159l49 166q220 -156 394 -156q106 0 168.5 46.5t62.5 121.5t-60.5 135t-209.5 150.5t-211.5 172.5t-62.5 182.5t80 169.5t241 69h382v-147h-327q-173 0 -175 -121q0 -52 48.5 -101.5t183.5 -129.5
q161 -98 231.5 -186t70.5 -204z" />
    <glyph glyph-name="aavowelsigndeva" unicode="&#x93e;" horiz-adv-x="618" 
d="M186 0v1136h-216v147h678v-147h-255v-1136h-207z" />
    <glyph glyph-name="ivowelsigndeva" unicode="&#x93f;" horiz-adv-x="618" 
d="M186 0v1136h-216v147h216v73q0 144 82 248q44 56 111 97t170.5 66t233.5 25q380 0 741 -154l-41 -162q-338 135 -672 135q-212 0 -315 -75.5t-103 -194.5v-58h255v-147h-255v-1136h-207z" />
    <glyph glyph-name="iivowelsigndeva" unicode="&#x940;" horiz-adv-x="618" 
d="M186 0v1136h-216v147h194q-70 156 -161 236.5t-192 80.5q-66 0 -101.5 -37.5t-35.5 -98.5q0 -98 89 -208h-212q-72 126 -72 246t79 200t222 80q192 0 348 -129.5t252 -369.5h268v-147h-255v-1136h-207z" />
    <glyph glyph-name="uvowelsigndeva" unicode="&#x941;" 
d="M-337 29q149 0 242.5 -88t93.5 -224.5t-97 -219t-250.5 -82.5t-310.5 61.5t-300 173.5l67 150q139 -110 266.5 -165t229.5 -55t157 42t55 105t-42 100.5t-113 37.5q-107 0 -224 -96l-84 145q131 115 310 115z" />
    <glyph glyph-name="uuvowelsigndeva" unicode="&#x942;" 
d="M-333 -571q-151 0 -254 84t-103 211.5t89 213t245 85.5q330 0 643 -401l-104 -119q-279 348 -518 348q-82 0 -127.5 -41.5t-45.5 -100t43.5 -93t124.5 -34.5t180 47l52 -148q-97 -52 -225 -52z" />
    <glyph glyph-name="rvocalicvowelsigndeva" unicode="&#x943;" 
d="M-119 -468q-106 -43 -245 -43t-234.5 75.5t-95.5 203.5q0 112 88.5 186t246.5 74q77 0 134 -5v-130h-101q-97 0 -146.5 -40.5t-49.5 -99.5t43.5 -92t128.5 -33t203 50z" />
    <glyph glyph-name="rrvocalicvowelsigndeva" unicode="&#x944;" 
d="M-75 -680q-96 -41 -215.5 -41t-190 61t-70.5 145q0 66 37 114q-72 30 -112 86t-40 123q0 96 81.5 158.5t234.5 62.5q69 0 125 -8v-121h-99q-83 0 -123.5 -29.5t-40.5 -73t35 -69.5t107 -26t170 30l27 -130q-92 -29 -187 -32q-56 -30 -56 -81q0 -39 32 -63t97.5 -24
t162.5 41z" />
    <glyph glyph-name="ecandravowelsigndeva" unicode="&#x945;" 
d="M73 1572q-154 -174 -392.5 -174t-422.5 166l53 152q166 -156 358 -156t342 153z" />
    <glyph glyph-name="eshortvowelsigndeva" unicode="&#x946;" 
d="M-240 1244h-194v119q0 121 -109 121q-31 0 -113.5 -21.5t-159.5 -21.5q-153 0 -281 154l78 127q64 -64 110.5 -88.5t95 -24.5t152 27t173.5 27q111 0 179.5 -74t68.5 -199v-146z" />
    <glyph glyph-name="evowelsigndeva" unicode="&#x947;" 
d="M-214 1244h-246l-465 450l151 117z" />
    <glyph glyph-name="aivowelsigndeva" unicode="&#x948;" 
d="M-687 1244l-497 361l137 134l623 -483l-229 543l186 57l243 -612h-463z" />
    <glyph glyph-name="ocandravowelsigndeva" unicode="&#x949;" horiz-adv-x="618" 
d="M186 0v1136h-216v147h678v-147h-255v-1136h-207zM699 1573q-154 -174 -392.5 -174t-422.5 166l53 152q166 -156 358 -156t342 153z" />
    <glyph glyph-name="oshortvowelsigndeva" unicode="&#x94a;" horiz-adv-x="618" 
d="M186 0v1136h-216v147h217v80q0 121 -109 121q-31 0 -113.5 -21.5t-159.5 -21.5q-153 0 -281 154l78 127q64 -64 110.5 -88.5t95 -24.5t152 27t173.5 27q111 0 179.5 -74t68.5 -199v-107h267v-147h-255v-1136h-207z" />
    <glyph glyph-name="ovowelsigndeva" unicode="&#x94b;" horiz-adv-x="618" 
d="M186 0v1136h-216v147h148l-425 411l151 117l521 -528h283v-147h-255v-1136h-207z" />
    <glyph glyph-name="auvowelsigndeva" unicode="&#x94c;" horiz-adv-x="618" 
d="M186 0v1136h-216v108h-43l-497 361l137 134l588 -456h24l-218 516l186 57l228 -573h273v-147h-255v-1136h-207z" />
    <glyph glyph-name="viramadeva" unicode="&#x94d;" 
d="M-489 -225l72 152l531 -252l-71 -152z" />
    <glyph glyph-name="prishthaevowelsign" unicode="&#x94e;" horiz-adv-x="618" 
d="M186 0v1283h462v-147h-251v-1136h-211z" />
    <glyph glyph-name="awvowelsigndevaKSH" unicode="&#x94f;" horiz-adv-x="618" 
d="M186 0v1136h-216v147h121l-11 19q-30 52 -65 76t-78.5 24t-125 -17t-138.5 -17q-167 0 -297 141l71 105q111 -104 220 -104q48 0 139.5 22t141.5 22q105 0 166 -42.5t116 -151.5v152q0 104 -106 104q-27 0 -94 -17.5t-123 -17.5q-148 0 -263 132l68 109q102 -97 189 -97
q38 0 124 21t147 21q102 0 161.5 -61.5t59.5 -170.5v-252h255v-147h-255v-1136h-207z" />
    <glyph glyph-name="omdeva" unicode="&#x950;" horiz-adv-x="1990" 
d="M573 107q-226 0 -442 158l49 163q183 -146 358 -146q96 0 151.5 52t55.5 133q0 130 -133 208q-108 -36 -247 -39l-14 -1l-36 162h9q186 4 276 60.5t90 138.5q0 63 -47.5 101t-134.5 38q-133 0 -281 -87l-54 165q161 85 336 85t268.5 -86.5t93.5 -225.5t-107 -229
q119 -87 155 -208q12 -2 33 -2q56 2 104.5 55.5t107.5 182.5q37 80 73.5 138t84.5 108q98 101 254 101t256.5 -113.5t100.5 -282t-104 -276t-260 -107.5q-182 0 -358 131q-88 -100 -207 -100q-43 0 -74 4q-19 -123 -114 -202t-243 -79zM1297 614q129 -95 230 -95t163.5 65.5
t62.5 163t-47.5 152.5t-121.5 55q-128 0 -232 -228q-28 -63 -55 -113zM1552 1427q-154 -174 -392.5 -174t-422.5 166l53 152q166 -156 358 -156t342 153zM1046 1630q0 43 25.5 71t74 28t74 -27.5t25.5 -71t-25.5 -71.5t-74 -28t-74 28t-25.5 71z" />
    <glyph glyph-name="udattadeva" unicode="&#x951;" 
d="M-434 1745h206v-320h-206v320z" />
    <glyph glyph-name="anudattadeva" unicode="&#x952;" 
d="M-211 -245h-789v137h789v-137z" />
    <glyph glyph-name="uni0953" unicode="&#x953;" 
d="M-364 1808l145 -379h-180l-231 379h266z" />
    <glyph glyph-name="uni0954" unicode="&#x954;" 
d="M-409 1429l146 379h264l-231 -379h-179z" />
    <glyph glyph-name="candralongevowelsigndeva" unicode="&#x955;" 
d="M-231 1417h-789v137h789v-137zM-216 1753q-155 -155 -393.5 -155t-421.5 148l53 134q166 -138 358 -138t342 136z" />
    <glyph glyph-name="uevowelsigndevaKSH" unicode="&#x956;" 
d="M121 -225q-173 -173 -430.5 -173t-463.5 167l49 140q180 -148 403 -148t385 150z" />
    <glyph glyph-name="uuevowelsigndevaKSH" unicode="&#x957;" 
d="M148 -490q-182 -153 -453 -153t-488 148l52 123q190 -131 424.5 -131t404.5 133zM121 -212q-173 -158 -431 -158t-463 153l49 127q180 -135 402.5 -135t385.5 137z" />
    <glyph glyph-name="qadeva" unicode="&#x958;" horiz-adv-x="1631" 
d="M59 0q0 48 30.5 80.5t85.5 32.5t85 -32.5t30 -80.5t-30.5 -81t-84.5 -33t-85 33t-31 81zM925 0h-206v307q-107 -74 -245 -74q-166 0 -274.5 109.5t-108.5 264.5q0 134 88.5 220.5t249 87t290.5 -58.5v280h-749v147h1691v-147h-736v-337q97 43 204 43q165 0 271 -95.5
t106 -243.5q0 -187 -131 -352l-175 64q119 157 119 294q0 72 -45 115.5t-125 43.5q-122 0 -224 -100v-568zM454 396q152 0 265 132v169q-118 56 -231 56t-165.5 -48t-52.5 -126.5t51 -130.5t133 -52z" />
    <glyph glyph-name="khhadeva" unicode="&#x959;" horiz-adv-x="1802" 
d="M70 0q0 48 30.5 80.5t85.5 32.5t85 -32.5t30 -80.5t-30.5 -81t-84.5 -33t-85 33t-31 81zM1142 522q132 0 227 86v163q-103 46 -216 46q-86 0 -132 -41.5t-46 -105t47 -106t120 -42.5zM1369 0v66q-148 -41 -339 -41t-380.5 71t-318.5 200q-72 73 -139 168
q-137 196 -137 273q0 38 24.5 64t61 26t63.5 -18t58 -62l32 -51q86 41 120 105.5t34 169.5v165h-478v147h1862v-147h-256v-1136h-207zM721 242.5q150 -58.5 324 -58.5t324 58v175q-89 -48 -212 -48q-146 0 -247.5 94.5t-101.5 234.5q0 119 82 193t225.5 74t253.5 -44v215
h-714v-180q0 -74 -11.5 -133t-40.5 -119q-59 -120 -225 -198q37 -49 91 -103q102 -102 252 -160.5z" />
    <glyph glyph-name="ghhadeva" unicode="&#x95a;" horiz-adv-x="1337" 
d="M241 0q0 48 30.5 80.5t85.5 32.5t85 -32.5t30 -80.5t-30.5 -81t-84.5 -33t-85 33t-31 81zM906 0v1136h-401v-685q0 -95 -83 -95q-59 0 -132.5 48.5t-123.5 112.5t-50 108q0 71 84 71h98v440h-328v147h1397v-147h-255v-1136h-206z" />
    <glyph glyph-name="zadeva" unicode="&#x95b;" horiz-adv-x="1639" 
d="M26 5q0 48 30.5 80.5t85.5 32.5t85 -32.5t30 -80.5t-30.5 -81t-84.5 -33t-85 33t-31 81zM1206 0v723h-390q138 -124 138 -303q0 -135 -92.5 -227t-249.5 -92q-320 0 -563 409l105 141q224 -365 435 -365q83 0 130 43t47 119q0 94 -80.5 178t-215.5 119v151h736v240h-1236
v147h1699v-147h-256v-1136h-207z" />
    <glyph glyph-name="dddhadeva" unicode="&#x95c;" horiz-adv-x="1187" 
d="M483 -215q0 48 30.5 80.5t85.5 32.5t85 -32.5t30 -80.5t-30.5 -81t-84.5 -33t-85 33t-31 81zM640 14q-259 0 -525 136l46 162q235 -136 453 -136q124 0 189 45.5t65 117.5q0 57 -47.5 91.5t-132.5 34.5q-135 0 -254 -72h-15q-271 127 -271 328q0 97 74.5 163t218.5 66
h299v186h-770v147h1247v-147h-270v-335h-472q-67 0 -101.5 -30.5t-34.5 -78.5q0 -73 79 -119q123 55 270 55q175 0 273.5 -82t98.5 -217t-105 -225t-315 -90z" />
    <glyph glyph-name="rhadeva" unicode="&#x95d;" horiz-adv-x="1201" 
d="M545 -195q0 48 30.5 80.5t85.5 32.5t85 -32.5t30 -80.5t-30.5 -81t-84.5 -33t-85 33t-31 81zM704 165q128 0 197 41.5t69 101.5q0 46 -35 74t-102.5 28t-111.5 -42t-44 -98.5t23 -104.5h4zM725 27q-134 0 -251 39.5t-197 106t-126 154t-46 176t27.5 157t82 122.5
t144.5 84t207 30h184v240h-780v147h1261v-147h-274v-395h-321q-178 0 -259 -73t-81 -193q0 -86 60 -161t162 -115q-13 43 -13 98q0 107 81.5 180.5t227.5 73.5t234 -73t88 -179q0 -120 -105 -196t-306 -76z" />
    <glyph glyph-name="fadeva" unicode="&#x95e;" horiz-adv-x="1672" 
d="M152 77q0 48 30.5 80.5t85.5 32.5t85 -32.5t30 -80.5t-30.5 -81t-84.5 -33t-85 33t-31 81zM965 0h-207v418q-96 -31 -190 -31q-197 0 -309 106.5t-112 306.5v336h-177v147h1732v-147h-737v-388q98 49 219 49q169 0 273 -100.5t104 -248.5q0 -91 -32.5 -185.5
t-88.5 -170.5l-181 63q112 157 112 300q0 73 -45.5 119.5t-122.5 46.5q-131 0 -238 -113v-508zM538 559q116 0 220 70v507h-405v-382q0 -97 48 -146t137 -49z" />
    <glyph glyph-name="yyadeva" unicode="&#x95f;" horiz-adv-x="1308" 
d="M117 75q0 48 30.5 80.5t85.5 32.5t85 -32.5t30 -80.5t-30.5 -81t-84.5 -33t-85 33t-31 81zM591 450q175 0 285 119v567h-305v-166q0 -146 -61 -244t-189 -154q113 -122 270 -122zM876 0v329q-97 -60 -233 -60q-173 0 -329.5 97.5t-249.5 270.5l5 21q164 55 229.5 131
t65.5 196v151h-394v147h1368v-147h-255v-1136h-207z" />
    <glyph glyph-name="rrvocalicdeva" unicode="&#x960;" horiz-adv-x="1706" 
d="M1494 -58q-133 0 -222.5 72t-89.5 175q0 156 175 243l-68 107q-118 -50 -248 -50q-49 0 -103 8v-497h-211v374l-468 -238l-93 164l532 264l-82 55q-166 112 -296 112q-84 0 -204 -59l-54 182q125 59 236 59q169 0 354 -122l75 -50v395h-757v147h1766v-147h-798v-465
q45 -9 95 -9q83 0 155 31q-30 49 -30 89t31 64t92 23q92 0 153 -32t61 -88t-64 -117l143 -220l-17 -68q-180 -45 -180 -164q0 -91 124 -91q64 0 157 40l28 -148q-104 -39 -192 -39z" />
    <glyph glyph-name="llvocalicdeva" unicode="&#x961;" horiz-adv-x="1571" 
d="M1544 -346q-100 -43 -217.5 -43t-188.5 59.5t-71 141.5q0 67 42 115q-74 28 -115.5 81.5t-41.5 120.5q0 89 73 149.5t193 64.5q61 104 61 187.5t-42.5 130.5t-118.5 47q-100 0 -179 -100t-114 -293l-186 60q26 149 84 260q-103 84 -218 84q-94 0 -153 -61.5t-59 -154.5
t56 -185.5t193 -218.5l-149 -90q-148 137 -222 269t-74 277t99 245t263 100q197 0 361 -128q101 103 241 116v248h-1091v147h1631v-147h-330v-282q96 -44 147.5 -131.5t51.5 -200.5q0 -149 -109 -302h-66q-83 0 -124.5 -30.5t-41.5 -72.5t33.5 -67t104 -25t175.5 34l26 -125
q-110 -29 -185 -33q-52 -31 -52 -86q0 -37 31 -60.5t98.5 -23.5t158.5 39z" />
    <glyph glyph-name="lvocalicvowelsigndeva" unicode="&#x962;" 
d="M62 -502q-63 -27 -139 -27t-127 42.5t-51 102t37.5 98.5t112.5 49q31 47 31 91t-23 68t-63 24q-55 0 -97.5 -55t-65.5 -146l-124 41q14 67 40 119q-54 54 -119 54q-45 0 -72.5 -28t-27.5 -72t29 -89t107 -106l-101 -69q-174 136 -174 290q0 86 59.5 144.5t159.5 58.5
q117 0 209 -84q72 70 171.5 70t159 -59.5t59.5 -146.5q0 -106 -60 -192h-35q-46 0 -71 -18.5t-25 -42.5t20 -38.5t62.5 -15t104.5 25.5z" />
    <glyph glyph-name="llvocalicvowelsigndeva" unicode="&#x963;" 
d="M105 -665q-54 -26 -126 -26t-114.5 37.5t-42.5 92.5q0 33 17 61q-43 19 -66.5 53t-23.5 80t36.5 82.5t109.5 46.5q31 49 31 92.5t-23 67.5t-63 24q-55 0 -97.5 -55t-65.5 -146l-124 41q14 67 40 119q-54 54 -119 54q-45 0 -72.5 -28t-27.5 -72t29 -89t107 -106l-101 -69
q-174 136 -174 290q0 86 59.5 144.5t159.5 58.5q117 0 209 -84q72 70 171 70t159 -59t60 -148q0 -49 -16 -101t-43 -90h-27q-49 0 -73.5 -16t-24.5 -39.5t20 -37t59.5 -13.5t99.5 19l15 -88q-54 -19 -111 -21q-20 -15 -20 -39q0 -48 63 -48q43 0 97 22z" />
    <glyph glyph-name="dandadeva" unicode="&#x964;" horiz-adv-x="664" 
d="M539 -140h-199v1523h199v-1523z" />
    <glyph glyph-name="dbldandadeva" unicode="&#x965;" horiz-adv-x="1153" 
d="M1028 -140h-199v1523h199v-1523zM539 -140h-199v1523h199v-1523z" />
    <glyph glyph-name="zerodeva" unicode="&#x966;" horiz-adv-x="1154" 
d="M384.5 857q-76.5 -83 -76.5 -202.5t77 -195.5t195 -76t196 79.5t78 199.5t-75 199t-196.5 79t-198 -83zM106 680q0 85 32.5 163t91 139t148 97.5t196.5 36.5t197.5 -37t151 -101t94 -149.5t33.5 -194t-53.5 -208t-160.5 -161.5t-249 -62q-212 0 -346.5 136t-134.5 341z
" />
    <glyph glyph-name="onedeva" unicode="&#x967;" horiz-adv-x="917" 
d="M336 1078q-46 -46 -46 -117t67 -126t193 -74q88 99 88 193q0 71 -50.5 120.5t-128 49.5t-123.5 -46zM546 -85q41 55 41 106t-70 105l-339 260v22l236 221q-161 43 -240 138t-79 220t95.5 217.5t262.5 92.5q113 0 200 -49t131 -126t44 -167.5t-39 -167.5t-120 -157
l-228 -227l239 -191q108 -88 110 -188q0 -80 -60 -162z" />
    <glyph glyph-name="twodeva" unicode="&#x968;" horiz-adv-x="989" 
d="M296 390q-82 0 -117.5 27t-35.5 79q0 68 61.5 142t128.5 74q40 0 69 -23.5t62 -81.5q110 45 172.5 121t62.5 168.5t-69.5 154.5t-181.5 62q-153 0 -297 -76l-60 174q170 74 369.5 74t319 -110t119.5 -285q0 -149 -97 -267t-248 -181l297 -485l-167 -83l-313 521
q-42 -5 -75 -5z" />
    <glyph glyph-name="threedeva" unicode="&#x969;" horiz-adv-x="957" 
d="M130 200q0 62 63 119t132 57q83 0 131 -117q101 12 159 65t58 130.5t-54.5 131t-161 53.5t-216.5 -41l-46 171q138 45 270 45q36 0 76 -5q64 68 64 160q0 61 -48 105.5t-132 44.5q-135 0 -277 -84l-67 166q167 85 346.5 85t272.5 -90.5t93 -219.5t-83 -232
q73 -51 112 -130.5t39 -171.5q0 -132 -89 -225t-249 -120l98 -195l-161 -64l-122 251q-208 11 -208 111z" />
    <glyph glyph-name="fourdeva" unicode="&#x96a;" horiz-adv-x="1105" 
d="M457.5 262.5q42.5 -38.5 114 -38.5t116 41.5t44.5 110.5q0 50 -34.5 108.5t-122.5 148.5q-96 -98 -128 -156t-32 -117t42.5 -97.5zM832.5 151.5q-93.5 -87.5 -251 -87.5t-258.5 92t-101 222q0 87 44.5 175t169.5 215l-416 400l135 129l409 -401l403 404l145 -128
l-410 -411q125 -126 174.5 -220t49.5 -184q0 -118 -93.5 -205.5z" />
    <glyph glyph-name="fivedeva" unicode="&#x96b;" horiz-adv-x="1148" 
d="M560 255q-190 0 -313.5 118t-123.5 301q0 163 88.5 318t262.5 293l182 -105q-334 -254 -334 -516q0 -111 64 -174t158 -63t172 46q-48 83 -48 131.5t35 77.5t108 29q107 0 170.5 -38t63.5 -94q0 -74 -85 -161l236 -482l-171 -72l-218 446q-118 -55 -247 -55z" />
    <glyph glyph-name="sixdeva" unicode="&#x96c;" horiz-adv-x="1021" 
d="M652 86q-205 0 -327 106t-122 269q0 106 67 192q-171 121 -171 305q0 133 119 226q61 47 169 74.5t252 27.5l46 -171q-208 0 -297 -55t-89 -144.5t101 -153.5q137 73 341 79l59 -173q-107 0 -187.5 -20.5t-125.5 -55.5q-89 -71 -89 -169q0 -72 62.5 -122.5t162.5 -50.5
q40 0 75 7q-19 47 -19 83.5t30.5 59.5t94.5 23q96 0 162.5 -37t66.5 -91q0 -33 -24.5 -69.5t-69.5 -66.5l114 -244l-160 -64l-113 247q-57 -12 -128 -12z" />
    <glyph glyph-name="sevendeva" unicode="&#x96d;" horiz-adv-x="1230" 
d="M653 732q0 -169 284 -241q20 62 20 128q0 102 -53 174t-125 72q-60 0 -93 -36t-33 -97zM915 158.5q-110 -66.5 -238.5 -66.5t-227.5 43.5t-171.5 125t-113.5 207t-41 268.5t26 284t67 251l188 -57q-96 -260 -96 -526q0 -202 95.5 -313.5t232 -111.5t223.5 92
q-201 60 -297.5 165t-96.5 234t76 207t210 78q165 0 278.5 -125.5t113.5 -328.5q0 -136 -59 -248t-169 -178.5z" />
    <glyph glyph-name="eightdeva" unicode="&#x96e;" horiz-adv-x="1043" 
d="M337 570.5q-25 -56.5 -25 -126t61.5 -123t154 -52.5t187 42t215.5 139l107 -179q-124 -98 -240.5 -141t-245.5 -43q-201 0 -325 111t-124 279q0 93 36 177.5t122 178.5l406 448l165 -133l-401 -446q-68 -75 -93 -131.5z" />
    <glyph glyph-name="ninedeva" unicode="&#x96f;" horiz-adv-x="978" 
d="M330.5 1066q-50.5 -54 -50.5 -122.5t27 -123t87 -118.5q127 28 193 86.5t66 141t-53 136.5t-136 54t-133.5 -54zM696 64q0 58 -74 137l-336 352q-108 112 -156.5 203.5t-48.5 204.5q0 134 100 234.5t274 100.5t281 -107.5t107 -261.5q0 -133 -85.5 -230.5t-231.5 -130.5
l267 -277q115 -121 115 -216t-64 -183l-199 51q51 65 51 123z" />
    <glyph glyph-name="abbreviationsigndeva" unicode="&#x970;" horiz-adv-x="846" 
d="M542 577q50 46 50 121.5t-51 123t-122 47.5t-121 -46.5t-50 -123t50 -122.5t122 -46t122 46zM754 698q0 -133 -93 -221.5t-237 -88.5t-240.5 92t-96.5 224t93 220t238.5 88t240.5 -90.5t95 -223.5z" />
    <glyph glyph-name="uni0971" unicode="&#x971;" horiz-adv-x="756" 
d="M264 1206q0 48 30.5 80.5t85.5 32.5t85 -32.5t30 -80.5t-30.5 -81t-84.5 -33t-85 33t-31 81z" />
    <glyph glyph-name="acandradeva" unicode="&#x972;" horiz-adv-x="1616" 
d="M1184 0v505q-80 -28 -178 -28q-55 0 -119 8q2 -28 2 -44q0 -141 -98.5 -237.5t-262.5 -96.5q-226 0 -442 158l48 163q184 -146 358 -146q97 0 152.5 52t55.5 133q0 131 -134 208q-107 -36 -246 -39l-15 -1l-35 162h9q185 4 275.5 60.5t90.5 138.5q0 63 -48 101t-135 38
q-132 0 -280 -87l-55 165q163 85 337.5 85t268 -86.5t93.5 -225.5t-107 -229q68 -51 108 -109q60 -10 129 -10q130 0 228 58v440h-205v147h667v-147h-255v-1136h-207zM1687 1572q-154 -174 -392.5 -174t-422.5 166l53 152q166 -156 358 -156t342 153z" />
    <glyph glyph-name="oedevaKSH" unicode="&#x973;" horiz-adv-x="1616" 
d="M1184 0v505q-80 -28 -178 -28q-55 0 -119 8q2 -28 2 -44q0 -141 -98.5 -237.5t-262.5 -96.5q-226 0 -442 158l48 163q184 -146 358 -146q97 0 152.5 52t55.5 133q0 131 -134 208q-107 -36 -246 -39l-15 -1l-35 162h9q185 4 275.5 60.5t90.5 138.5q0 63 -48 101t-135 38
q-132 0 -280 -87l-55 165q163 85 337.5 85t268 -86.5t93.5 -225.5t-107 -229q68 -51 108 -109q60 -10 129 -10q130 0 228 58v440h-205v147h198v211h206v-211h263v-147h-255v-1136h-207z" />
    <glyph glyph-name="ooedevaKSH" unicode="&#x974;" horiz-adv-x="2217" 
d="M1184 0v505q-80 -28 -178 -28q-55 0 -119 8q2 -28 2 -44q0 -141 -98.5 -237.5t-262.5 -96.5q-226 0 -442 158l48 163q184 -146 358 -146q97 0 152.5 52t55.5 133q0 131 -134 208q-107 -36 -246 -39l-15 -1l-35 162h9q185 4 275.5 60.5t90.5 138.5q0 63 -48 101t-135 38
q-132 0 -280 -87l-55 165q163 85 337.5 85t268 -86.5t93.5 -225.5t-107 -229q68 -51 108 -109q60 -10 129 -10q130 0 228 58v440h-205v147h801v211h206v-211h261v-147h-254v-1136h-206v1136h-396v-1136h-207z" />
    <glyph glyph-name="awdevaKSH" unicode="&#x975;" horiz-adv-x="2217" 
d="M1184 0v505q-80 -28 -178 -28q-55 0 -119 8q2 -28 2 -44q0 -141 -98.5 -237.5t-262.5 -96.5q-226 0 -442 158l48 163q184 -146 358 -146q97 0 152.5 52t55.5 133q0 131 -134 208q-107 -36 -246 -39l-15 -1l-35 162h9q185 4 275.5 60.5t90.5 138.5q0 63 -48 101t-135 38
q-132 0 -280 -87l-55 165q163 85 337.5 85t268 -86.5t93.5 -225.5t-107 -229q68 -51 108 -109q60 -10 129 -10q130 0 228 58v440h-205v147h706q-41 70 -76.5 94.5t-79 24.5t-125 -17t-138.5 -17q-167 0 -297 141l71 105q112 -104 220 -104q48 0 139.5 22t141.5 22
q105 0 166 -42.5t116 -151.5v152q0 104 -106 104q-27 0 -94 -17.5t-123 -17.5q-148 0 -263 132l68 109q102 -97 189 -97q38 0 124 21t148 21q101 0 160.5 -61.5t59.5 -170.5v-252h261v-147h-254v-1136h-206v1136h-396v-1136h-207z" />
    <glyph glyph-name="uedevaKSH" unicode="&#x976;" horiz-adv-x="1616" 
d="M1266 -225q-173 -173 -430.5 -173t-463.5 167l49 140q180 -148 403 -148t385 150zM1184 0v505q-80 -28 -178 -28q-55 0 -119 8q2 -28 2 -44q0 -141 -98.5 -237.5t-262.5 -96.5q-226 0 -442 158l48 163q184 -146 358 -146q97 0 152.5 52t55.5 133q0 131 -134 208
q-107 -36 -246 -39l-15 -1l-35 162h9q185 4 275.5 60.5t90.5 138.5q0 63 -48 101t-135 38q-132 0 -280 -87l-55 165q163 85 337.5 85t268 -86.5t93.5 -225.5t-107 -229q68 -51 108 -109q60 -10 129 -10q130 0 228 58v440h-205v147h667v-147h-255v-1136h-207z" />
    <glyph glyph-name="uuedevaKSH" unicode="&#x977;" horiz-adv-x="1616" 
d="M1291 -490q-182 -153 -453 -153t-488 148l52 123q190 -131 424.5 -131t404.5 133zM1264 -212q-173 -158 -430.5 -158t-463.5 153l49 127q180 -135 402.5 -135t385.5 137zM1184 0v505q-80 -28 -178 -28q-55 0 -119 8q2 -28 2 -44q0 -141 -98.5 -237.5t-262.5 -96.5
q-226 0 -442 158l48 163q184 -146 358 -146q97 0 152.5 52t55.5 133q0 131 -134 208q-107 -36 -246 -39l-15 -1l-35 162h9q185 4 275.5 60.5t90.5 138.5q0 63 -48 101t-135 38q-132 0 -280 -87l-55 165q163 85 337.5 85t268 -86.5t93.5 -225.5t-107 -229q68 -51 108 -109
q60 -10 129 -10q130 0 228 58v440h-205v147h667v-147h-255v-1136h-207z" />
    <glyph glyph-name="ddadevaMAW" unicode="&#x978;" horiz-adv-x="1131" 
d="M842 447q0 69 -43.5 112t-117.5 43q-120 0 -240 -77v-108q0 -41 -19.5 -64t-57 -23t-97 30t-114.5 85q-74 74 -74 134q0 31 20 51.5t65 33.5l71 21v451h-265v147h1191v-147h-720v-393q106 33 221 33q167 0 265.5 -92.5t98.5 -241.5q0 -92 -36.5 -186.5t-94.5 -170.5
l-174 66q121 168 121 296z" />
    <glyph glyph-name="zhadeva" unicode="&#x979;" horiz-adv-x="1639" 
d="M463 -287q-27 29 -27 71.5t26.5 71t75 28.5t75 -28.5t26.5 -70.5t-26.5 -71.5t-74.5 -29.5t-75 29zM733 -156q-27 29 -27 71.5t26.5 71t75 28.5t75 -28.5t26.5 -70.5t-26.5 -71.5t-74.5 -29.5t-75 29zM197 -142q-27 29 -27 71.5t26.5 71t75 28.5t75 -28.5t26.5 -70.5
t-26.5 -71.5t-74.5 -29.5t-75 29zM1206 0v723h-390q138 -124 138 -303q0 -135 -92.5 -227t-249.5 -92q-320 0 -563 409l105 141q224 -365 435 -365q83 0 130 43t47 119q0 94 -80.5 178t-215.5 119v151h736v240h-1236v147h1699v-147h-256v-1136h-207z" />
    <glyph glyph-name="jjyadeva" unicode="&#x97a;" horiz-adv-x="1308" 
d="M597 446q135 0 231 71l-268 404q-18 -249 -240 -348q56 -60 128 -93.5t149 -33.5zM876 1136h-296l296 -448v448zM876 0v326q-92 -61 -234 -61q-173 0 -330.5 97.5t-250.5 271.5l8 24q164 55 229.5 131t65.5 196v151h-394v147h1368v-147h-255v-1136h-207z" />
    <glyph glyph-name="gabardeva" unicode="&#x97b;" horiz-adv-x="1337" 
d="M906 0v1136h-401v-685q0 -95 -83 -95q-59 0 -132.5 48.5t-123.5 112.5t-50 108q0 71 84 71h98v440h-328v147h1397v-147h-255v-1136h-7v-139h-870v139h671z" />
    <glyph glyph-name="jabardeva" unicode="&#x97c;" horiz-adv-x="1639" 
d="M1206 0v723h-390q138 -124 138 -303q0 -135 -92.5 -227t-249.5 -92q-320 0 -563 409l105 141q224 -365 435 -365q83 0 130 43t47 119q0 94 -80.5 178t-215.5 119v151h736v240h-1236v147h1699v-147h-256v-1275h-1263v139h1056z" />
    <glyph glyph-name="uni097D" unicode="&#x97d;" horiz-adv-x="1074" 
d="M350 1v685h12q174 7 276.5 82t102.5 179q0 78 -59 127.5t-172.5 49.5t-265.5 -76l-53 165q164 77 332 77q190 0 298 -100t108 -264q0 -99 -55 -182.5t-137.5 -132t-175.5 -63.5v-547h-211z" />
    <glyph glyph-name="ddabardeva" unicode="&#x97e;" horiz-adv-x="1187" 
d="M1043 -91v-139h-871v139h871zM640 14q-259 0 -525 136l46 162q235 -136 453 -136q124 0 189 45.5t65 117.5q0 57 -47.5 91.5t-132.5 34.5q-135 0 -254 -72h-15q-271 127 -271 328q0 97 74.5 163t218.5 66h299v186h-770v147h1247v-147h-270v-335h-472q-67 0 -101.5 -30.5
t-34.5 -78.5q0 -73 79 -119q123 55 270 55q175 0 273.5 -82t98.5 -217t-105 -225t-315 -90z" />
    <glyph glyph-name="babardeva" unicode="&#x97f;" horiz-adv-x="1209" 
d="M515 385q59 0 111 15l-287 333q-56 -53 -56 -141.5t63 -147.5t169 -59zM529 793q-36 0 -61 -4l283 -324q20 16 29 26v252q-137 50 -251 50zM780 0v280q-101 -60 -240 -60q-196 0 -319 118.5t-123 288.5q0 141 103.5 233t272.5 92t306 -46v230h-810v147h1272v-147h-255
v-1275h-784v139h577z" />
    <glyph glyph-name="uni200B" unicode="&#x200b;" 
 />
    <glyph glyph-name="uni200C" unicode="&#x200c;" 
d="M20 -356h-40v1986h40v-1986z" />
    <glyph glyph-name="uni200D" unicode="&#x200d;" 
d="M20 -355h-40v1662l-216 -210l-30 29l237 230l-235 229l29 28l235 -228l235 228l31 -29l-236 -229l236 -228l-31 -29l-215 210v-1663z" />
    <glyph glyph-name="endash" unicode="&#x2013;" horiz-adv-x="1004" 
d="M889 509h-774v171h774v-171z" />
    <glyph glyph-name="emdash" unicode="&#x2014;" horiz-adv-x="1925" 
d="M1810 509h-1695v171h1695v-171z" />
    <glyph glyph-name="afii00208" unicode="&#x2015;" horiz-adv-x="1843" 
d="M1769 409h-1695v171h1695v-171z" />
    <glyph glyph-name="quoteleft" unicode="&#x2018;" horiz-adv-x="592" 
d="M341 865h-210l-11 20q19 78 65.5 205.5t93.5 225.5h153q-57 -227 -91 -451z" />
    <glyph glyph-name="quoteright" unicode="&#x2019;" horiz-adv-x="572" 
d="M220 1316h208l14 -20q-48 -189 -159 -431h-153q63 258 90 451z" />
    <glyph glyph-name="quotedblleft" unicode="&#x201c;" horiz-adv-x="977" 
d="M517 865l-13 20q49 185 160 431h153q-62 -268 -90 -451h-210zM141 865l-11 20q19 78 65.5 205.5t93.5 225.5h153q-57 -227 -91 -451h-210z" />
    <glyph glyph-name="quotedblright" unicode="&#x201d;" horiz-adv-x="947" 
d="M428 1316l14 -20q-48 -189 -159 -431h-153q63 258 90 451h208zM805 1316l12 -20q-48 -186 -158 -431h-155q62 245 93 451h208z" />
    <glyph glyph-name="bullet" unicode="&#x2022;" horiz-adv-x="693" 
d="M514.5 485q-60.5 -67 -169 -67t-168 66t-59.5 189t59.5 188.5t168.5 65.5t169 -66t60 -187.5t-60.5 -188.5z" />
    <glyph glyph-name="ellipsis" unicode="&#x2026;" horiz-adv-x="1509" 
d="M253 -26q-64 0 -98.5 36.5t-34.5 102t34 100.5t99 35t99.5 -36t34.5 -100t-35 -101t-99 -37zM754 -26q-64 0 -98.5 36.5t-34.5 102t34 100.5t99 35t99.5 -36t34.5 -100t-35 -101t-99 -37zM1354.5 11q-35.5 -37 -99 -37t-98.5 37t-35 102t34.5 100t99 35t99.5 -36t35 -100
t-35.5 -101z" />
    <glyph glyph-name="uni20B9.deva" unicode="&#x20b9;" horiz-adv-x="1172" 
d="M141 774v145h475q-18 96 -98.5 158t-190.5 62h-186v144h872v-144h-318q98 -93 117 -220h201v-145h-204q-25 -121 -117 -206t-234 -123l360 -434l1 -11h-217l-398 479l3 84q335 19 399 211h-465z" />
    <glyph glyph-name="minus" unicode="&#x2212;" horiz-adv-x="1052" 
d="M966 570h-880v160h880v-160z" />
    <glyph glyph-name="uni25CC" unicode="&#x25cc;" horiz-adv-x="1212" 
d="M614 238q57 0 57 -54.5t-57 -54.5t-57 54.5t57 54.5zM268 315q0 54 57.5 54t57.5 -54t-58 -54q-27 0 -42 14.5t-15 39.5zM904 369q57 0 57 -54t-57 -54t-57 54t57 54zM953 593q0 54 57 54t57 -54t-57 -54t-57 54zM215 647q27 0 42 -14.5t15 -39.5t-15 -39.5t-42 -14.5
q-57 0 -57 54t57 54zM325 925q58 0 58 -54.5t-58 -54.5q-27 0 -42 14.5t-15 39.5t15 40t42 15zM904 925q28 0 42.5 -15t14.5 -40q0 -54 -57 -54t-57 54.5t57 54.5zM614 1055q57 0 57 -55q0 -52 -57 -52t-57 53.5t57 53.5z" />
    <glyph glyph-name="NULL" 
 />
    <glyph glyph-name="ashortanusvaradeva" horiz-adv-x="1616" 
d="M1184 0v505q-80 -28 -178 -28q-55 0 -119 8q2 -28 2 -44q0 -141 -98.5 -237.5t-262.5 -96.5q-226 0 -442 158l48 163q184 -146 358 -146q97 0 152.5 52t55.5 133q0 131 -134 208q-107 -36 -246 -39l-15 -1l-35 162h9q185 4 275.5 60.5t90.5 138.5q0 63 -48 101t-135 38
q-132 0 -280 -87l-55 165q163 85 337.5 85t268 -86.5t93.5 -225.5t-107 -229q68 -51 108 -109q60 -10 129 -10q130 0 228 58v440h-205v147h198v80q0 121 -109 121q-31 0 -113.5 -21.5t-159.5 -21.5q-153 0 -281 154l78 127q64 -64 110.5 -88.5t95 -24.5t152 27t173.5 27
q111 0 179.5 -74t68.5 -199v-107h275v-147h-255v-1136h-207zM1425 1598q0 48 30.5 80.5t85.5 32.5t85 -32.5t30 -80.5t-30.5 -81t-84.5 -33t-85 33t-31 81z" />
    <glyph glyph-name="iianusvaradeva" horiz-adv-x="1052" 
d="M120 184q0 49 37.5 85t94.5 36q102 0 216 -114q141 8 216 57.5t75 112.5q0 50 -39.5 79t-114.5 29q-103 0 -232 -73h-12q-268 125 -268 322q0 101 75.5 166.5t229.5 65.5h245v186h-673v147h636q-80 126 -80 250t88.5 202.5t244.5 78.5q89 0 161 -20l-11 -127
q-58 12 -115 12q-85 0 -132.5 -50.5t-47.5 -127.5q0 -99 81 -218h287v-147h-232v-335h-430q-68 0 -104 -31t-36 -79q0 -70 78 -117q129 55 270.5 55t230 -75t88.5 -191t-91.5 -204t-255.5 -116l188 -202l-132 -91l-255 279q-144 5 -212.5 50t-68.5 105zM832 1476
q0 41 25.5 68t71.5 27t71.5 -27t25.5 -67.5t-25.5 -68.5t-71 -28t-71.5 27.5t-26 68.5z" />
    <glyph glyph-name="ecandraanusvaradeva" horiz-adv-x="1211" 
d="M769 -123q39 69 39 126.5t-87 115.5l-360 240q-108 73 -149 155.5t-41 221.5v400h-201v147h1271v-147h-231v-355q0 -100 -24.5 -172t-83.5 -144l-165 85q36 62 51 121t15 150v315h-425v-416q0 -96 28.5 -146t110.5 -105l362 -243q141 -95 141 -216q0 -84 -54 -185z
M1000 1592q-154 -174 -392.5 -174t-422.5 166l53 152q166 -156 358 -156t342 153zM494 1795q0 43 25.5 71t74 28t74 -27.5t25.5 -71t-25.5 -71.5t-74 -28t-74 28t-25.5 71z" />
    <glyph glyph-name="eshortanusvaradeva" horiz-adv-x="1211" 
d="M769 -123q39 69 39 126.5t-87 115.5l-360 240q-108 73 -149 155.5t-41 221.5v400h-201v147h834v80q0 121 -109 121q-31 0 -113.5 -21.5t-159.5 -21.5q-153 0 -281 154l78 127q64 -64 110.5 -88.5t95 -24.5t152 27t173.5 27q111 0 179.5 -74t68.5 -199v-107h243v-147h-231
v-355q0 -100 -24.5 -172t-83.5 -144l-165 85q36 62 51 121t15 150v315h-425v-416q0 -96 28.5 -146t110.5 -105l362 -243q141 -95 141 -216q0 -84 -54 -185zM1052 1598q0 48 30.5 80.5t85.5 32.5t85 -32.5t30 -80.5t-30.5 -81t-84.5 -33t-85 33t-31 81z" />
    <glyph glyph-name="aianusvaradeva" horiz-adv-x="1211" 
d="M769 -123q39 69 39 126.5t-87 115.5l-360 240q-108 73 -149 155.5t-41 221.5v400h-201v147h768l-425 411l151 117l521 -528h256v-147h-231v-355q0 -100 -24.5 -172t-83.5 -144l-165 85q36 62 51 121t15 150v315h-425v-416q0 -96 28.5 -146t110.5 -105l362 -243
q141 -95 141 -216q0 -84 -54 -185zM925 1598q0 48 30.5 80.5t85.5 32.5t85 -32.5t30 -80.5t-30.5 -81t-84.5 -33t-85 33t-31 81z" />
    <glyph glyph-name="ocandraanusvaradeva" horiz-adv-x="2217" 
d="M1184 0v505q-80 -28 -178 -28q-55 0 -119 8q2 -28 2 -44q0 -141 -98.5 -237.5t-262.5 -96.5q-226 0 -442 158l48 163q184 -146 358 -146q97 0 152.5 52t55.5 133q0 131 -134 208q-107 -36 -246 -39l-15 -1l-35 162h9q185 4 275.5 60.5t90.5 138.5q0 63 -48 101t-135 38
q-132 0 -280 -87l-55 165q163 85 337.5 85t268 -86.5t93.5 -225.5t-107 -229q68 -51 108 -109q60 -10 129 -10q130 0 228 58v440h-205v147h1268v-147h-254v-1136h-206v1136h-396v-1136h-207zM2276 1572q-154 -174 -392.5 -174t-422.5 166l53 152q166 -156 358 -156t342 153z
M1770 1775q0 43 25.5 71t74 28t74 -27.5t25.5 -71t-25.5 -71.5t-74 -28t-74 28t-25.5 71z" />
    <glyph glyph-name="oshortanusvaradeva" horiz-adv-x="2217" 
d="M1184 0v505q-80 -28 -178 -28q-55 0 -119 8q2 -28 2 -44q0 -141 -98.5 -237.5t-262.5 -96.5q-226 0 -442 158l48 163q184 -146 358 -146q97 0 152.5 52t55.5 133q0 131 -134 208q-107 -36 -246 -39l-15 -1l-35 162h9q185 4 275.5 60.5t90.5 138.5q0 63 -48 101t-135 38
q-132 0 -280 -87l-55 165q163 85 337.5 85t268 -86.5t93.5 -225.5t-107 -229q68 -51 108 -109q60 -10 129 -10q130 0 228 58v440h-205v147h800v80q0 121 -109 121q-31 0 -113.5 -21.5t-159.5 -21.5q-153 0 -281 154l78 127q64 -64 110.5 -88.5t95 -24.5t152 27t173.5 27
q111 0 179.5 -74t68.5 -199v-107h274v-147h-254v-1136h-206v1136h-396v-1136h-207zM2027 1598q0 48 30.5 80.5t85.5 32.5t85 -32.5t30 -80.5t-30.5 -81t-84.5 -33t-85 33t-31 81z" />
    <glyph glyph-name="oanusvaradeva" horiz-adv-x="2217" 
d="M1184 0v505q-80 -28 -178 -28q-55 0 -119 8q2 -28 2 -44q0 -141 -98.5 -237.5t-262.5 -96.5q-226 0 -442 158l48 163q184 -146 358 -146q97 0 152.5 52t55.5 133q0 131 -134 208q-107 -36 -246 -39l-15 -1l-35 162h9q185 4 275.5 60.5t90.5 138.5q0 63 -48 101t-135 38
q-132 0 -280 -87l-55 165q163 85 337.5 85t268 -86.5t93.5 -225.5t-107 -229q68 -51 108 -109q60 -10 129 -10q130 0 228 58v440h-205v147h735l-425 411l151 117l521 -528h286v-147h-254v-1136h-206v1136h-396v-1136h-207zM1901 1598q0 48 30.5 80.5t85.5 32.5t85 -32.5
t30 -80.5t-30.5 -81t-84.5 -33t-85 33t-31 81z" />
    <glyph glyph-name="auanusvaradeva" horiz-adv-x="2217" 
d="M1184 0v505q-80 -28 -178 -28q-55 0 -119 8q2 -28 2 -44q0 -141 -98.5 -237.5t-262.5 -96.5q-226 0 -442 158l48 163q184 -146 358 -146q97 0 152.5 52t55.5 133q0 131 -134 208q-107 -36 -246 -39l-15 -1l-35 162h9q185 4 275.5 60.5t90.5 138.5q0 63 -48 101t-135 38
q-132 0 -280 -87l-55 165q163 85 337.5 85t268 -86.5t93.5 -225.5t-107 -229q68 -51 108 -109q60 -10 129 -10q130 0 228 58v440h-205v147h491l-443 322l137 134l588 -456h24l-218 516l186 57l228 -573h275v-147h-254v-1136h-206v1136h-396v-1136h-207zM1997 1598
q0 48 30.5 80.5t85.5 32.5t85 -32.5t30 -80.5t-30.5 -81t-84.5 -33t-85 33t-31 81z" />
    <glyph glyph-name="acandraanusvaradeva" horiz-adv-x="1616" 
d="M1184 0v505q-80 -28 -178 -28q-55 0 -119 8q2 -28 2 -44q0 -141 -98.5 -237.5t-262.5 -96.5q-226 0 -442 158l48 163q184 -146 358 -146q97 0 152.5 52t55.5 133q0 131 -134 208q-107 -36 -246 -39l-15 -1l-35 162h9q185 4 275.5 60.5t90.5 138.5q0 63 -48 101t-135 38
q-132 0 -280 -87l-55 165q163 85 337.5 85t268 -86.5t93.5 -225.5t-107 -229q68 -51 108 -109q60 -10 129 -10q130 0 228 58v440h-205v147h667v-147h-255v-1136h-207zM1687 1572q-154 -174 -392.5 -174t-422.5 166l53 152q166 -156 358 -156t342 153zM1181 1775
q0 43 25.5 71t74 28t74 -27.5t25.5 -71t-25.5 -71.5t-74 -28t-74 28t-25.5 71z" />
    <glyph glyph-name="jhadevaNEP" horiz-adv-x="1937" 
d="M1226 0h-207v494h-392v-99q0 -88 -73 -88q-37 0 -86.5 25.5t-94.5 70t-74 96.5t-29 90t21.5 58.5t63.5 20.5h74v108q-219 9 -332 98.5t-113 231.5q0 101 72.5 175t208.5 74q165 0 263.5 -101t98.5 -262v-324h392v468h-142v147h1090v-147h-741v-387q100 51 223 51
q169 0 272.5 -100.5t103.5 -248.5q0 -91 -32 -185.5t-88 -170.5l-181 62q112 159 112 301q0 73 -45.5 119.5t-122.5 46.5q-132 0 -242 -118v-506zM168 1083q0 -145 261 -153v87q0 78 -41.5 126.5t-100.5 48.5t-89 -33t-30 -76z" />
    <glyph glyph-name="dddha2deva" horiz-adv-x="1187" 
d="M26 -104q0 48 30.5 80.5t85.5 32.5t85 -32.5t30 -80.5t-30.5 -81t-84.5 -33t-85 33t-31 81zM640 14q-259 0 -525 136l46 162q235 -136 453 -136q124 0 189 45.5t65 117.5q0 57 -47.5 91.5t-132.5 34.5q-135 0 -254 -72h-15q-271 127 -271 328q0 97 74.5 163t218.5 66h299
v186h-770v147h1247v-147h-270v-335h-472q-67 0 -101.5 -30.5t-34.5 -78.5q0 -73 79 -119q123 55 270 55q175 0 273.5 -82t98.5 -217t-105 -225t-315 -90z" />
    <glyph glyph-name="rha2deva" horiz-adv-x="1194" 
d="M-18 17q0 48 30.5 80.5t85.5 32.5t85 -32.5t30 -80.5t-30.5 -81t-84.5 -33t-85 33t-31 81zM704 165q128 0 197 41.5t69 101.5q0 46 -35 74t-102.5 28t-111.5 -42t-44 -98.5t23 -104.5h4zM725 27q-134 0 -251 39.5t-197 106t-126 154t-46 176t27.5 157t82 122.5t144.5 84
t207 30h184v240h-780v147h1261v-147h-274v-395h-321q-178 0 -259 -73t-81 -193q0 -86 60 -161t162 -115q-13 43 -13 98q0 107 81.5 180.5t227.5 73.5t234 -73t88 -179q0 -120 -105 -196t-306 -76z" />
    <glyph glyph-name="ladevaMAR" horiz-adv-x="1568" 
d="M95 538q0 155 103 258t268 103q193 0 358 -125q115 115 276 115q24 0 36 -1v248h-1166v147h1628v-147h-255v-324q64 -49 99 -124.5t35 -164.5q0 -268 -265 -495l-162 97q237 212 237 412q0 77 -45.5 124t-120.5 47q-100 0 -179 -100t-114 -293l-186 60q26 143 80 253
q-107 87 -220 87q-95 0 -152 -60t-57 -151.5t57 -184t195 -219.5l-158 -95q-292 268 -292 533z" />
    <glyph glyph-name="shadevaMAR" horiz-adv-x="1546" 
d="M283 197q-66 0 -97.5 36.5t-31.5 102.5t42 121.5t104 55.5q40 0 77 -22t85 -72q98 37 150.5 99.5t52.5 135.5t-56.5 118.5t-146.5 45.5q-155 0 -305 -96l-61 166q156 80 314 92v156h-440v147h1606v-147h-257v-1136h-207v1136h-495v-173q117 -33 181.5 -116.5t64.5 -197
t-73.5 -208.5t-191.5 -159l236 -226l-129 -116l-283 274q-73 -17 -139 -17z" />
    <glyph glyph-name="ivowelsign01deva" horiz-adv-x="618" 
d="M186 0v1136h-216v147h216v79q0 176 128.5 289.5t372.5 113.5q272 0 527 -130l-47 -155q-218 107 -434 107q-169 0 -254.5 -70.5t-85.5 -178.5v-55h255v-147h-255v-1136h-207z" />
    <glyph glyph-name="ivowelsign02deva" horiz-adv-x="618" 
d="M186 0v1136h-216v147h216v76q0 178 138 300q68 60 180.5 94t256.5 34q336 0 648 -153l-42 -159q-289 133 -567 133q-203 0 -305 -75.5t-102 -195.5v-54h255v-147h-255v-1136h-207z" />
    <glyph glyph-name="ivowelsign03deva" horiz-adv-x="618" 
d="M186 0v1136h-216v147h216v73q0 144 82 248q44 56 111 97t170.5 66t233.5 25q380 0 741 -154l-41 -162q-338 135 -672 135q-212 0 -315 -75.5t-103 -194.5v-58h255v-147h-255v-1136h-207z" />
    <glyph glyph-name="ivowelsign04deva" horiz-adv-x="618" 
d="M186 0v1136h-216v147h216v67q0 145 93 260q104 128 297 177q106 27 234 27q449 0 878 -178l-43 -161q-400 156 -795 156q-99 0 -179 -18.5t-130.5 -48.5t-84.5 -70q-63 -71 -63 -159v-52h255v-147h-255v-1136h-207z" />
    <glyph glyph-name="ivowelsign05deva" horiz-adv-x="618" 
d="M186 0v1136h-216v147h216v67q0 158 93 274q51 63 127.5 109t194.5 73.5t267 27.5q470 0 967 -198l-29 -160q-486 175 -909 175q-115 0 -205 -18.5t-145 -49t-91 -73t-49.5 -85t-13.5 -90.5v-52h255v-147h-255v-1136h-207z" />
    <glyph glyph-name="ivowelsign06deva" horiz-adv-x="618" 
d="M186 0v1136h-216v147h216v67q0 155 105 274q56 64 139.5 110.5t210 74.5t283.5 28q309 0 582 -48.5t564 -150.5l-30 -162q-529 177 -1085 177q-118 0 -214.5 -19.5t-160 -51t-106.5 -73.5q-81 -79 -81 -175v-51h255v-147h-255v-1136h-207z" />
    <glyph glyph-name="ivowelsign07deva" horiz-adv-x="618" 
d="M186 0v1136h-216v147h216v67q0 73 23 140t81.5 133t147.5 114t232.5 78t324.5 30q337 0 632 -51.5t600 -155.5l-35 -163q-555 189 -1161 187q-147 0 -262 -21t-184.5 -54t-114 -77t-61 -87t-16.5 -88v-52h255v-147h-255v-1136h-207z" />
    <glyph glyph-name="ivowelsign08deva" horiz-adv-x="618" 
d="M186 0v1136h-216v147h216v67q0 169 122 297q66 69 164 120t248 81.5t336 30.5q355 0 683.5 -59.5t680.5 -180.5l-32 -165q-674 219 -1287 219q-148 0 -269.5 -21t-201.5 -56t-134 -82q-103 -88 -103 -199v-52h255v-147h-255v-1136h-207z" />
    <glyph glyph-name="ivowelsign09deva" horiz-adv-x="618" 
d="M186 0v1136h-216v147h216v67q0 165 129 294q70 70 174.5 122t265.5 83.5t360 31.5q406 0 763.5 -59.5t732.5 -183.5l-29 -163q-735 220 -1411 220q-172 0 -309 -21.5t-223 -56.5t-143 -83q-103 -85 -103 -199v-52h255v-147h-255v-1136h-207z" />
    <glyph glyph-name="ivowelsign10deva" horiz-adv-x="618" 
d="M186 0v1136h-216v147h216v70q0 79 27.5 151t98.5 144t180 124.5t285.5 85.5t400.5 33q436 0 851 -63.5t860 -188.5l-33 -163q-455 115 -848.5 171t-805.5 56q-179 0 -321 -21.5t-231.5 -57t-149 -84.5t-83.5 -99.5t-24 -105.5v-52h255v-147h-255v-1136h-207z" />
    <glyph glyph-name="ivowelsign11deva" horiz-adv-x="618" 
d="M186 0v1136h-216v147h216v70q0 180 156 315q186 160 581 206q145 17 315 17q955 0 1848 -252l-33 -163q-897 227 -1791 227q-190 0 -342 -21.5t-249 -57t-161 -84.5t-90.5 -99.5t-26.5 -105.5v-52h255v-147h-255v-1136h-207z" />
    <glyph glyph-name="ivowelsign12deva" horiz-adv-x="618" 
d="M186 0v1136h-216v147h216v70q0 79 30.5 151t110.5 144.5t204.5 124.5t328.5 85t466 33q1002 0 1936 -252l-33 -163q-931 227 -1880 227q-216 0 -385.5 -22t-275 -57t-173.5 -84t-95 -99t-27 -106v-52h255v-147h-255v-1136h-207z" />
    <glyph glyph-name="ivowelsign13deva" horiz-adv-x="618" 
d="M186 0v1136h-216v147h216v70q0 116 70 214q127 177 483 261q269 63 678 63q1128 0 2029 -253l-33 -162q-885 227 -1973 227q-494 0 -761 -90q-153 -51 -223 -129q-63 -67 -63 -149v-52h255v-147h-255v-1136h-207z" />
    <glyph glyph-name="iivowelsign2deva" horiz-adv-x="618" 
d="M186 0v1136h-216v147h199q-67 161 -149.5 237.5t-171.5 76.5q-56 0 -88 -35t-32 -93q0 -103 82 -213h-206q-68 126 -68 244t78 197t216 79q173 0 315 -125t234 -368h269v-147h-255v-1136h-207z" />
    <glyph glyph-name="iivowelsign3deva" horiz-adv-x="618" 
d="M186 0v1136h-216v147h145q-364 314 -684 314q-104 0 -155.5 -47t-51.5 -119q0 -92 60 -175h-205q-51 108 -51 218q0 127 96 215.5t277 88.5q241 0 499.5 -129t482.5 -366h265v-147h-255v-1136h-207z" />
    <glyph glyph-name="iivowelsign4deva" horiz-adv-x="618" 
d="M186 0v1136h-216v147h172q-123 155 -251.5 234.5t-240.5 79.5q-76 0 -115 -37.5t-39 -99.5q0 -102 88 -204h-209q-77 116 -77 236.5t82.5 201.5t232.5 81q201 0 397 -125t375 -367h263v-147h-255v-1136h-207z" />
    <glyph glyph-name="iivowelsignanusvaradeva" horiz-adv-x="618" 
d="M367 1598q0 48 30.5 80.5t85.5 32.5t85 -32.5t30 -80.5t-30.5 -81t-84.5 -33t-85 33t-31 81zM186 0v1136h-216v147h194q-70 156 -161 236.5t-192 80.5q-66 0 -101.5 -37.5t-35.5 -98.5q0 -98 89 -208h-212q-72 126 -72 246t79 200t222 80q192 0 348 -129.5t252 -369.5
h268v-147h-255v-1136h-207z" />
    <glyph glyph-name="iivowelsignanusvara2deva" horiz-adv-x="618" 
d="M383 1598q0 48 30.5 80.5t85.5 32.5t85 -32.5t30 -80.5t-30.5 -81t-84.5 -33t-85 33t-31 81zM186 0v1136h-216v147h199q-67 161 -149.5 237.5t-171.5 76.5q-56 0 -88 -35t-32 -93q0 -103 82 -213h-206q-68 126 -68 244t78 197t216 79q173 0 315 -125t234 -368h269v-147
h-255v-1136h-207z" />
    <glyph glyph-name="iivowelsignanusvara3deva" horiz-adv-x="618" 
d="M293 1598q0 48 30.5 80.5t85.5 32.5t85 -32.5t30 -80.5t-30.5 -81t-84.5 -33t-85 33t-31 81zM186 0v1136h-216v147h145q-364 314 -684 314q-104 0 -155.5 -47t-51.5 -119q0 -92 60 -175h-205q-51 108 -51 218q0 127 96 215.5t277 88.5q241 0 499.5 -129t482.5 -366h265
v-147h-255v-1136h-207z" />
    <glyph glyph-name="iivowelsignanusvara4deva" horiz-adv-x="618" 
d="M294 1598q0 48 30.5 80.5t85.5 32.5t85 -32.5t30 -80.5t-30.5 -81t-84.5 -33t-85 33t-31 81zM186 0v1136h-216v147h172q-123 155 -251.5 234.5t-240.5 79.5q-76 0 -115 -37.5t-39 -99.5q0 -102 88 -204h-209q-77 116 -77 236.5t82.5 201.5t232.5 81q201 0 397 -125
t375 -367h263v-147h-255v-1136h-207z" />
    <glyph glyph-name="iivowelsignrephdeva" horiz-adv-x="618" 
d="M186 0v1136h-216v147h194q-70 156 -161 236.5t-192 80.5q-66 0 -101.5 -37.5t-35.5 -98.5q0 -98 89 -208h-212q-72 126 -72 246t79 200t222 80q205 0 367 -145q31 77 110 122.5t183.5 45.5t175.5 -20l-11 -133q-58 12 -115 12q-79 0 -124.5 -46t-45.5 -117
q0 -101 82 -218h246v-147h-255v-1136h-207z" />
    <glyph glyph-name="iivowelsignreph2deva" horiz-adv-x="618" 
d="M186 0v1136h-216v147h199q-67 161 -149.5 237.5t-171.5 76.5q-56 0 -88 -35t-32 -93q0 -103 82 -213h-206q-68 126 -68 244t78 197t216 79q177 0 320 -129q34 73 111.5 115.5t180 42.5t173.5 -20l-11 -133q-58 12 -115 12q-79 0 -124.5 -46t-45.5 -117q0 -101 82 -218
h247v-147h-255v-1136h-207z" />
    <glyph glyph-name="iivowelsignreph3deva" horiz-adv-x="618" 
d="M186 0v1136h-216v147h145q-364 314 -684 314q-104 0 -155.5 -47t-51.5 -119q0 -92 60 -175h-205q-51 108 -51 218q0 127 96 215.5t272 88.5t359 -66t358 -192v18q0 116 86 191.5t241 75.5q90 0 161 -20l-11 -133q-58 12 -115 12q-79 0 -124.5 -46t-45.5 -117
q0 -101 82 -218h261v-147h-255v-1136h-207z" />
    <glyph glyph-name="iivowelsignreph4deva" horiz-adv-x="618" 
d="M186 0v1136h-216v147h172q-123 155 -251.5 234.5t-240.5 79.5q-76 0 -115 -37.5t-39 -99.5q0 -102 88 -204h-209q-77 116 -77 236.5t82.5 201.5t232.5 81q257 0 504 -203q13 103 97.5 168t227.5 65q90 0 161 -20l-11 -133q-58 12 -115 12q-79 0 -124.5 -46t-45.5 -117
q0 -101 82 -218h259v-147h-255v-1136h-207z" />
    <glyph glyph-name="iivowelsignrephanusvaradeva" horiz-adv-x="618" 
d="M434 1476q0 41 25.5 68t71.5 27t71.5 -27t25.5 -67.5t-25.5 -68.5t-71 -28t-71.5 27.5t-26 68.5zM186 0v1136h-216v147h194q-70 156 -161 236.5t-192 80.5q-66 0 -101.5 -37.5t-35.5 -98.5q0 -98 89 -208h-212q-72 126 -72 246t79 200t222 80q204 0 366 -145
q32 80 113.5 128.5t201.5 48.5q89 0 161 -20l-11 -127q-58 12 -115 12q-85 0 -132.5 -50.5t-47.5 -127.5q0 -99 81 -218h251v-147h-255v-1136h-207z" />
    <glyph glyph-name="iivowelsignrephanusvara2deva" horiz-adv-x="618" 
d="M434 1476q0 41 25.5 68t71.5 27t71.5 -27t25.5 -67.5t-25.5 -68.5t-71 -28t-71.5 27.5t-26 68.5zM186 0v1136h-216v147h199q-67 161 -149.5 237.5t-171.5 76.5q-56 0 -88 -35t-32 -93q0 -103 82 -213h-206q-68 126 -68 244t78 197t216 79q178 0 320 -130
q34 77 114.5 122.5t183 45.5t174.5 -20l-11 -127q-58 12 -115 12q-85 0 -132.5 -50.5t-47.5 -127.5q0 -99 81 -218h251v-147h-255v-1136h-207z" />
    <glyph glyph-name="iivowelsignrephanusvara3deva" horiz-adv-x="618" 
d="M420 1476q0 41 25.5 68t71.5 27t71.5 -27t25.5 -67.5t-25.5 -68.5t-71 -28t-71.5 27.5t-26 68.5zM186 0v1136h-216v147h145q-364 314 -684 314q-104 0 -155.5 -47t-51.5 -119q0 -92 60 -175h-205q-51 108 -51 218q0 127 96 215.5t272 88.5t359 -66.5t359 -192.5v18
q0 120 88.5 198.5t244.5 78.5q89 0 161 -20l-11 -127q-58 12 -115 12q-85 0 -132.5 -50.5t-47.5 -127.5q0 -99 81 -218h265v-147h-255v-1136h-207z" />
    <glyph glyph-name="iivowelsignrephanusvara4deva" horiz-adv-x="618" 
d="M421 1476q0 41 25.5 68t71.5 27t71.5 -27t25.5 -67.5t-25.5 -68.5t-71 -28t-71.5 27.5t-26 68.5zM186 0v1136h-216v147h172q-123 155 -251.5 234.5t-240.5 79.5q-76 0 -115 -37.5t-39 -99.5q0 -102 88 -204h-209q-77 116 -77 236.5t82.5 201.5t232.5 81q257 0 504 -203
q13 107 100 174.5t231 67.5q89 0 161 -20l-11 -127q-58 12 -115 12q-85 0 -132.5 -50.5t-47.5 -127.5q0 -96 73 -206l9 -12h263v-147h-255v-1136h-207z" />
    <glyph glyph-name="iivowelcandrabindudeva" horiz-adv-x="618" 
d="M393 0h-207v1136h-216v147h194q-70 156 -161 236.5t-192 80.5q-66 0 -101.5 -37.5t-35.5 -98.5q0 -98 89 -208h-212q-72 126 -72 246t79 200t222 80q246 0 427 -207l75 131q69 -80 130 -113.5t131 -33.5q142 0 250 142l84 -124q-133 -177 -322 -177t-339 165
q97 -115 164 -282h268v-147h-255v-1136zM436 1755q0 42 26 70.5t73.5 28.5t73 -28t25.5 -70.5t-26 -71t-73 -28.5t-73 28.5t-26 70.5z" />
    <glyph glyph-name="iivowelcandrabindu2deva" horiz-adv-x="618" 
d="M393 0h-207v1136h-216v147h199q-67 161 -149.5 237.5t-171.5 76.5q-56 0 -88 -35t-32 -93q0 -103 82 -213h-206q-68 126 -68 244t78 197t216 79q219 0 382 -194l71 124q69 -80 130 -113.5t131 -33.5q142 0 250 142l84 -124q-133 -177 -328 -177q-162 0 -297 128
q73 -105 126 -245h269v-147h-255v-1136zM437 1755q0 42 26 70.5t73.5 28.5t73 -28t25.5 -70.5t-26 -71t-73 -28.5t-73 28.5t-26 70.5z" />
    <glyph glyph-name="iivowelcandrabindu3deva" horiz-adv-x="618" 
d="M766 1577q-133 -177 -324 -177t-346 175l75 131q69 -80 130 -113.5t131 -33.5q142 0 250 142zM186 0v1136h-216v147h145q-364 314 -684 314q-104 0 -155.5 -47t-51.5 -119q0 -92 60 -175h-205q-51 108 -51 218q0 127 96 215.5t277 88.5q241 0 499.5 -129t482.5 -366h265
v-147h-255v-1136h-207zM325 1755q0 42 26 70.5t73.5 28.5t73 -28t25.5 -70.5t-26 -71t-73 -28.5t-73 28.5t-26 70.5z" />
    <glyph glyph-name="iivowelcandrabindu4deva" horiz-adv-x="618" 
d="M393 0h-207v1136h-216v147h172q-123 155 -251.5 234.5t-240.5 79.5q-76 0 -115 -37.5t-39 -99.5q0 -102 88 -204h-209q-77 116 -77 236.5t82.5 201.5t232.5 81q243 0 478 -182l64 113q69 -80 130 -113.5t131 -33.5q142 0 250 142l84 -124q-133 -177 -328 -177
q-85 0 -160 34q65 -71 123 -151h263v-147h-255v-1136zM309 1755q0 42 26 70.5t73.5 28.5t73 -28t25.5 -70.5t-26 -71t-73 -28.5t-73 28.5t-26 70.5z" />
    <glyph glyph-name="ocandravowelsignanusvaradeva" horiz-adv-x="618" 
d="M186 0v1136h-216v147h678v-147h-255v-1136h-207zM697 1574q-154 -174 -392.5 -174t-422.5 166l53 152q166 -156 358 -156t342 153zM191 1777q0 43 25.5 71t74 28t74 -27.5t25.5 -71t-25.5 -71.5t-74 -28t-74 28t-25.5 71z" />
    <glyph glyph-name="ocandravowelsignrephdeva" horiz-adv-x="618" 
d="M186 0v1136h-216v147h184q-80 126 -80 248.5t86 198t241 75.5q90 0 161 -20l-11 -133q-58 12 -115 12q-79 0 -124.5 -46t-45.5 -117q0 -101 82 -218h300v-147h-255v-1136h-207zM12 1572q-148 -174 -376 -174t-404 166l51 152q159 -156 342.5 -156t327.5 153z" />
    <glyph glyph-name="ocandravowelsignrephanusdeva" horiz-adv-x="618" 
d="M186 0v1136h-216v147h183q-80 126 -80 250t88.5 202.5t244.5 78.5q89 0 161 -20l-11 -127q-58 12 -115 12q-85 0 -132.5 -50.5t-47.5 -127.5q0 -99 81 -218h306v-147h-255v-1136h-207zM379 1476q0 41 25.5 68t71.5 27t71.5 -27t25.5 -67.5t-25.5 -68.5t-71 -28
t-71.5 27.5t-26 68.5zM11 1572q-148 -174 -376 -174t-404 166l51 152q159 -156 342.5 -156t327.5 153z" />
    <glyph glyph-name="ocandravowelsigncandrabindudeva" horiz-adv-x="618" 
d="M186 0v1136h-216v147h678v-147h-255v-1136h-207zM683 1572q-154 -174 -392.5 -174t-422.5 166l53 152q166 -156 358 -156t342 153zM177 1775q0 43 25.5 71t74 28t74 -27.5t25.5 -71t-25.5 -71.5t-74 -28t-74 28t-25.5 71z" />
    <glyph glyph-name="oshortvowelsignanusvaradeva" horiz-adv-x="618" 
d="M186 0v1136h-216v147h217v80q0 121 -109 121q-31 0 -113.5 -21.5t-159.5 -21.5q-153 0 -281 154l78 127q64 -64 110.5 -88.5t95 -24.5t152 27t173.5 27q111 0 179.5 -74t68.5 -199v-107h267v-147h-255v-1136h-207zM435 1598q0 48 30.5 80.5t85.5 32.5t85 -32.5t30 -80.5
t-30.5 -81t-84.5 -33t-85 33t-31 81z" />
    <glyph glyph-name="oshortvowelsignrephdeva" horiz-adv-x="618" 
d="M186 0v1136h-216v147h217v80q0 121 -109 121q-31 0 -113.5 -21.5t-159.5 -21.5q-153 0 -281 154l78 127q64 -64 110.5 -88.5t95 -24.5t152 27t160 27t94.5 -12q35 72 112.5 113t177.5 41t172 -20l-10 -133q-58 12 -114 12q-83 0 -127 -47.5t-44 -126.5v-207h267v-147
h-255v-1136h-207z" />
    <glyph glyph-name="oshortvowelsignrephanusdeva" horiz-adv-x="618" 
d="M186 0v1136h-216v147h217v80q0 121 -109 121q-31 0 -113.5 -21.5t-159.5 -21.5q-153 0 -281 154l78 127q64 -64 110.5 -88.5t95 -24.5t152 27t156.5 27t93 -10q34 74 113 117.5t181 43.5t174 -20l-11 -127q-58 12 -114 12q-85 0 -128 -50.5t-43 -137.5v-208h267v-147
h-255v-1136h-207zM466 1476q0 40 25.5 67.5t71.5 27.5t71.5 -27.5t25.5 -67.5t-26 -68t-71 -28t-71 28t-26 68z" />
    <glyph glyph-name="oshortvowelsigncandrabindudeva" horiz-adv-x="618" 
d="M186 0v1136h-216v147h217v80q0 121 -109 121q-31 0 -113.5 -21.5t-159.5 -21.5q-153 0 -281 154l78 127q64 -64 110.5 -88.5t95 -24.5t152 27t173.5 27q24 0 52 -5l27 48q69 -80 130 -113.5t131 -33.5q142 0 250 142l84 -124q-133 -177 -328 -177q-51 0 -99 12
q1 -7 1 -22v-107h267v-147h-255v-1136h-207zM366 1755q0 42 26 70.5t73.5 28.5t73 -28t25.5 -70.5t-26 -71t-73 -28.5t-73 28.5t-26 70.5z" />
    <glyph glyph-name="ovowelsignanusvaradeva" horiz-adv-x="618" 
d="M186 0v1136h-216v147h148l-425 411l151 117l521 -528h283v-147h-255v-1136h-207zM305 1598q0 48 30.5 80.5t85.5 32.5t85 -32.5t30 -80.5t-30.5 -81t-84.5 -33t-85 33t-31 81z" />
    <glyph glyph-name="ovowelsignrephdeva" horiz-adv-x="618" 
d="M186 0v1136h-216v147h148l-425 411l151 117l269 -272q1 115 86.5 190.5t240.5 75.5q90 0 161 -20l-11 -133q-58 12 -115 12q-79 0 -124.5 -46t-45.5 -117q0 -101 82 -218h261v-147h-255v-1136h-207z" />
    <glyph glyph-name="ovowelsignrephanusvaradeva" horiz-adv-x="618" 
d="M186 0v1136h-216v147h148l-425 411l151 117l269 -272q1 119 89.5 197t243.5 78q89 0 161 -20l-11 -127q-58 12 -115 12q-85 0 -132.5 -50.5t-47.5 -127.5q0 -99 81 -218h266v-147h-255v-1136h-207zM419 1476q0 41 25.5 68t71.5 27t71.5 -27t25.5 -67.5t-25.5 -68.5
t-71 -28t-71.5 27.5t-26 68.5z" />
    <glyph glyph-name="ovowelsigncandrabindudeva" horiz-adv-x="618" 
d="M186 0v1136h-216v147h148l-425 411l151 117l521 -528h283v-147h-255v-1136h-207zM808 1577q-133 -177 -324 -177t-346 175l75 131q69 -80 130 -113.5t131 -33.5q142 0 250 142zM367 1755q0 42 26 70.5t73.5 28.5t73 -28t25.5 -70.5t-26 -71t-73 -28.5t-73 28.5t-26 70.5z
" />
    <glyph glyph-name="auvowelsignanusvaradeva" horiz-adv-x="618" 
d="M400 1598q0 48 30.5 80.5t85.5 32.5t85 -32.5t30 -80.5t-30.5 -81t-84.5 -33t-85 33t-31 81zM186 0v1136h-216v108h-43l-497 361l137 134l588 -456h24l-218 516l186 57l228 -573h273v-147h-255v-1136h-207z" />
    <glyph glyph-name="auvowelsignrephdeva" horiz-adv-x="618" 
d="M186 0v1136h-216v108h-43l-497 361l137 134l588 -456h24l-218 516l186 57l54 -136q90 85 251 85q90 0 161 -20l-11 -133q-58 12 -115 12q-79 0 -124.5 -46t-45.5 -117q0 -101 82 -218h249v-147h-255v-1136h-207z" />
    <glyph glyph-name="auvowelsignrephanusvaradeva" horiz-adv-x="618" 
d="M431 1476q0 41 25.5 68t71.5 27t71.5 -27t25.5 -67.5t-25.5 -68.5t-71 -28t-71.5 27.5t-26 68.5zM186 0v1136h-216v108h-43l-497 361l137 134l588 -456h24l-218 516l186 57l53 -133q91 91 258 91q89 0 161 -20l-11 -127q-58 12 -115 12q-85 0 -132.5 -50.5t-47.5 -127.5
q0 -99 81 -218h254v-147h-255v-1136h-207z" />
    <glyph glyph-name="auvowelsigncandrabindudeva" horiz-adv-x="618" 
d="M186 0v1136h-216v108h-43l-497 361l137 134l588 -456h24l-218 516l186 57l108 -273l71 124q69 -80 130 -113.5t131 -33.5q142 0 250 142l84 -124q-133 -177 -328 -177q-180 0 -329 161l111 -279h273v-147h-255v-1136h-207zM480 1756q0 42 26 70.5t73.5 28.5t73 -28
t25.5 -70.5t-26 -71t-73 -28.5t-73 28.5t-26 70.5z" />
    <glyph glyph-name="vattudeva" 
d="M32 -365l-358 243l-358 -244l-106 137l407 277h102l411 -277z" />
    <glyph glyph-name="vattuudeva" 
d="M-307 -358q135 0 219.5 -77t84.5 -199.5t-94 -199.5t-241.5 -77t-283.5 52.5t-290 165.5l63 141q145 -111 256 -158t211 -47t154 37t54 91t-39.5 85t-101.5 31q-100 0 -213 -92l-83 133q142 114 304 114zM32 -376l-358 243l-358 -244l-106 137l407 277h102l411 -277z" />
    <glyph glyph-name="vattuulowdeva" 
d="M-302 -315q131 0 213 -74t82 -192t-91 -192.5t-234.5 -74.5t-276 50.5t-281.5 159.5l61 136q142 -108 249.5 -153t205 -45t149.5 36t52 88t-38 82t-99 30q-98 0 -206 -89l-81 128q137 110 295 110zM45 -336l-369 209l-374 -212l-98 140l414 231h100l419 -234z" />
    <glyph glyph-name="vattuuudeva" 
d="M-342 -901q-140 0 -232 75.5t-92 204.5q0 105 86 181t232 76t290.5 -88.5t297.5 -273.5l-96 -112q-147 173 -262 243t-217 70q-76 -1 -117.5 -36t-41.5 -86.5t40 -82.5t113 -31t167 39l50 -136q-108 -43 -218 -43zM32 -376l-358 243l-358 -244l-106 137l407 277h102
l411 -277z" />
    <glyph glyph-name="vattuuulowdeva" 
d="M-339 -858q-139 0 -229.5 73.5t-90.5 197.5q0 102 85 175t229 73t287 -85.5t294 -264.5l-95 -108q-145 167 -258.5 235t-214.5 68q-75 -1 -116 -35.5t-41 -84t39.5 -79.5t111 -30t165.5 38l49 -131q-107 -42 -215 -42zM45 -336l-369 209l-374 -212l-98 140l414 231h100
l419 -234z" />
    <glyph glyph-name="vatturvocalicdeva" 
d="M-39 -873q-106 -43 -245 -43t-234.5 75.5t-95.5 203.5q0 112 88.5 186t246.5 74q76 0 134 -5v-130h-101q-97 0 -146.5 -40.5t-49.5 -99.5t43.5 -92t128.5 -33t203 50zM32 -376l-358 243l-358 -244l-106 137l407 277h102l411 -277z" />
    <glyph glyph-name="vatturvocaliclowdeva" 
d="M-295 -793q-137 0 -226.5 66t-89.5 169t86.5 167.5t231.5 64.5q51 0 131 -6v-117h-99q-91 0 -136 -32t-45 -79t39 -76.5t117.5 -29.5t175.5 35l26 -124q-98 -38 -211 -38zM45 -338l-369 209l-374 -212l-98 140l414 231h100l419 -234z" />
    <glyph glyph-name="vatturrvocalicdeva" 
d="M-197 -1012q-128 0 -198 51t-70 128q0 53 34 96q-68 26 -104.5 73.5t-36.5 105.5q0 82 75 137.5t229 55.5q54 0 126 -5v-111h-106q-77 0 -115.5 -24t-38.5 -60.5t34 -57.5t108.5 -21t166.5 27l23 -116q-93 -27 -190 -30q-49 -24 -49 -68q0 -33 30 -52.5t94.5 -19.5
t153.5 36l25 -108q-95 -37 -191 -37zM32 -376l-358 243l-358 -244l-106 137l407 277h102l411 -277z" />
    <glyph glyph-name="vattulvocalicdeva" 
d="M106 -918q-62 -24 -138.5 -24t-127.5 39t-51 94t37.5 90.5t112.5 44.5q31 44 31 84t-23 62t-63 22q-55 0 -97.5 -50.5t-65.5 -133.5l-124 37q15 64 40 110q-55 49 -119 49q-45 0 -72.5 -25.5t-27.5 -66t29 -82t107 -97.5l-101 -63q-174 124 -174 266q0 79 59.5 133
t168.5 54t200 -77q72 64 171.5 64t159 -54.5t59.5 -134.5q0 -98 -60 -177h-35q-46 0 -71 -17t-25 -39t20 -35.5t61.5 -14t105.5 23.5zM45 -339l-369 209l-374 -212l-98 140l414 231h100l419 -234z" />
    <glyph glyph-name="vattullvocalicdeva" 
d="M150 -1047q-52 -24 -125 -24t-115.5 34.5t-42.5 84.5q0 31 17 56q-43 18 -66.5 49t-23.5 73.5t36.5 76t109.5 42.5q31 46 31 85.5t-23 61.5t-63 22q-55 0 -97.5 -50.5t-65.5 -133.5l-124 37q14 61 40 110q-55 49 -119 49q-45 0 -72.5 -25.5t-27.5 -66t29 -82t107 -97.5
l-101 -63q-174 124 -174 266q0 79 59.5 133t168.5 54t200 -77q72 64 171 64t159 -54.5t60 -135.5q0 -98 -59 -176h-27q-49 0 -73.5 -14.5t-24.5 -36.5q0 -46 77 -46q44 0 102 17l15 -81q-52 -17 -111 -19q-20 -13 -20 -36q0 -44 63 -44q44 0 97 20zM45 -336l-369 209
l-374 -212l-98 140l414 231h100l419 -234z" />
    <glyph glyph-name="vattuviramadeva" 
d="M-476 -465l72 152l531 -252l-71 -152zM32 -376l-358 243l-358 -244l-106 137l407 277h102l411 -277z" />
    <glyph glyph-name="vattuviramalowdeva" 
d="M-476 -433l65 142l528 -212l-64 -143zM45 -334l-369 209l-374 -212l-98 140l414 231h100l419 -234z" />
    <glyph glyph-name="uvowelsignlowdeva" 
d="M-329 29q139 0 226 -77t87 -199.5t-96.5 -199.5t-249 -77t-293 52.5t-299.5 165.5l65 141q150 -111 264.5 -158t218 -47t159 37t55.5 91t-40.5 85t-105.5 31q-103 0 -219 -92l-86 133q147 114 314 114z" />
    <glyph glyph-name="uuvowelsignlowdeva" 
d="M-343 -514q-148 0 -245 75.5t-97 204.5q0 105 90.5 181t245 76t307.5 -88.5t315 -273.5l-102 -112q-155 173 -276.5 243t-229.5 70q-80 -1 -124 -36t-44 -86.5t42 -82.5t119 -31t177 39l53 -136q-114 -43 -231 -43z" />
    <glyph glyph-name="rvocalicvowelsignlowdeva" 
d="M-146 -414q-98 -39 -226 -39t-219 68t-91 174.5t88 173t235 66.5q52 0 134 -6v-121h-101q-92 0 -138 -33t-46 -82t39.5 -79t119.5 -30t179 36z" />
    <glyph glyph-name="rrvocaliclowdeva" 
d="M-280 -618q-128 0 -198 51t-70 128q0 53 34 96q-68 26 -104.5 73.5t-36.5 105.5q0 82 75 137.5t229 55.5q53 0 126 -5v-111h-106q-77 0 -115.5 -24t-38.5 -60.5t34 -57.5t108.5 -21t166.5 27l23 -116q-93 -27 -190 -30q-49 -24 -49 -68q0 -33 30 -52.5t94.5 -19.5
t153.5 36l25 -108q-95 -37 -191 -37z" />
    <glyph glyph-name="lvocalicvowelsignlowdeva" 
d="M62 -457q-62 -24 -138.5 -24t-127.5 39t-51 94t37.5 90.5t112.5 44.5q31 44 31 84t-23 62t-63 22q-55 0 -97.5 -50.5t-65.5 -133.5l-124 37q15 64 40 110q-55 49 -119 49q-45 0 -72.5 -25.5t-27.5 -66t29 -82t107 -97.5l-101 -63q-174 124 -174 266q0 79 59.5 133
t168.5 54t200 -77q72 64 171.5 64t159 -54.5t59.5 -134.5q0 -98 -60 -177h-35q-46 0 -71 -17t-25 -39t20 -35.5t61.5 -14t105.5 23.5z" />
    <glyph glyph-name="llvocalicvowelsignlowdeva" 
d="M105 -605q-53 -24 -125.5 -24t-115 34.5t-42.5 84.5q0 31 17 56q-43 18 -66.5 49t-23.5 73.5t36.5 76t109.5 42.5q31 46 31 85.5t-23 61.5t-63 22q-55 0 -97.5 -50.5t-65.5 -133.5l-124 37q14 61 40 110q-55 49 -119 49q-45 0 -72.5 -25.5t-27.5 -66t29 -82t107 -97.5
l-101 -63q-174 124 -174 266q0 79 59.5 133t168.5 54t200 -77q72 64 171 64t159 -54.5t60 -135.5q0 -98 -59 -176h-27q-49 0 -73.5 -14.5t-24.5 -36.5q0 -46 77 -46q44 0 102 17l15 -81q-52 -17 -111 -19q-20 -13 -20 -36q0 -44 63 -44q44 0 97 20z" />
    <glyph glyph-name="viramalowdeva" 
d="M-485 -219l65 142l528 -212l-64 -143z" />
    <glyph glyph-name="vattulowdeva" 
d="M45 -320l-369 209l-374 -212l-98 140l414 231h100l419 -234z" />
    <glyph glyph-name="anusvaradeva2" 
d="M-180 1598q0 48 30.5 80.5t85.5 32.5t85 -32.5t30 -80.5t-30 -81t-84 -33t-85.5 33t-31.5 81z" />
    <glyph glyph-name="candrabindusmalldeva" 
d="M10 1577q-133 -177 -324 -177t-346 175l75 131q69 -80 130 -113.5t131 -33.5q142 0 250 142zM-431 1755q0 42 26 70.5t73.5 28.5t73 -28t25.5 -70.5t-26 -71t-73 -28.5t-73 28.5t-26 70.5z" />
    <glyph glyph-name="ecandravowelsignanusvaradeva" 
d="M73 1572q-154 -174 -392.5 -174t-422.5 166l53 152q166 -156 358 -156t342 153zM-433 1775q0 43 25.5 71t74 28t74 -27.5t25.5 -71t-25.5 -71.5t-74 -28t-74 28t-25.5 71z" />
    <glyph glyph-name="ecandravowelsigncandrabindudeva" 
d="M73 1572q-154 -174 -392.5 -174t-422.5 166l53 152q166 -156 358 -156t342 153zM-433 1775q0 43 25.5 71t74 28t74 -27.5t25.5 -71t-25.5 -71.5t-74 -28t-74 28t-25.5 71z" />
    <glyph glyph-name="ecandravowelsignrephdeva" 
d="M-544 1538q0 116 86 191.5t241 75.5q90 0 161 -20l-11 -133q-58 12 -115 12q-79 0 -124.5 -46t-45.5 -117q0 -115 111 -257h-197q-106 148 -106 294zM-606 1572q-148 -174 -376 -174t-404 166l51 152q159 -156 342.5 -156t327.5 153z" />
    <glyph glyph-name="ecandravowelsignrephanusdeva" 
d="M-238 1476q0 41 25.5 68t71.5 27t71.5 -27t25.5 -67.5t-25.5 -68.5t-71 -28t-71.5 27.5t-26 68.5zM-544 1537q0 120 88.5 198.5t244.5 78.5q89 0 161 -20l-11 -127q-58 12 -115 12q-85 0 -132.5 -50.5t-47.5 -127.5q0 -114 110 -257h-192q-106 147 -106 293zM-606 1572
q-148 -174 -376 -174t-404 166l51 152q159 -156 342.5 -156t327.5 153z" />
    <glyph glyph-name="eshortvowelsignanusvaradeva" 
d="M-186 1598q0 48 30.5 80.5t85.5 32.5t85 -32.5t30 -80.5t-30.5 -81t-84.5 -33t-85 33t-31 81zM-240 1244h-194v119q0 121 -109 121q-31 0 -113.5 -21.5t-159.5 -21.5q-153 0 -281 154l78 127q64 -64 110.5 -88.5t95 -24.5t152 27t173.5 27q111 0 179.5 -74t68.5 -199
v-146z" />
    <glyph glyph-name="eshortvowelsignrephdeva" 
d="M-434 1244v119q0 121 -109 121q-31 0 -113.5 -21.5t-159.5 -21.5q-153 0 -281 154l78 127q64 -64 110.5 -88.5t95 -24.5t152 27t160.5 27t94 -12q35 72 112.5 113t177.5 41t172 -20l-10 -133q-58 12 -114 12q-83 0 -127 -47.5t-44 -126.5v-246h-194z" />
    <glyph glyph-name="eshortvowelsignrephanusdeva" 
d="M-155 1476q0 40 25.5 67.5t71.5 27.5t71.5 -27.5t25.5 -67.5t-26 -68t-71 -28t-71 28t-26 68zM-434 1244v119q0 121 -109 121q-31 0 -113.5 -21.5t-159.5 -21.5q-153 0 -281 154l78 127q64 -64 110.5 -88.5t95 -24.5t152 27t156.5 27t93 -10q34 74 113 117.5t181 43.5
t174 -20l-11 -127q-58 12 -114 12q-85 0 -128 -50.5t-43 -137.5v-247h-194z" />
    <glyph glyph-name="eshortvowelsigncandrabindudeva" 
d="M-240 1244h-194v119q0 121 -109 121q-31 0 -113.5 -21.5t-159.5 -21.5q-153 0 -281 154l78 127q64 -64 110.5 -88.5t95 -24.5t152 27t173.5 27q24 0 52 -5l27 48q69 -80 130 -113.5t131 -33.5q142 0 250 142l84 -124q-133 -177 -328 -177q-51 0 -99 12q1 -7 1 -22v-146z
M-255 1755q0 42 26 70.5t73.5 28.5t73 -28t25.5 -70.5t-26 -71t-73 -28.5t-73 28.5t-26 70.5z" />
    <glyph glyph-name="evowelsignanusvaradeva" 
d="M-313 1598q0 48 30.5 80.5t85.5 32.5t85 -32.5t30 -80.5t-30.5 -81t-84.5 -33t-85 33t-31 81zM-214 1244h-246l-465 450l151 117z" />
    <glyph glyph-name="evowelsignrephdeva" 
d="M-178 1805q90 0 161 -20l-11 -133q-58 12 -115 12q-79 0 -124.5 -46t-45.5 -117q0 -115 111 -257h-258l-465 450l151 117l269 -272q1 115 86.5 190.5t240.5 75.5z" />
    <glyph glyph-name="evowelsignrephanusvaradeva" 
d="M-199 1476q0 41 25.5 68t71.5 27t71.5 -27t25.5 -67.5t-25.5 -68.5t-71 -28t-71.5 27.5t-26 68.5zM-172 1814q89 0 161 -20l-11 -127q-58 12 -115 12q-85 0 -132.5 -50.5t-47.5 -127.5q0 -114 110 -257h-253l-465 450l151 117l269 -272q1 119 89.5 197t243.5 78z" />
    <glyph glyph-name="evowelsigncandrabindudeva" 
d="M190 1577q-133 -177 -324 -177t-346 175l75 131q69 -80 130 -113.5t131 -33.5q142 0 250 142zM-214 1244h-246l-465 450l151 117zM-251 1755q0 42 26 70.5t73.5 28.5t73 -28t25.5 -70.5t-26 -71t-73 -28.5t-73 28.5t-26 70.5z" />
    <glyph glyph-name="aivowelsignanusvaradeva" 
d="M-214 1598q0 48 30.5 80.5t85.5 32.5t85 -32.5t30 -80.5t-30.5 -81t-84.5 -33t-85 33t-31 81zM-687 1244l-497 361l137 134l623 -483l-229 543l186 57l243 -612h-463z" />
    <glyph glyph-name="aivowelsignrephdeva" 
d="M-162 1805q90 0 161 -20l-11 -133q-58 12 -115 12q-79 0 -124.5 -46t-45.5 -117q0 -115 111 -257h-501l-497 361l137 134l623 -483l-229 543l186 57l54 -136q90 85 251 85z" />
    <glyph glyph-name="aivowelsignrephanusvaradeva" 
d="M-183 1476q0 41 25.5 68t71.5 27t71.5 -27t25.5 -67.5t-25.5 -68.5t-71 -28t-71.5 27.5t-26 68.5zM-156 1814q89 0 161 -20l-11 -127q-58 12 -115 12q-85 0 -132.5 -50.5t-47.5 -127.5q0 -114 110 -257h-496l-497 361l137 134l623 -483l-229 543l186 57l53 -133
q91 91 258 91z" />
    <glyph glyph-name="aivowelsigncandrabindudeva" 
d="M-27 1560q142 0 250 142l84 -124q-133 -177 -328 -177q-180 0 -329 161l126 -318h-463l-497 361l137 134l623 -483l-229 543l186 57l108 -273l71 124q69 -80 130 -113.5t131 -33.5zM-134 1756q0 42 26 70.5t73.5 28.5t73 -28t25.5 -70.5t-26 -71t-73 -28.5t-73 28.5
t-26 70.5z" />
    <glyph glyph-name="rephdeva" 
d="M-544 1538q0 116 86 191.5t241 75.5q90 0 161 -20l-11 -133q-58 12 -115 12q-79 0 -124.5 -46t-45.5 -117q0 -115 111 -257h-197q-106 148 -106 294z" />
    <glyph glyph-name="rephanusvaradeva" 
d="M-238 1476q0 41 25.5 68t71.5 27t71.5 -27t25.5 -67.5t-25.5 -68.5t-71 -28t-71.5 27.5t-26 68.5zM-544 1537q0 120 88.5 198.5t244.5 78.5q89 0 161 -20l-11 -127q-58 12 -115 12q-85 0 -132.5 -50.5t-47.5 -127.5q0 -114 110 -257h-192q-106 147 -106 293z" />
    <glyph glyph-name="onedevaNEP" horiz-adv-x="943" 
d="M309.5 825.5q55.5 -51.5 142.5 -51.5t156 29v117q0 94 -49 151.5t-128.5 57.5t-128 -50t-48.5 -126t55.5 -127.5zM608 80v547q-68 -22 -151 -22q-168 0 -278 104.5t-109 249.5t96.5 240t264.5 95t272 -107.5t103 -287.5v-819h-198z" />
    <glyph glyph-name="fivedevaNEP" horiz-adv-x="993" 
d="M282 105q-96 0 -143.5 28.5t-47.5 75.5q0 60 56.5 120t120.5 60q38 0 66 -25t59 -88q89 18 153 86.5t93 186.5q-77 -17 -141 -17q-176 0 -276.5 92t-100.5 258v363h186v-377q0 -82 47.5 -125t137 -43t172.5 37l55 508h190l-72 -611q-24 -203 -118.5 -333t-258.5 -174
l120 -228l-150 -60l-137 266h-11z" />
    <glyph glyph-name="eightdevaNEP" horiz-adv-x="1122" 
d="M907 220q0 40 -27 66t-69 26t-151 -18t-179 -18q-153 0 -250.5 95t-97.5 270q0 109 35.5 228t98.5 226h-230v155h1037v-155h-564q-87 -104 -133.5 -222.5t-46.5 -233.5q0 -88 46 -136t124 -48q55 0 163.5 14.5t170.5 14.5q117 0 189 -71t72 -178q0 -73 -26.5 -139.5
t-81.5 -140.5l-184 54q104 117 104 211z" />
    <glyph glyph-name="ninedevaNEP" horiz-adv-x="1095" 
d="M1077 235q0 -134 -109 -280l-183 54q104 115 104 211q0 40 -27.5 66t-69 26t-151 -18t-179.5 -18q-154 0 -250.5 94.5t-96.5 270.5q0 154 63 314t170 284l26 5q240 -167 381 -167q101 0 101 81q0 53 -33 113l169 32q45 -99 45 -187t-61 -151.5t-181 -63.5
q-170 0 -364 112q-118 -178 -118 -374q0 -88 45.5 -136t123.5 -48q54 0 162.5 14.5t170.5 14.5q118 0 190 -69.5t72 -179.5z" />
    <glyph glyph-name="kaprehalfdeva" horiz-adv-x="1239" 
d="M925 0h-206v307q-107 -74 -245 -74q-166 0 -274.5 109.5t-108.5 264.5q0 134 88.5 220.5t249 87t290.5 -58.5v280h-749v147h1299v-147h-344v-407q100 52 217 52q215 0 382 -139l-50 -147q-84 62 -152 88t-150 26q-146 0 -247 -116v-493zM454 396q152 0 265 132v169
q-118 56 -231 56t-165.5 -48t-52.5 -126.5t51 -130.5t133 -52z" />
    <glyph glyph-name="khaprehalfdeva" horiz-adv-x="1326" 
d="M1020.5 562q48.5 -43 127.5 -43t138 49t59 109t-58.5 101.5t-141.5 41.5t-128 -41.5t-45 -107.5t48.5 -109zM1422.5 90q-164.5 -73 -377 -73t-398.5 75t-320 209q-70 70 -136 164.5t-101 166.5t-35 107.5t25 61.5t61.5 26t63.5 -18.5t57 -61.5l31 -51q88 41 121.5 105.5
t33.5 169.5v165h-478v147h1386v-147h-701v-180q0 -75 -11.5 -134.5t-40.5 -118.5q-59 -119 -224 -197q41 -52 89 -101q111 -110 260.5 -169.5t316.5 -59.5q343 0 577 249l107 -127q-142 -135 -306.5 -208zM1392 458q-99 -86 -240 -86t-241 92.5t-100 227.5q0 116 78.5 193.5
t224.5 78.5q89 0 162 -25.5t119 -68.5q96 -88 96 -207t-99 -205z" />
    <glyph glyph-name="gaprehalfdeva" horiz-adv-x="717" 
d="M422 356q-59 0 -132.5 48.5t-123.5 112.5t-50 108q0 71 84 71h98v440h-328v147h777v-147h-242v-685q0 -95 -83 -95z" />
    <glyph glyph-name="ghaprehalfdeva" horiz-adv-x="928" 
d="M692 174q-180 0 -290.5 103.5t-110.5 252.5q0 112 65 196q-126 47 -190.5 133t-64.5 193q0 45 10 84h-141v147h988v-147h-631q-20 -43 -20 -105t53 -116t159 -77q81 27 181 27h38l31 -166h-14q-140 0 -206.5 -55t-66.5 -129t51.5 -118t134.5 -44q234 0 438 254l98 -157
q-126 -145 -242.5 -210.5t-269.5 -65.5z" />
    <glyph glyph-name="ngaprehalfdeva" horiz-adv-x="1353" 
d="M365 -197l72 152l531 -252l-71 -152zM640 14q-259 0 -525 136l46 162q235 -136 453 -136q124 0 189 45.5t65 117.5q0 57 -47.5 91.5t-132.5 34.5q-135 0 -254 -72h-15q-271 127 -271 328q0 97 74.5 163t218.5 66h299v186h-770v147h1413v-147h-436v-335h-472
q-67 0 -101.5 -30.5t-34.5 -78.5q0 -73 79 -119q123 55 270 55q175 0 273.5 -82t98.5 -217t-105 -225t-315 -90zM1069 695q0 51 30 84.5t92 33.5t92 -33t30 -84.5t-31 -84.5t-92 -33t-91 33t-30 84z" />
    <glyph glyph-name="caprehalfdeva" horiz-adv-x="939" 
d="M720 183q-188 0 -302 102t-114 255q0 107 58 187h-290v169h718v-169h-90q-100 -10 -153 -66t-53 -133.5t57 -125t149 -47.5q246 0 427 259l108 -147q-112 -142 -235.5 -213t-279.5 -71zM969 1136h-999v147h999v-147z" />
    <glyph glyph-name="chaprehalfdeva" horiz-adv-x="1569" 
d="M1069 780.5q-33 -41.5 -33 -108t42 -127.5t138 -122q73 107 73 205.5t-35 146t-93.5 47.5t-91.5 -41.5zM1046 60.5q-137 -55.5 -280.5 -55.5t-246 35t-165.5 94q-128 121 -128 290q0 136 97 234q-111 55 -164 136t-53 174t62 168h-198v147h1629v-147h-1166
q-126 -64 -126 -189.5t175 -190.5q82 29 184 30h10l52 -168h-10q-147 -3 -216.5 -64t-69.5 -154.5t82 -158t222 -64.5q211 0 373 130q-257 174 -257 405q0 113 79.5 195.5t218.5 82.5t228 -98.5t89 -264.5q0 -112 -51.5 -222.5t-142 -199.5t-227.5 -144.5z" />
    <glyph glyph-name="japrehalfdeva" horiz-adv-x="1112" 
d="M612 79q-320 0 -563 409l105 141q224 -365 435 -365q83 0 130 43t47 119q0 92 -79 169t-217 112v152h898l-26 -173h-524q136 -116 136 -287q0 -136 -92.5 -228t-249.5 -92zM1142 1136h-1172v147h1172v-147z" />
    <glyph glyph-name="jhaprehalfdeva" horiz-adv-x="1106" 
d="M120 184q0 49 37.5 85t94.5 36q102 0 217 -114q140 8 215 58t75 112q0 50 -39.5 79t-114.5 29q-103 0 -232 -73h-12q-268 124 -268 322q0 102 76 167t229 65h245v186h-673v147h1166v-147h-286v-335h-430q-68 0 -104 -31.5t-36 -78.5q0 -70 77 -117q130 55 258 55
q198 0 284 -118q63 -7 129 -7t154 29t157 81l71 -171q-160 -104 -348 -104q-61 0 -115 6q-6 -110 -98 -193t-249 -109l188 -202l-132 -91l-255 279q-144 5 -212.5 50t-68.5 105z" />
    <glyph glyph-name="jhaprehalfdevaNEP" horiz-adv-x="1504" 
d="M1226 0h-207v494h-392v-99q0 -88 -73 -88q-37 0 -86.5 25.5t-94.5 70t-74 96.5t-29 90t21.5 58.5t63.5 20.5h74v108q-219 9 -332 98.5t-113 231.5q0 101 72.5 175t208.5 74q165 0 263.5 -101t98.5 -262v-324h392v468h-142v147h657v-147h-308v-387q88 35 183 35
q211 0 379 -139l-47 -146q-85 62 -152.5 88t-148.5 26q-121 0 -214 -81v-532zM168 1083q0 -145 261 -153v87q0 78 -41.5 126.5t-100.5 48.5t-89 -33t-30 -76z" />
    <glyph glyph-name="nyaprehalfdeva" horiz-adv-x="1134" 
d="M822.5 247q-95.5 -77 -236.5 -77t-272.5 63.5t-274.5 204.5l76 154q129 -133 229.5 -187.5t201.5 -54.5t162.5 57.5t61 148t-64 148t-157.5 57.5q-120 0 -224 -84l-85 155q61 45 140.5 74.5t161.5 29.5q150 0 260.5 -83.5t139.5 -221.5q58 -9 121 -9q152 0 299 79
l41 -187q-140 -68 -297 -68q-89 0 -162 12q-25 -134 -120.5 -211zM1164 1136h-1194v147h1194v-147z" />
    <glyph glyph-name="ttaprehalfdeva" horiz-adv-x="1162" 
d="M437 -184l72 152l531 -252l-71 -152zM849.5 71q-81.5 -15 -195.5 -15t-218.5 36t-173.5 97.5t-107 144.5t-38 177q0 175 117 280t335 105h157v240h-756v147h1222v-147h-260v-399h-298q-161 0 -237 -70t-76 -183.5t86 -183t239.5 -69.5t333.5 69l43 -179
q-92 -35 -173.5 -50z" />
    <glyph glyph-name="tthaprehalfdeva" horiz-adv-x="1280" 
d="M434 -180l72 152l531 -252l-71 -152zM397 293.5q91 -77.5 253 -77.5t253.5 77t91.5 197q0 146 -123 248h-229q-172 0 -254.5 -68.5t-82.5 -183.5t91 -192.5zM668 40q-255 0 -407.5 136.5t-152.5 338.5q0 172 123 276.5t334 104.5h274v240h-869v147h1340v-147h-265v-331
q61 -68 98.5 -156t38.5 -178t-31.5 -166.5t-94.5 -136t-162.5 -94t-225.5 -34.5z" />
    <glyph glyph-name="ddaprehalfdeva" horiz-adv-x="1187" 
d="M382 -209l72 152l531 -252l-71 -152zM640 14q-259 0 -525 136l46 162q235 -136 453 -136q124 0 189 45.5t65 117.5q0 57 -47.5 91.5t-132.5 34.5q-135 0 -254 -72h-15q-271 127 -271 328q0 97 74.5 163t218.5 66h299v186h-770v147h1247v-147h-270v-335h-472
q-67 0 -101.5 -30.5t-34.5 -78.5q0 -73 79 -119q123 55 270 55q175 0 273.5 -82t98.5 -217t-105 -225t-315 -90z" />
    <glyph glyph-name="ddhaprehalfdeva" horiz-adv-x="1201" 
d="M447 -197l72 152l531 -252l-71 -152zM704 165q128 0 197 41.5t69 101.5q0 46 -35 74t-102.5 28t-111.5 -42t-44 -98.5t23 -104.5h4zM725 27q-134 0 -251 39.5t-197 106t-126 154t-46 176t27.5 157t82 122.5t144.5 84t207 30h184v240h-780v147h1261v-147h-274v-395h-321
q-178 0 -259 -73t-81 -193q0 -86 60 -161t162 -115q-13 43 -13 98q0 107 81.5 180.5t227.5 73.5t234 -73t88 -179q0 -120 -105 -196t-306 -76z" />
    <glyph glyph-name="nnaprehalfdeva" horiz-adv-x="1008" 
d="M389 554q43 -48 122.5 -48t125 55.5t45.5 160.5v414h-336v-446q0 -88 43 -136zM797.5 449q-91.5 -108 -274.5 -108t-283 108.5t-100 289.5v397h-170v147h1068v-147h-149v-394q0 -185 -91.5 -293z" />
    <glyph glyph-name="taprehalfdeva" horiz-adv-x="672" 
d="M524 851h420l-5 -176h-359q-266 0 -266 -221q0 -166 168 -413l-173 -58q-192 289 -192 524q0 153 103.5 248.5t303.5 95.5zM702 1136h-732v147h732v-147z" />
    <glyph glyph-name="thaprehalfdeva" horiz-adv-x="877" 
d="M241 1060q0 -62 64.5 -107.5t201.5 -60.5q20 43 20 91q0 82 -50 135.5t-121 53.5q-55 0 -85 -31t-30 -81zM710 269q-172 0 -329 97.5t-249 268.5l5 20q166 50 260 116q-165 29 -253.5 116.5t-88.5 205.5q0 98 72 167.5t196 69.5q169 0 275 -104.5t106 -262.5
q0 -137 -86.5 -237t-230.5 -159q114 -122 289 -122q112 0 212 51t199 164l86 -156q-186 -235 -463 -235z" />
    <glyph glyph-name="daprehalfdeva" horiz-adv-x="1139" 
d="M616 -336l72 152l531 -252l-71 -152zM647 106q-244 0 -394 119.5t-150 312.5q0 151 105 252q53 51 139 80t197 29h160v237h-734v147h1199v-147h-258v-393h-300q-161 0 -237.5 -65.5t-76.5 -170t88 -173.5t221 -69q32 0 47 1q-25 49 -23.5 92t35.5 69.5t100 26.5
q104 0 183 -42.5t79 -99.5q0 -39 -31.5 -80.5t-91.5 -72.5l152 -302l-158 -66l-160 320q-47 -5 -91 -5z" />
    <glyph glyph-name="dhaprehalfdeva" horiz-adv-x="899" 
d="M214.5 1166q-42.5 -45 -42.5 -105t34 -106q108 6 165 50t57 108q0 44 -28.5 71t-85.5 27t-99.5 -45zM686 174q-180 0 -290 104t-110 252q0 97 53 172q-153 42 -239 128q-103 103 -103 247q0 122 81.5 203t220 81t217 -73.5t78.5 -184.5q0 -87 -60.5 -155.5t-161.5 -97.5
q53 -17 129 -28q84 31 194 31h38l31 -166h-14q-136 0 -204.5 -51t-68.5 -123t51.5 -116t134.5 -44q235 0 434 254l98 -157q-111 -136 -235 -206t-274 -70z" />
    <glyph glyph-name="naprehalfdeva" horiz-adv-x="670" 
d="M364 273.5q-20 -23.5 -58 -23.5t-81.5 43.5t-84 140.5t-40.5 175q0 109 120 109h669v-173h-505v-205q0 -43 -20 -66.5zM700 1136h-730v147h730v-147z" />
    <glyph glyph-name="paprehalfdeva" horiz-adv-x="648" 
d="M556 356q-189 0 -301.5 106t-112.5 302v372h-172v147h708v-147h-329v-413q0 -194 192 -194q174 0 327 108l86 -158q-184 -123 -398 -123z" />
    <glyph glyph-name="phaprehalfdeva" horiz-adv-x="1277" 
d="M965 0h-207v418q-90 -31 -190 -31q-197 0 -309 106.5t-112 306.5v336h-177v147h1337v-147h-342v-405q100 50 215 50q213 0 380 -138l-47 -147q-85 62 -152.5 88t-148.5 26q-147 0 -247 -115v-495zM538 559q117 0 220 70v507h-405v-382q0 -97 48 -146t137 -49z" />
    <glyph glyph-name="baprehalfdeva" horiz-adv-x="688" 
d="M509 387q52 0 97 14l-276 319q-43 -49 -43 -130.5t62 -142t160 -60.5zM523 789q-37 0 -67 -6l267 -310q50 56 50 127t-72 130t-178 59zM477 949q113 0 205.5 -32.5t149.5 -85t87.5 -115.5t30.5 -129q0 -96 -52.5 -179t-149 -134t-204.5 -51t-191.5 33t-138.5 88.5
t-85.5 128t-30.5 151.5q0 143 104 234t275 91zM718 1283v-147h-748v147h748z" />
    <glyph glyph-name="bhaprehalfdeva" horiz-adv-x="906" 
d="M537 307q-37 0 -86.5 25.5t-94.5 70t-74 96.5t-29 90t21.5 58.5t63.5 20.5h74v108q-219 9 -332 98.5t-113 231.5q0 101 72.5 175t208.5 74q165 0 263.5 -101t98.5 -262v-324h510l15 -174h-525v-99q0 -88 -73 -88zM151 1083q0 -145 261 -153v84q0 80 -41 129t-100.5 49
t-89.5 -33t-30 -76z" />
    <glyph glyph-name="maprehalfdeva" horiz-adv-x="732" 
d="M368 307q-38 0 -87.5 25.5t-94 70t-74 97t-29.5 90t21.5 58t64.5 20.5h65v468h-264v147h792v-147h-321v-468h504l26 -174h-530v-99q0 -88 -73 -88z" />
    <glyph glyph-name="yaprehalfdeva" horiz-adv-x="813" 
d="M641 270q-173 0 -329.5 98t-247.5 269l5 21q165 55 230 131t65 196v151h-394v147h873v-147h-272v-165q0 -146 -61 -244.5t-189 -154.5q113 -124 282 -124q235 0 417 212l85 -157q-89 -112 -208 -172.5t-256 -60.5z" />
    <glyph glyph-name="raprehalfdeva" horiz-adv-x="472" 
d="M450 389q-203 0 -422 113l42 162q175 -89 347 -89q80 0 144.5 14t138.5 51l62 -184q-79 -37 -150 -52t-162 -15zM502 1136h-532v147h532v-147z" />
    <glyph glyph-name="rahalantdeva" horiz-adv-x="905" 
d="M182 -147l72 152l531 -252l-71 -152zM95 657q-51 69 -51 109t25 65.5t65 25.5q54 0 94 -55l105 -145q99 36 143.5 104.5t44.5 176.5v198h-551v147h965v-147h-207v-231q0 -143 -68.5 -253t-216.5 -165l305 -415l-148 -100z" />
    <glyph glyph-name="laprehalfdeva" horiz-adv-x="1031" 
d="M170.5 266.5q-73.5 129.5 -73.5 277t103.5 250t273.5 102.5q140 0 254.5 -60.5t227.5 -186.5l274 175l56 -178l-592 -378l-118 138l225 144q-77 86 -146.5 123.5t-154.5 37.5t-143 -61t-58 -153t55 -181.5t193 -216.5l-158 -95q-145 133 -218.5 262.5zM1061 1136h-1091
v147h1091v-147z" />
    <glyph glyph-name="llaprehalfdeva" horiz-adv-x="1677" 
d="M343 330.5q53 -56.5 137.5 -56.5t151 66.5t125.5 211.5q21 50 40 88q-134 95 -268 95q-111 0 -175 -68t-64 -174t53 -162.5zM1171 276q109 0 173.5 65.5t64.5 183.5q0 97 -53.5 155.5t-135.5 58.5t-154.5 -61.5t-119.5 -183.5q-28 -69 -50 -110q136 -108 275 -108z
M1197 100q-106 0 -199 36.5t-189 112.5q-126 -149 -309.5 -149t-291.5 112t-108 292t109 294t288 114q213 0 389 -140q128 145 315.5 145t289 -114.5t101.5 -299.5t-109 -294t-286 -109zM1707 1283v-147h-1737v147h1737z" />
    <glyph glyph-name="vaprehalfdeva" horiz-adv-x="688" 
d="M351.5 449.5q61.5 -60.5 165 -60.5t179 62.5t75.5 140.5t-72 136.5t-180 58.5t-168.5 -51.5t-60.5 -138.5t61.5 -147.5zM480 947q89 0 166.5 -21t132 -56t93.5 -82q78 -91 78 -193.5t-52.5 -185.5t-150 -134.5t-206 -51.5t-191 33t-137 89t-85 128t-30.5 150
q0 142 103 233t279 91zM718 1283v-147h-748v147h748z" />
    <glyph glyph-name="shaprehalfdeva" horiz-adv-x="950" 
d="M386 326q-70 -18 -138.5 -18t-99 37.5t-30.5 105.5t51 130.5t112 62.5q44 0 80.5 -22.5t86.5 -80.5q149 61 220 188q-250 7 -385 105.5t-135 245.5q0 103 78 178t216 75q188 0 316.5 -123.5t128.5 -318.5q0 -156 -91.5 -287.5t-236.5 -210.5l272 -299l-127 -113zM713 906
q0 110 -76 185t-173 75q-63 0 -97 -32t-32 -79q2 -72 93 -125.5t283 -58.5q2 24 2 35z" />
    <glyph glyph-name="shaprehalfdevaMAR" horiz-adv-x="934" 
d="M422 214q-73 -17 -138.5 -17t-97.5 36.5t-32 102.5t42 121.5t104 55.5q40 0 77.5 -22t84.5 -72q98 37 150.5 99.5t52.5 135.5t-56.5 118.5t-146.5 45.5q-156 0 -304 -96l-62 166q156 80 314 92v156h-440v147h994v-147h-347v-173q117 -33 181.5 -116.5t64.5 -197
t-73.5 -208.5t-191.5 -159l236 -226l-129 -116z" />
    <glyph glyph-name="ssaprehalfdeva" horiz-adv-x="648" 
d="M393 576.5q51 -48.5 140.5 -48.5t175.5 28l-367 446v-279q0 -98 51 -146.5zM556 356q-189 0 -301.5 106t-112.5 302v372h-172v147h708v-147h-269l429 -519q10 6 30 20l87 -156q-185 -125 -399 -125z" />
    <glyph glyph-name="saprehalfdeva" horiz-adv-x="932" 
d="M94 657q-50 67 -50 108.5t24.5 66.5t65.5 25q53 0 95 -55l92 -126q150 73 150 266v194h-501v147h992v-147h-284v-227q0 -128 -55 -226q141 -56 305 -56q123 0 233 37l41 -174q-119 -38 -254 -38q-227 0 -445 101q-29 -22 -76 -45l321 -436l-149 -100z" />
    <glyph glyph-name="haprehalfdeva" horiz-adv-x="881" 
d="M204 229q0 113 67 204q-179 111 -179 274q0 97 74.5 163t210.5 66h151v200h-558v147h941v-147h-176v-351h-294q-75 0 -112 -31.5t-37 -80.5q0 -84 112 -131q112 56 270 56h458l15 -161h-462q-72 0 -127.5 -21t-87.5 -56q-64 -68 -64 -157q0 -64 27.5 -114.5t90.5 -94.5
q128 -87 446 -123l-54 -153q-356 34 -534 167t-178 344z" />
    <glyph glyph-name="kassaprehalfdeva" horiz-adv-x="979" 
d="M502 61q-179 0 -292 92t-113 233q0 98 61.5 182t192.5 166q-85 68 -130 150t-45 166q0 112 81 188t228.5 76t234 -82t86.5 -204q0 -152 -150 -282q182 -64 424 -64q48 0 121 12l4 -159q-48 -13 -98 -13q-352 0 -599 116q-125 -81 -174 -142t-49 -128t52.5 -110t143.5 -43
q16 0 23 1q-13 34 -13 72t34 64.5t91 26.5q94 0 163.5 -38.5t69.5 -94.5q0 -36 -29.5 -71.5t-82.5 -63.5l96 -209l-158 -54l-95 218q-42 -5 -78 -5zM396 1115q-37 -37 -37 -91q0 -107 135 -199q75 55 107.5 102.5t32.5 100t-39.5 88.5t-100.5 36t-98 -37z" />
    <glyph glyph-name="janyaprehalfdeva" horiz-adv-x="1012" 
d="M128 184q0 49 38 85t92.5 36t105.5 -26t113 -88q135 8 208.5 58t73.5 112q0 51 -38.5 79.5t-112.5 28.5q-97 0 -226 -73h-12q-268 125 -268 322q0 101 75.5 166.5t229.5 65.5h868l-19 -149h-827q-68 0 -104 -31t-36 -79q0 -71 78 -117q127 55 255 55q151 0 238 -75
t87 -190.5t-90.5 -203.5t-247.5 -117l188 -202l-132 -91l-255 279q-144 5 -213 50t-69 105zM1042 1136h-1072v147h1072v-147z" />
    <glyph glyph-name="kanuktaprehalfdeva" horiz-adv-x="1239" 
d="M59 0q0 48 30.5 80.5t85.5 32.5t85 -32.5t30 -80.5t-30.5 -81t-84.5 -33t-85 33t-31 81zM925 0h-206v307q-107 -74 -245 -74q-166 0 -274.5 109.5t-108.5 264.5q0 134 88.5 220.5t249 87t290.5 -58.5v280h-749v147h1299v-147h-344v-407q100 52 217 52q215 0 382 -139
l-50 -147q-84 62 -152 88t-150 26q-146 0 -247 -116v-493zM454 396q152 0 265 132v169q-118 56 -231 56t-165.5 -48t-52.5 -126.5t51 -130.5t133 -52z" />
    <glyph glyph-name="khanuktaprehalfdeva" horiz-adv-x="1326" 
d="M73 0q0 48 30.5 80.5t85.5 32.5t85 -32.5t30 -80.5t-30.5 -81t-84.5 -33t-85 33t-31 81zM1020.5 562q48.5 -43 127.5 -43t138 49t59 109t-58.5 101.5t-141.5 41.5t-128 -41.5t-45 -107.5t48.5 -109zM1422.5 90q-164.5 -73 -377 -73t-398.5 75t-320 209q-70 70 -136 164.5
t-101 166.5t-35 107.5t25 61.5t61.5 26t63.5 -18.5t57 -61.5l31 -51q88 41 121.5 105.5t33.5 169.5v165h-478v147h1386v-147h-701v-180q0 -75 -11.5 -134.5t-40.5 -118.5q-59 -119 -224 -197q41 -52 89 -101q111 -110 260.5 -169.5t316.5 -59.5q343 0 577 249l107 -127
q-142 -135 -306.5 -208zM1392 458q-99 -86 -240 -86t-241 92.5t-100 227.5q0 116 78.5 193.5t224.5 78.5q89 0 162 -25.5t119 -68.5q96 -88 96 -207t-99 -205z" />
    <glyph glyph-name="ganuktaprehalfdeva" horiz-adv-x="717" 
d="M236 0q0 48 30.5 80.5t85.5 32.5t85 -32.5t30 -80.5t-30.5 -81t-84.5 -33t-85 33t-31 81zM422 356q-59 0 -132.5 48.5t-123.5 112.5t-50 108q0 71 84 71h98v440h-328v147h777v-147h-242v-685q0 -95 -83 -95z" />
    <glyph glyph-name="januktaprehalfdeva" horiz-adv-x="1112" 
d="M26 2q0 48 30.5 80.5t85.5 32.5t85 -32.5t30 -80.5t-30.5 -81t-84.5 -33t-85 33t-31 81zM612 79q-320 0 -563 409l105 141q224 -365 435 -365q83 0 130 43t47 119q0 92 -79 169t-217 112v152h898l-26 -173h-524q136 -116 136 -287q0 -136 -92.5 -228t-249.5 -92z
M1142 1136h-1172v147h1172v-147z" />
    <glyph glyph-name="ddanuktaprehalfdeva" horiz-adv-x="1187" 
d="M382 -209l72 152l531 -252l-71 -152zM60 -120q0 48 30.5 80.5t85.5 32.5t85 -32.5t30 -80.5t-30.5 -81t-84.5 -33t-85 33t-31 81zM640 14q-259 0 -525 136l46 162q235 -136 453 -136q124 0 189 45.5t65 117.5q0 57 -47.5 91.5t-132.5 34.5q-135 0 -254 -72h-15
q-271 127 -271 328q0 97 74.5 163t218.5 66h299v186h-770v147h1247v-147h-270v-335h-472q-67 0 -101.5 -30.5t-34.5 -78.5q0 -73 79 -119q123 55 270 55q175 0 273.5 -82t98.5 -217t-105 -225t-315 -90z" />
    <glyph glyph-name="ddhanuktaprehalfdeva" horiz-adv-x="1201" 
d="M447 -197l72 152l531 -252l-71 -152zM85 -74q0 48 30.5 80.5t85.5 32.5t85 -32.5t30 -80.5t-30.5 -81t-84.5 -33t-85 33t-31 81zM704 165q128 0 197 41.5t69 101.5q0 46 -35 74t-102.5 28t-111.5 -42t-44 -98.5t23 -104.5h4zM725 27q-134 0 -251 39.5t-197 106t-126 154
t-46 176t27.5 157t82 122.5t144.5 84t207 30h184v240h-780v147h1261v-147h-274v-395h-321q-178 0 -259 -73t-81 -193q0 -86 60 -161t162 -115q-13 43 -13 98q0 107 81.5 180.5t227.5 73.5t234 -73t88 -179q0 -120 -105 -196t-306 -76z" />
    <glyph glyph-name="nanuktaprehalfdeva" horiz-adv-x="670" 
d="M154 -48q0 48 30.5 80.5t85.5 32.5t85 -32.5t30 -80.5t-30.5 -81t-84.5 -33t-85 33t-31 81zM364 273.5q-20 -23.5 -58 -23.5t-81.5 43.5t-84 140.5t-40.5 175q0 109 120 109h669v-173h-505v-205q0 -43 -20 -66.5zM700 1136h-730v147h730v-147z" />
    <glyph glyph-name="phanuktaprehalfdeva" horiz-adv-x="1275" 
d="M152 77q0 48 30.5 80.5t85.5 32.5t85 -32.5t30 -80.5t-30.5 -81t-84.5 -33t-85 33t-31 81zM965 0h-207v418q-90 -31 -190 -31q-197 0 -309 106.5t-112 306.5v336h-177v147h1337v-147h-342v-405q100 50 215 50q213 0 380 -138l-47 -147q-85 62 -152.5 88t-148.5 26
q-147 0 -247 -115v-495zM538 559q117 0 220 70v507h-405v-382q0 -97 48 -146t137 -49z" />
    <glyph glyph-name="yanuktaprehalfdeva" horiz-adv-x="813" 
d="M109 75q0 48 30.5 80.5t85.5 32.5t85 -32.5t30 -80.5t-30.5 -81t-84.5 -33t-85 33t-31 81zM641 270q-173 0 -329.5 98t-247.5 269l5 21q165 55 230 131t65 196v151h-394v147h873v-147h-272v-165q0 -146 -61 -244.5t-189 -154.5q113 -124 282 -124q235 0 417 212l85 -157
q-89 -112 -208 -172.5t-256 -60.5z" />
    <glyph glyph-name="ranuktaprehalfdeva" horiz-adv-x="472" 
d="M61 49q0 48 30.5 80.5t85.5 32.5t85 -32.5t30 -80.5t-30.5 -81t-84.5 -33t-85 33t-31 81zM450 389q-203 0 -422 113l42 162q175 -89 347 -89q80 0 144.5 14t138.5 51l62 -184q-79 -37 -150 -52t-162 -15zM502 1136h-532v147h532v-147z" />
    <glyph glyph-name="llanuktaprehalfdeva" horiz-adv-x="1677" 
d="M160 -112q0 48 30.5 80.5t85.5 32.5t85 -32.5t30 -80.5t-30.5 -81t-84.5 -33t-85 33t-31 81zM343 330.5q53 -56.5 137.5 -56.5t151 66.5t125.5 211.5q21 50 40 88q-134 95 -268 95q-111 0 -175 -68t-64 -174t53 -162.5zM1171 276q109 0 173.5 65.5t64.5 183.5
q0 97 -53.5 155.5t-135.5 58.5t-154.5 -61.5t-119.5 -183.5q-28 -69 -50 -110q136 -108 275 -108zM1197 100q-106 0 -199 36.5t-189 112.5q-126 -149 -309.5 -149t-291.5 112t-108 292t109 294t288 114q213 0 389 -140q128 145 315.5 145t289 -114.5t101.5 -299.5t-109 -294
t-286 -109zM1707 1283v-147h-1737v147h1737z" />
    <glyph glyph-name="karadeva" horiz-adv-x="1631" 
d="M719 0v298l-490 -357l-110 142l236 167q-119 36 -191.5 134.5t-72.5 227.5t88.5 215.5t249 87t290.5 -58.5v280h-749v147h1691v-147h-736v-337q97 43 204 43q165 0 271 -95.5t106 -243.5q0 -187 -131 -352l-175 64q119 157 119 294q0 72 -45 115.5t-125 43.5
q-122 0 -224 -100v-568h-206zM454 396q152 0 265 132v169q-118 56 -231 56t-165.5 -48t-52.5 -126.5t51 -130.5t133 -52z" />
    <glyph glyph-name="kharadeva" horiz-adv-x="1802" 
d="M1369 0v261l-729 -438l-104 141l200 120q-253 72 -425 244q-142 142 -226 312q-30 62 -30 98.5t24.5 62.5t61 26t63.5 -18t58 -62l31 -51q87 41 121 105t34 170v165h-478v147h1862v-147h-256v-1136h-207zM1142 522q132 0 227 86v163q-103 46 -216 46q-86 0 -132 -41.5
t-46 -105t47 -106t120 -42.5zM1157 369q-146 0 -247.5 94.5t-101.5 234.5q0 119 82 193t225.5 74t253.5 -44v215h-714v-180q0 -74 -11.5 -133t-40.5 -119q-59 -120 -224 -198q29 -36 72 -79q185 -184 481 -224l280 168q-36 -2 -55 -2z" />
    <glyph glyph-name="garadeva" horiz-adv-x="1338" 
d="M906 0v283l-514 -361l-108 146l622 441v627h-401v-663q0 -96 -83 -96q-59 0 -132.5 48.5t-123.5 112.5t-50 109q0 71 84 71h98v418h-328v147h1398v-147h-255v-1136h-207z" />
    <glyph glyph-name="gharadeva" horiz-adv-x="1408" 
d="M977 0v250l-629 -344l-91 155l263 143q-107 42 -168 129.5t-61 198t65 194.5q-126 47 -190.5 133t-64.5 193q0 45 10 84h-141v147h1468v-147h-254v-1136h-207zM533.5 397q51.5 -44 137 -44t165.5 35.5t141 101.5v646h-650q-20 -43 -20 -105t53 -116t159 -77q81 27 181 27
h38l31 -166h-17q-136 0 -203 -55t-67 -129t51.5 -118z" />
    <glyph glyph-name="ngaradeva" horiz-adv-x="1353" 
d="M614 176q124 0 189 45.5t65 117.5q0 57 -47.5 91.5t-132.5 34.5q-135 0 -254 -72h-15q-271 127 -271 328q0 97 74.5 163t218.5 66h299v186h-770v147h1413v-147h-436v-335h-472q-67 0 -101.5 -30.5t-34.5 -78.5q0 -73 79 -119q123 55 270 55q175 0 273.5 -82t98.5 -205
t-73.5 -207t-221.5 -110l309 -208l-98 -136l-358 243l-358 -244l-106 137l313 213q-175 30 -352 121l46 162q235 -136 453 -136zM1069 695q0 51 30 84.5t92 33.5t92 -33t30 -84.5t-31 -84.5t-92 -33t-91 33t-30 84z" />
    <glyph glyph-name="caradeva" horiz-adv-x="1420" 
d="M988 0v249l-638 -350l-97 158l288 156q-110 40 -173.5 127.5t-63.5 196t59 190.5h-291v169h718v-169h-90q-101 -10 -153.5 -66t-52.5 -133t57 -125.5t144 -48.5t163 34.5t130 95.5v652h-1018v147h1480v-147h-255v-1136h-207z" />
    <glyph glyph-name="charadeva" horiz-adv-x="1569" 
d="M326 163q-100 114 -100 255.5t97 239.5q-111 55 -164 136t-53 174t62 168h-198v147h1629v-147h-255v-213q123 -99 123 -296q0 -95 -38 -191t-105.5 -178t-170.5 -144.5t-224 -89.5l310 -209l-98 -136l-358 243l-358 -244l-106 137l295 201q-188 33 -288 147zM1069 780.5
q-33 -41.5 -33 -108t42 -127.5t138 -122q73 107 73 205.5t-35 146t-93.5 47.5t-91.5 -41.5zM736 177q211 0 373 130q-257 174 -257 405q0 112 78.5 194.5t206.5 83.5v146h-704q-126 -64 -126 -189.5t175 -190.5q82 29 184 30h10l52 -168h-10q-147 -3 -216.5 -64
t-69.5 -154.5t82 -158t222 -64.5z" />
    <glyph glyph-name="jaradeva" horiz-adv-x="1639" 
d="M1206 0v270l-515 -440l-120 127l635 541v225h-388q136 -118 136 -288q0 -132 -94 -226t-247.5 -94t-299 97t-264.5 298l105 141q116 -189 227.5 -270t207.5 -81q79 0 128 45.5t49 116.5q0 92 -79.5 170t-216.5 113v151h736v240h-1236v147h1699v-147h-256v-1136h-207z" />
    <glyph glyph-name="jharadeva" horiz-adv-x="1660" 
d="M120 184q0 49 37.5 85t94.5 36q102 0 216 -114q141 8 216 57.5t75 112.5q0 50 -39.5 79t-114.5 29q-103 0 -232 -73h-12q-268 125 -268 322q0 101 75.5 166.5t229.5 65.5h245v186h-673v147h1720v-147h-256v-1136h-207v149l-264 -277l-134 114l358 369q-54 -9 -115 -9
t-125 8q-2 -112 -93.5 -198t-253.5 -113l188 -202l-132 -91l-255 279q-144 5 -212.5 50t-68.5 105zM1027 511q109 0 200 38v587h-377v-335h-430q-68 0 -104 -31t-36 -79q0 -70 78 -117q129 55 261 55q182 0 270 -106q69 -12 138 -12z" />
    <glyph glyph-name="jharadevaNEP" horiz-adv-x="1937" 
d="M1019 0v293l-502 -377l-111 139l584 439h-363v-99q0 -88 -73 -88q-37 0 -86.5 25.5t-94.5 70t-74 96.5t-29 90t21.5 58.5t63.5 20.5h74v108q-219 9 -332 98.5t-113 231.5q0 101 72.5 175t208.5 74q165 0 263.5 -101t98.5 -262v-324h392v468h-142v147h1090v-147h-741v-387
q100 51 223 51q169 0 272.5 -100.5t103.5 -248.5q0 -91 -32 -185.5t-88 -170.5l-181 62q112 159 112 301q0 73 -45.5 119.5t-122.5 46.5q-132 0 -242 -118v-506h-207zM168 1083q0 -145 261 -153v87q0 78 -41.5 126.5t-100.5 48.5t-89 -33t-30 -76z" />
    <glyph glyph-name="nyaradeva" horiz-adv-x="1716" 
d="M1285 0v222l-501 -347l-105 134l606 426v56q-84 -21 -170 -21t-166 13q-17 -146 -115.5 -231t-244 -85t-276.5 64t-274 207l76 154q129 -133 229.5 -187.5t201.5 -54.5t162 57.5t60.5 148t-64 148.5t-157.5 58q-118 0 -223 -85l-85 155q60 46 140 76t161 30
q143 0 251 -76.5t145 -204.5q60 -10 127 -10q112 0 222 40v449h-1315v147h1776v-147h-255v-1136h-206z" />
    <glyph glyph-name="ttaradeva" horiz-adv-x="1162" 
d="M226 225.5q-109 121.5 -109 291t117 274.5t335 105h157v240h-756v147h1222v-147h-260v-399h-298q-161 0 -237 -70t-76 -183.5t86 -183t239.5 -69.5t333.5 69l43 -179q-137 -52 -269 -62l340 -229l-98 -136l-358 243l-358 -244l-106 137l350 239q-189 35 -298 156.5z" />
    <glyph glyph-name="ttharadeva" horiz-adv-x="1280" 
d="M222 214q-114 128 -114 300.5t123 277t334 104.5h274v240h-869v147h1340v-147h-265v-331q61 -68 98.5 -156t38.5 -181q2 -154 -97 -269t-284 -148l328 -221l-98 -136l-358 243l-358 -244l-106 137l325 221q-198 35 -312 163zM397 293.5q91 -77.5 253 -77.5t253.5 77
t91.5 197q0 146 -123 248h-229q-172 0 -254.5 -68.5t-82.5 -183.5t91 -192.5z" />
    <glyph glyph-name="ddaradeva" horiz-adv-x="1187" 
d="M614 176q124 0 189 45.5t65 117.5q0 57 -47.5 91.5t-132.5 34.5q-135 0 -254 -72h-15q-271 127 -271 328q0 97 74.5 163t218.5 66h299v186h-770v147h1247v-147h-270v-335h-472q-67 0 -101.5 -30.5t-34.5 -78.5q0 -73 79 -119q123 55 270 55q175 0 273.5 -82t98.5 -205
t-73.5 -207t-221.5 -110l309 -208l-98 -136l-358 243l-358 -244l-106 137l313 213q-175 30 -352 121l46 162q235 -136 453 -136z" />
    <glyph glyph-name="ddharadeva" horiz-adv-x="1201" 
d="M214 782q55 54 145 84t207 30h184v240h-780v147h1261v-147h-274v-395h-321q-178 0 -259 -73t-81 -193q0 -86 60 -161t162 -115q-13 43 -13 98q0 107 81.5 180.5t227.5 73.5t234 -73t88 -179.5t-83 -179t-244 -88.5l303 -204l-98 -136l-358 243l-358 -244l-106 137
l331 225q-189 49 -303.5 176t-114.5 286.5t109 267.5zM704 165q128 0 197 41.5t69 101.5q0 46 -35 74t-102.5 28t-111.5 -42t-44 -98.5t23 -104.5h4z" />
    <glyph glyph-name="nnaradeva" horiz-adv-x="1616" 
d="M1184 0v305l-507 -381l-115 142l622 468v602h-295v-394q0 -184 -91.5 -292.5t-274.5 -108.5t-283 109t-100 289v397h-170v147h1676v-147h-255v-1136h-207zM389 553.5q43 -47.5 123 -47.5t125 55.5t45 160.5v414h-336v-445q0 -90 43 -137.5z" />
    <glyph glyph-name="taradeva" horiz-adv-x="1159" 
d="M727 0v374l-468 -238l-93 164l532 264l-82 55q-166 112 -296 112q-84 0 -204 -59l-54 182q125 59 236 59q169 0 354 -122l75 -50v395h-757v147h1219v-147h-251v-1136h-211z" />
    <glyph glyph-name="tharadeva" horiz-adv-x="1375" 
d="M944 0v324l-611 -410l-109 148l340 226q-132 34 -246 124t-186 223l5 20q166 50 260 116q-165 29 -253.5 116.5t-88.5 205.5q0 98 72 167.5t196 69.5q169 0 275 -104.5t106 -262.5q0 -137 -85.5 -236.5t-229.5 -158.5q113 -121 269 -121q176 0 286 122v567h-101v147h562
v-147h-255v-1136h-206zM241 1060q0 -62 64.5 -107.5t201.5 -60.5q20 43 20 91q0 82 -50 135.5t-121 53.5q-55 0 -85 -31t-30 -81z" />
    <glyph glyph-name="daradeva" horiz-adv-x="1139" 
d="M208 790q53 51 139 80t197 29h160v237h-734v147h1199v-147h-258v-393h-300q-161 0 -237.5 -65.5t-76.5 -170t88 -173.5t221 -69q32 0 47 1q-25 49 -23.5 92t35.5 69.5t100 26.5q104 0 183 -42.5t79 -99.5q0 -39 -31.5 -80.5t-91.5 -72.5l152 -302l-158 -66l-153 306
l-526 -300l-95 150l328 183q-162 42 -255.5 150t-93.5 258.5t105 251.5z" />
    <glyph glyph-name="dharadeva" horiz-adv-x="1403" 
d="M972 0v249l-631 -343l-91 155l264 144q-107 42 -167.5 129.5t-60.5 190t53 177.5q-152 41 -239 128q-103 103 -103 247q0 122 81.5 203t220 81t217 -73.5t78.5 -184.5q0 -87 -60.5 -155.5t-161.5 -97.5q55 -17 129 -28q84 31 195 31h37l31 -166h-18q-134 0 -201.5 -51
t-67.5 -123t52 -116t135 -44q182 0 308 137v646h-143v147h604v-147h-254v-1136h-207zM214.5 1166q-42.5 -45 -42.5 -105t34 -106q108 6 165 50t57 108q0 44 -28.5 71t-85.5 27t-99.5 -45z" />
    <glyph glyph-name="naradeva" horiz-adv-x="1250" 
d="M818 0v282l-494 -365l-109 139l603 449v130h-427v-192q0 -43 -21.5 -66.5t-58.5 -23.5t-79 42t-83.5 138t-41.5 169q0 105 119 105h592v329h-848v147h1310v-147h-255v-1136h-207z" />
    <glyph glyph-name="paradeva" horiz-adv-x="1197" 
d="M765 0v360l-495 -414l-117 136l337 278q-162 19 -255 122.5t-93 281.5v372h-172v147h1257v-147h-255v-1136h-207zM533 529q130 0 232 79v528h-416v-413q0 -194 184 -194z" />
    <glyph glyph-name="pharadeva" horiz-adv-x="1672" 
d="M758 0v372l-509 -426l-116 136l373 308q-169 16 -264 121t-95 289v336h-177v147h1732v-147h-737v-388q98 49 219 49q169 0 273 -100.5t104 -248.5q0 -91 -32.5 -185.5t-88.5 -170.5l-181 63q112 157 112 300q0 73 -45.5 119.5t-122.5 46.5q-131 0 -238 -113v-508h-207z
M538 559q116 0 220 70v507h-405v-382q0 -97 48 -146t137 -49z" />
    <glyph glyph-name="baradeva" horiz-adv-x="1212" 
d="M780 0v274l-556 -341l-103 141l272 167q-135 40 -215 146t-80 243.5t103.5 229.5t272.5 92t306 -46v230h-810v147h1272v-147h-255v-1136h-207zM515 385q59 0 111 15l-287 333q-56 -53 -56 -141.5t63 -147.5t169 -59zM529 793q-36 0 -61 -4l283 -324q20 16 29 26v252
q-137 50 -251 50z" />
    <glyph glyph-name="bharadeva" horiz-adv-x="1451" 
d="M1019 0v282l-488 -366l-110 139l584 439h-378v-99q0 -88 -73 -88q-37 0 -86.5 25.5t-94.5 70t-74 96.5t-29 90t21.5 58.5t63.5 20.5h74v108q-219 9 -332 98.5t-113 231.5q0 101 72.5 175t208.5 74q165 0 263.5 -101t98.5 -262v-324h392v468h-142v147h604v-147h-255v-1136
h-207zM168 1083q0 -145 261 -153v87q0 78 -41.5 126.5t-100.5 48.5t-89 -33t-30 -76z" />
    <glyph glyph-name="maradeva" horiz-adv-x="1293" 
d="M862 0v277l-481 -361l-110 139l583 439h-413v-99q0 -88 -73 -88q-38 0 -87.5 25.5t-94 70t-74 97t-29.5 90t21.5 58t64.5 20.5h65v468h-264v147h1353v-147h-255v-1136h-206zM862 1136h-421v-468h421v468z" />
    <glyph glyph-name="yaradeva" horiz-adv-x="1308" 
d="M876 0v327l-620 -410l-108 148l342 224q-131 35 -243 124.5t-183 223.5l5 21q164 55 229.5 131t65.5 196v151h-394v147h1368v-147h-255v-1136h-207zM591 450q175 0 285 119v567h-305v-166q0 -146 -61 -244t-189 -154q113 -122 270 -122z" />
    <glyph glyph-name="raradeva" horiz-adv-x="905" 
d="M834 -388l-358 243l-358 -244l-106 137l407 277h102l411 -277zM95 657q-51 69 -51 109t25 65.5t65 25.5q54 0 94 -55l105 -145q99 36 143.5 104.5t44.5 176.5v198h-551v147h965v-147h-207v-231q0 -143 -68.5 -253t-216.5 -165l305 -415l-148 -100z" />
    <glyph glyph-name="laradeva" horiz-adv-x="1583" 
d="M1151 0v195l-467 -320l-98 137l565 394v236l-428 -359l-129 128l191 166q-130 138 -281 138q-95 0 -153.5 -60t-58.5 -153t55.5 -185t196.5 -217l-158 -97q-292 256 -292 535q0 155 105 258t272 103q252 0 450 -204l230 199v242h-1181v147h1642v-147h-254v-1136h-207z
" />
    <glyph glyph-name="laradevaMAR" horiz-adv-x="1568" 
d="M1177 -344l-358 243l-358 -244l-106 137l407 277h102l411 -277zM95 538q0 155 103 258t268 103q193 0 358 -125q115 115 276 115q24 0 36 -1v248h-1166v147h1628v-147h-255v-324q64 -49 99 -124.5t35 -164.5q0 -268 -265 -495l-162 97q237 212 237 412q0 77 -45.5 124
t-120.5 47q-100 0 -179 -100t-114 -293l-186 60q26 143 80 253q-107 87 -220 87q-95 0 -152 -60t-57 -151.5t57 -184t195 -219.5l-158 -95q-292 268 -292 533z" />
    <glyph glyph-name="llaradeva" horiz-adv-x="1677" 
d="M1507 -344l-358 243l-358 -244l-106 137l407 277h102l411 -277zM343 330.5q53 -56.5 137.5 -56.5t151 66.5t125.5 211.5q21 50 40 88q-134 95 -268 95q-111 0 -175 -68t-64 -174t53 -162.5zM1171 276q109 0 173.5 65.5t64.5 173.5t-51.5 166t-135.5 58t-156.5 -61.5
t-119.5 -183.5q-28 -69 -50 -110q136 -108 275 -108zM1197 100q-106 0 -199 36.5t-189 112.5q-126 -149 -309.5 -149t-291.5 112t-108 292t109 294t288 114q213 0 389 -140q128 145 321 145q26 0 39 -1v220h-1276v147h1737v-147h-255v-297q69 -55 104.5 -142.5t35.5 -196.5
q0 -182 -109 -291t-286 -109z" />
    <glyph glyph-name="varadeva" horiz-adv-x="1211" 
d="M780 0v278l-561 -345l-103 141l275 169q-135 40 -214 144.5t-79 242.5t104 229t272 91t306 -45v231h-810v147h1271v-147h-255v-1136h-206zM514 390q148 0 266 112v236q-134 49 -249.5 49t-178.5 -54.5t-63 -140.5t61.5 -144t163.5 -58z" />
    <glyph glyph-name="sharadeva" horiz-adv-x="1501" 
d="M613.5 931.5q26.5 42.5 26.5 94t-38 88.5t-101 37t-99.5 -37.5t-36.5 -95.5t44.5 -102.5t114.5 -74.5q63 48 89.5 90.5zM369 742q-184 125 -184 299q0 113 83 192.5t226 79.5t234 -86t91 -210.5t-100 -234.5q148 -31 352 -50v404h-149v147h609v-147h-253v-1136h-207v435
l-571 -387l-106 152l570 382q-238 22 -398 71q-42 -29 -90 -57l-298 -177l-100 157z" />
    <glyph glyph-name="ssaradeva" horiz-adv-x="1197" 
d="M766 0v354l-487 -408l-115 137l333 275q-165 18 -260 122t-95 284v372h-172v147h1257v-147h-254v-1136h-207zM393 576.5q51 -48.5 143 -48.5t167 34l-361 440v-279q0 -98 51 -146.5zM766 1136h-356l356 -432v432z" />
    <glyph glyph-name="saradeva" horiz-adv-x="1507" 
d="M92 656q-49 70 -49 110.5t24.5 65.5t65.5 25q58 0 95 -55l89 -127q79 37 116 102t37 165v194h-500v147h1567v-147h-255v-1136h-207v397l-229 -273l-135 115l232 266q-37 -3 -76 -3q-167 0 -344 64q-44 -36 -103 -62l305 -432l-150 -101zM633 705q106 -33 220 -33t222 29
v435h-398v-227q0 -115 -44 -204z" />
    <glyph glyph-name="haradeva" horiz-adv-x="1221" 
d="M195 223q0 123 70 216q-176 110 -176 267q0 97 75 163.5t219 66.5h407v200h-820v147h1281v-147h-254v-351h-556q-77 0 -113.5 -31t-36.5 -81q0 -78 101 -125q111 60 262 60q209 0 325 -95t116 -233q0 -112 -54 -200l-164 37q43 76 43 150.5t-52 119.5l-189 -305l-148 69
l176 292q-11 1 -35 1q-129 0 -206 -71.5t-77 -168.5q0 -63 30 -114t97 -94q134 -87 454 -125l-54 -152q-353 32 -537 164.5t-184 339.5z" />
    <glyph glyph-name="kassaradeva" horiz-adv-x="1613" 
d="M408 61q-154 0 -257 86.5t-103 221.5q0 116 77.5 204.5t266.5 177.5q-162 124 -162 300q0 114 79.5 188t228.5 74t235.5 -82.5t86.5 -202.5q0 -138 -124 -255q183 -45 440 -51v414h-166v147h633v-147h-257v-1136h-210v442l-263 -342l-147 103l282 356q-284 18 -481 96
l-18.5 -9.5t-19.5 -9.5q-168 -83 -229.5 -144t-61.5 -129t42 -108t115 -40h2q-13 36 -13 74t34 64t92 26q96 0 162.5 -40t66.5 -95q0 -35 -28 -71.5t-80 -63.5l95 -207l-158 -55l-95 217q-30 -3 -65 -3zM412 1018q0 -102 142 -178q134 89 134 187q0 53 -39 89t-100.5 36
t-99 -36.5t-37.5 -97.5z" />
    <glyph glyph-name="janyaradeva" horiz-adv-x="1717" 
d="M128 184q0 49 38 85t92.5 36t105.5 -26t113 -88q131 8 201 58t70 112q0 51 -39 79.5t-118.5 28.5t-208.5 -73h-12q-268 125 -268 322q0 101 75.5 166.5t229.5 65.5h866v186h-1303v147h1777v-147h-264v-1136h-210v357l-231 -342l-145 104l376 553v129h-844q-68 0 -104 -31
t-36 -79q0 -71 78 -117q127 55 243 55q151 0 238.5 -75t87.5 -191t-86.5 -203.5t-241.5 -115.5l189 -203l-132 -91l-255 279q-144 5 -213 50t-69 105z" />
    <glyph glyph-name="kanuktaradeva" horiz-adv-x="1631" 
d="M719 0v298l-490 -357l-110 142l236 167q-119 36 -191.5 134.5t-72.5 227.5t88.5 215.5t249 87t290.5 -58.5v280h-749v147h1691v-147h-736v-337q97 43 204 43q165 0 271 -95.5t106 -243.5q0 -187 -131 -352l-175 64q119 157 119 294q0 72 -45 115.5t-125 43.5
q-122 0 -224 -100v-568h-206zM-101 216q0 48 30.5 80.5t85.5 32.5t85 -32.5t30 -80.5t-30.5 -81t-84.5 -33t-85 33t-31 81zM454 396q152 0 265 132v169q-118 56 -231 56t-165.5 -48t-52.5 -126.5t51 -130.5t133 -52z" />
    <glyph glyph-name="khanuktaradeva" horiz-adv-x="1802" 
d="M181 23q0 48 30.5 80.5t85.5 32.5t85 -32.5t30 -80.5t-30.5 -81t-84.5 -33t-85 33t-31 81zM1369 0v261l-729 -438l-104 141l200 120q-253 72 -425 244q-142 142 -226 312q-30 62 -30 98.5t24.5 62.5t61 26t63.5 -18t58 -62l31 -51q87 41 121 105t34 170v165h-478v147
h1862v-147h-256v-1136h-207zM1142 522q132 0 227 86v163q-103 46 -216 46q-86 0 -132 -41.5t-46 -105t47 -106t120 -42.5zM1157 369q-146 0 -247.5 94.5t-101.5 234.5q0 119 82 193t225.5 74t253.5 -44v215h-714v-180q0 -74 -11.5 -133t-40.5 -119q-59 -120 -224 -198
q29 -36 72 -79q185 -184 481 -224l280 168q-36 -2 -55 -2z" />
    <glyph glyph-name="ganuktaradeva" horiz-adv-x="1338" 
d="M31 164q0 48 30.5 80.5t85.5 32.5t85 -32.5t30 -80.5t-30.5 -81t-84.5 -33t-85 33t-31 81zM906 0v283l-514 -361l-108 146l622 441v627h-401v-663q0 -96 -83 -96q-59 0 -132.5 48.5t-123.5 112.5t-50 109q0 71 84 71h98v418h-328v147h1398v-147h-255v-1136h-207z" />
    <glyph glyph-name="januktaradeva" horiz-adv-x="1639" 
d="M62 -15q0 48 30.5 80.5t85.5 32.5t85 -32.5t30 -80.5t-30.5 -81t-84.5 -33t-85 33t-31 81zM1206 0v270l-515 -440l-120 127l635 541v225h-388q136 -118 136 -288q0 -132 -94 -226t-247.5 -94t-299 97t-264.5 298l105 141q116 -189 227.5 -270t207.5 -81q79 0 128 45.5
t49 116.5q0 92 -79.5 170t-216.5 113v151h736v240h-1236v147h1699v-147h-256v-1136h-207z" />
    <glyph glyph-name="ddanuktaradeva" horiz-adv-x="1187" 
d="M614 176q124 0 189 45.5t65 117.5q0 57 -47.5 91.5t-132.5 34.5q-135 0 -254 -72h-15q-271 127 -271 328q0 97 74.5 163t218.5 66h299v186h-770v147h1247v-147h-270v-335h-472q-67 0 -101.5 -30.5t-34.5 -78.5q0 -73 79 -119q123 55 270 55q175 0 273.5 -82t98.5 -205
t-73.5 -207t-221.5 -110l309 -208l-98 -136l-358 243l-358 -244l-106 137l313 213q-175 30 -352 121l46 162q235 -136 453 -136zM-62 -37q0 48 30.5 80.5t85.5 32.5t85 -32.5t30 -80.5t-30.5 -81t-84.5 -33t-85 33t-31 81z" />
    <glyph glyph-name="ddhanuktaradeva" horiz-adv-x="1201" 
d="M214 782q55 54 145 84t207 30h184v240h-780v147h1261v-147h-274v-395h-321q-178 0 -259 -73t-81 -193q0 -86 60 -161t162 -115q-13 43 -13 98q0 107 81.5 180.5t227.5 73.5t234 -73t88 -179.5t-83 -179t-244 -88.5l303 -204l-98 -136l-358 243l-358 -244l-106 137
l331 225q-189 49 -303.5 176t-114.5 286.5t109 267.5zM15 19q0 48 30.5 80.5t85.5 32.5t85 -32.5t30 -80.5t-30.5 -81t-84.5 -33t-85 33t-31 81zM704 165q128 0 197 41.5t69 101.5q0 46 -35 74t-102.5 28t-111.5 -42t-44 -98.5t23 -104.5h4z" />
    <glyph glyph-name="nanuktaradeva" horiz-adv-x="1250" 
d="M818 0v282l-494 -365l-109 139l603 449v130h-427v-192q0 -43 -21.5 -66.5t-58.5 -23.5t-79 42t-83.5 138t-41.5 169q0 105 119 105h592v329h-848v147h1310v-147h-255v-1136h-207zM-1 170q0 48 30.5 80.5t85.5 32.5t85 -32.5t30 -80.5t-30.5 -81t-84.5 -33t-85 33t-31 81z
" />
    <glyph glyph-name="phanuktaradeva" horiz-adv-x="1672" 
d="M-22 244q0 48 30.5 80.5t85.5 32.5t85 -32.5t30 -80.5t-30.5 -81t-84.5 -33t-85 33t-31 81zM758 0v372l-509 -426l-116 136l373 308q-169 16 -264 121t-95 289v336h-177v147h1732v-147h-737v-388q98 49 219 49q169 0 273 -100.5t104 -248.5q0 -91 -32.5 -185.5
t-88.5 -170.5l-181 63q112 157 112 300q0 73 -45.5 119.5t-122.5 46.5q-131 0 -238 -113v-508h-207zM538 559q116 0 220 70v507h-405v-382q0 -97 48 -146t137 -49z" />
    <glyph glyph-name="yanuktaradeva" horiz-adv-x="1308" 
d="M876 0v327l-620 -410l-108 148l342 224q-131 35 -243 124.5t-183 223.5l5 21q164 55 229.5 131t65.5 196v151h-394v147h1368v-147h-255v-1136h-207zM-40 232q0 48 30.5 80.5t85.5 32.5t85 -32.5t30 -80.5t-30.5 -81t-84.5 -33t-85 33t-31 81zM591 450q175 0 285 119v567
h-305v-166q0 -146 -61 -244t-189 -154q113 -122 270 -122z" />
    <glyph glyph-name="ranuktaradeva" horiz-adv-x="905" 
d="M834 -388l-358 243l-358 -244l-106 137l407 277h102l411 -277zM7 77q0 48 30.5 80.5t85.5 32.5t85 -32.5t30 -80.5t-30.5 -81t-84.5 -33t-85 33t-31 81zM95 657q-51 69 -51 109t25 65.5t65 25.5q54 0 94 -55l105 -145q99 36 143.5 104.5t44.5 176.5v198h-551v147h965
v-147h-207v-231q0 -143 -68.5 -253t-216.5 -165l305 -415l-148 -100z" />
    <glyph glyph-name="llanuktaradeva" horiz-adv-x="1677" 
d="M1507 -344l-358 243l-358 -244l-106 137l407 277h102l411 -277zM160 -102q0 48 30.5 80.5t85.5 32.5t85 -32.5t30 -80.5t-30.5 -81t-84.5 -33t-85 33t-31 81zM343 330.5q53 -56.5 137.5 -56.5t151 66.5t125.5 211.5q21 50 40 88q-134 95 -268 95q-111 0 -175 -68
t-64 -174t53 -162.5zM1171 276q109 0 173.5 65.5t64.5 173.5t-51.5 166t-135.5 58t-156.5 -61.5t-119.5 -183.5q-28 -69 -50 -110q136 -108 275 -108zM1197 100q-106 0 -199 36.5t-189 112.5q-126 -149 -309.5 -149t-291.5 112t-108 292t109 294t288 114q213 0 389 -140
q128 145 321 145q26 0 39 -1v220h-1276v147h1737v-147h-255v-297q69 -55 104.5 -142.5t35.5 -196.5q0 -182 -109 -291t-286 -109z" />
    <glyph glyph-name="karaprehalfdeva" horiz-adv-x="1239" 
d="M719 0v297l-490 -356l-109 142l235 167q-119 36 -191.5 134.5t-72.5 227.5t88.5 215.5t249 87t290.5 -58.5v280h-749v147h1299v-147h-344v-407q100 52 217 52q215 0 382 -139l-50 -147q-84 62 -152 88t-150 26q-146 0 -247 -116v-493h-206zM454 396q152 0 265 132v169
q-118 56 -231 56t-165.5 -48t-52.5 -126.5t51 -130.5t133 -52z" />
    <glyph glyph-name="kharaprehalfdeva" horiz-adv-x="1337" 
d="M1020.5 562q48.5 -43 127.5 -43t138 49t59 109t-58.5 101.5t-141.5 41.5t-128 -41.5t-45 -107.5t48.5 -109zM379 507q201 -252 542 -302l274 169q-26 -2 -39 -2q-145 0 -245 92.5t-100 227.5q0 116 78.5 193.5t224.5 78.5q89 0 162 -25.5t119 -68.5q96 -88 96 -209
q0 -65 -35 -125l40 24l84 -153l-946 -584l-103 141l198 123q-249 71 -418 241q-144 142 -226 312q-31 60 -31 97.5t25 63.5t61 26t63 -18t58 -62l31 -51q88 41 121.5 105.5t33.5 169.5v165h-477v147h1397v-147h-713v-180q0 -75 -11.5 -134.5t-40.5 -118.5
q-58 -119 -223 -196z" />
    <glyph glyph-name="garaprehalfdeva" horiz-adv-x="717" 
d="M936 557l109 -139l-627 -483l-108 138zM422 377q-59 0 -132.5 48.5t-123.5 112.5t-50 109q0 71 84 71h98v418h-328v147h777v-147h-242v-663q0 -96 -83 -96z" />
    <glyph glyph-name="gharaprehalfdeva" horiz-adv-x="928" 
d="M352 333.5q-61 88.5 -61 198.5t65 194q-126 47 -190.5 133t-64.5 193q0 45 10 84h-141v147h988v-147h-631q-20 -43 -20 -105t53 -116t159 -77q81 27 181 27h38l31 -166h-14q-140 0 -206.5 -55t-66.5 -129t51.5 -118t134.5 -44q234 0 438 254l98 -157q-157 -180 -297 -237
l-559 -307l-92 155l265 143q-108 41 -169 129.5z" />
    <glyph glyph-name="ngaraprehalfdeva" horiz-adv-x="1353" 
d="M468 -420l72 152l531 -252l-71 -152zM614 176q124 0 189 45.5t65 117.5q0 57 -47.5 91.5t-132.5 34.5q-135 0 -254 -72h-15q-271 127 -271 328q0 97 74.5 163t218.5 66h299v186h-770v147h1413v-147h-436v-335h-472q-67 0 -101.5 -30.5t-34.5 -78.5q0 -73 79 -119
q123 55 270 55q175 0 273.5 -82t98.5 -206.5t-77 -209t-231 -108.5l322 -217l-98 -136l-358 243l-358 -244l-106 137l326 222q-181 29 -365 123l46 162q235 -136 453 -136zM1069 695q0 51 30 84.5t92 33.5t92 -33t30 -84.5t-31 -84.5t-92 -33t-91 33t-30 84z" />
    <glyph glyph-name="caraprehalfdeva" horiz-adv-x="939" 
d="M368 340q-64 88 -64 197.5t58 189.5h-290v169h718v-169h-90q-100 -10 -153 -66t-53 -133.5t57 -125t149 -47.5q246 0 427 259l108 -147q-134 -170 -280 -236l-602 -332l-96 158l288 155q-113 40 -177 128zM969 1136h-999v147h999v-147z" />
    <glyph glyph-name="charaprehalfdeva" horiz-adv-x="1569" 
d="M326 163q-100 114 -100 255.5t97 239.5q-111 55 -164 136t-53 174t62 168h-198v147h1629v-147h-1166q-126 -64 -126 -189.5t175 -190.5q82 29 184 30h10l52 -168h-10q-147 -3 -216.5 -64t-69.5 -154.5t82 -158t222 -64.5q211 0 373 130q-257 174 -257 405
q0 113 79.5 195.5t218.5 82.5t228 -98.5t89 -264.5q0 -95 -38 -191t-105.5 -178t-170.5 -144.5t-224 -89.5l310 -209l-98 -136l-358 243l-358 -244l-106 137l295 201q-188 33 -288 147zM1069 780.5q-33 -41.5 -33 -108t42 -127.5t138 -122q73 107 73 205.5t-35 146
t-93.5 47.5t-91.5 -41.5z" />
    <glyph glyph-name="jaraprehalfdeva" horiz-adv-x="1112" 
d="M1316 539l87 -152l-691 -593l-120 128zM612 79q-320 0 -563 409l105 141q224 -365 435 -365q83 0 130 43t47 119q0 92 -79 169t-217 112v152h898l-26 -173h-524q136 -116 136 -287q0 -136 -92.5 -228t-249.5 -92zM1142 1136h-1172v147h1172v-147z" />
    <glyph glyph-name="jharaprehalfdeva" horiz-adv-x="1106" 
d="M120 184q0 49 37.5 85t94.5 36q102 0 217 -114q140 8 215 58t75 112q0 50 -39.5 79t-114.5 29q-103 0 -232 -73h-12q-268 124 -268 322q0 102 76 167t229 65h245v186h-673v147h1166v-147h-286v-335h-430q-68 0 -104 -31.5t-36 -78.5q0 -70 77 -117q130 55 258 55
q198 0 284 -118q63 -7 129 -7t154 29t157 81l59 -141l42 -50l-454 -547l-140 113l302 356q-42 -6 -94.5 -6t-106.5 6q-6 -110 -98 -193t-249 -109l188 -202l-132 -91l-255 279q-144 5 -212.5 50t-68.5 105z" />
    <glyph glyph-name="jharaprehalfdevaNEP" horiz-adv-x="1504" 
d="M1019 0v282l-488 -366l-110 139l584 439h-378v-99q0 -88 -73 -88q-37 0 -86.5 25.5t-94.5 70t-74 96.5t-29 90t21.5 58.5t63.5 20.5h74v108q-219 9 -332 98.5t-113 231.5q0 101 72.5 175t208.5 74q165 0 263.5 -101t98.5 -262v-324h392v468h-142v147h657v-147h-308v-382
q84 36 169 36q211 0 377 -139l-48 -146q-84 62 -150 87.5t-148 25.5q-107 0 -200 -84v-534h-207zM168 1083q0 -145 261 -153v87q0 78 -41.5 126.5t-100.5 48.5t-89 -33t-30 -76z" />
    <glyph glyph-name="nyaraprehalfdeva" horiz-adv-x="1134" 
d="M1331 484q-105 -38 -210 -38t-178 12q-25 -134 -120.5 -211t-236.5 -77t-272.5 63.5t-274.5 204.5l76 154q129 -133 229.5 -187.5t201.5 -54.5t162.5 57.5t61 148t-64 148t-157.5 57.5q-120 0 -224 -84l-85 155q61 45 140.5 74.5t161.5 29.5q150 0 260.5 -83.5
t139.5 -221.5q58 -9 121 -9q152 0 299 79l41 -187q-16 -8 -31 -14l73 -147l-650 -472l-107 128zM1164 1136h-1194v147h1194v-147z" />
    <glyph glyph-name="ttaraprehalfdeva" horiz-adv-x="1162" 
d="M490 -406l72 152l531 -252l-71 -152zM230 221q-113 123 -113 294t117 276t335 105h157v240h-756v147h1222v-147h-260v-399h-298q-161 0 -237 -70t-76 -183.5t86 -183t239.5 -69.5t333.5 69l43 -179q-146 -55 -282 -63l355 -239l-98 -136l-358 243l-358 -244l-106 137
l363 247q-196 32 -309 155z" />
    <glyph glyph-name="ttharaprehalfdeva" horiz-adv-x="1280" 
d="M523 -406l72 152l531 -252l-71 -152zM225.5 210q-117.5 129 -117.5 303t123 278.5t334 104.5h274v240h-869v147h1340v-147h-265v-331q61 -68 98.5 -156t38.5 -181q2 -157 -100.5 -273t-293.5 -146l341 -230l-98 -136l-358 243l-358 -244l-106 137l338 230
q-204 32 -321.5 161zM397 293.5q91 -77.5 253 -77.5t253.5 77t91.5 197q0 146 -123 248h-229q-172 0 -254.5 -68.5t-82.5 -183.5t91 -192.5z" />
    <glyph glyph-name="ddaraprehalfdeva" horiz-adv-x="1187" 
d="M470 -420l72 152l531 -252l-71 -152zM614 176q124 0 189 45.5t65 117.5q0 57 -47.5 91.5t-132.5 34.5q-135 0 -254 -72h-15q-271 127 -271 328q0 97 74.5 163t218.5 66h299v186h-770v147h1247v-147h-270v-335h-472q-67 0 -101.5 -30.5t-34.5 -78.5q0 -73 79 -119
q123 55 270 55q175 0 273.5 -82t98.5 -206t-76.5 -209t-229.5 -109l322 -217l-98 -136l-358 243l-358 -244l-106 137l326 222q-181 28 -367 123l46 162q235 -136 453 -136z" />
    <glyph glyph-name="ddharaprehalfdeva" horiz-adv-x="1201" 
d="M506 -409l72 152l531 -252l-71 -152zM214 782q55 54 145 84t207 30h184v240h-780v147h1261v-147h-274v-395h-321q-178 0 -259 -73t-81 -193q0 -86 60 -161t162 -115q-13 43 -13 98q0 107 81.5 180.5t227.5 73.5t234 -73t88 -180.5t-87 -181t-254 -86.5l317 -214l-98 -136
l-358 243l-358 -244l-106 137l342 233q-193 47 -311 175t-118 289t109 269zM704 165q128 0 197 41.5t69 101.5q0 46 -35 74t-102.5 28t-111.5 -42t-44 -98.5t23 -104.5h4z" />
    <glyph glyph-name="nnaraprehalfdeva" horiz-adv-x="1008" 
d="M1192 533l117 -143l-611 -464l-113 142zM389 554q43 -48 122.5 -48t125 55.5t45.5 160.5v414h-336v-446q0 -88 43 -136zM797.5 449q-91.5 -108 -274.5 -108t-283 108.5t-100 289.5v397h-170v147h1068v-147h-149v-394q0 -185 -91.5 -293z" />
    <glyph glyph-name="taraprehalfdeva" horiz-adv-x="699" 
d="M321 731q-92 0 -205 -59l-54 182q125 59 226.5 59t192.5 -33t205 -109l224 -151l42 -131l-693 -353l-93 164l531 265l-80 54q-166 112 -296 112zM729 1136h-759v147h759v-147z" />
    <glyph glyph-name="tharaprehalfdeva" horiz-adv-x="884" 
d="M241 1060q0 -62 64.5 -107.5t201.5 -60.5q20 43 20 91q0 82 -50 135.5t-121 53.5q-55 0 -85 -31t-30 -81zM55 1093q0 98 72 167.5t196 69.5q169 0 275 -104.5t106 -262.5q0 -137 -86.5 -237t-230.5 -159q114 -122 289 -122q112 0 212 51t199 164l86 -156
q-88 -112 -203 -172l-628 -418l-109 148l340 223q-135 32 -251 123t-190 227l5 20q166 50 260 116q-165 29 -253.5 116.5t-88.5 205.5z" />
    <glyph glyph-name="daraprehalfdeva" horiz-adv-x="1139" 
d="M616 -336l72 152l531 -252l-71 -152zM208 790q53 51 139 80t197 29h160v237h-734v147h1199v-147h-258v-393h-300q-161 0 -237.5 -65.5t-76.5 -170t88 -173.5t221 -69q32 0 47 1q-25 49 -23.5 92t35.5 69.5t100 26.5q104 0 183 -42.5t79 -99.5q0 -39 -31.5 -80.5
t-91.5 -72.5l152 -302l-158 -66l-153 306l-526 -300l-95 150l328 183q-162 42 -255.5 150t-93.5 258.5t105 251.5z" />
    <glyph glyph-name="dharaprehalfdeva" horiz-adv-x="899" 
d="M214.5 1166q-42.5 -45 -42.5 -105t34 -106q108 6 165 50t57 108q0 44 -28.5 71t-85.5 27t-99.5 -45zM346.5 334.5q-60.5 87.5 -60.5 190t53 177.5q-153 42 -239 128q-103 103 -103 247q0 122 81.5 203t220 81t217 -73.5t78.5 -184.5q0 -87 -60.5 -155.5t-161.5 -97.5
q53 -17 129 -28q84 31 194 31h38l31 -166h-14q-136 0 -204.5 -51t-68.5 -123t51.5 -116t134.5 -44q235 0 434 254l98 -157q-125 -152 -258 -218l-595 -326l-91 155l263 144q-107 42 -167.5 129.5z" />
    <glyph glyph-name="naraprehalfdeva" horiz-adv-x="670" 
d="M890 534l118 -134l-595 -482l-117 132zM364 273.5q-20 -23.5 -58 -23.5t-81.5 43.5t-84 140.5t-40.5 175q0 109 120 109h669v-173h-505v-205q0 -43 -20 -66.5zM700 1136h-730v147h730v-147z" />
    <glyph glyph-name="paraprehalfdeva" horiz-adv-x="648" 
d="M142 764v372h-172v147h708v-147h-329v-413q0 -194 192 -194q174 0 327 108l86 -158q-44 -30 -87 -50l-585 -483l-115 137l339 275q-168 14 -266 118.5t-98 287.5z" />
    <glyph glyph-name="pharaprehalfdeva" horiz-adv-x="1277" 
d="M758 0v373l-509 -427l-115 137l372 307q-169 16 -264 121t-95 289v336h-177v147h1337v-147h-342v-405q100 50 215 50q213 0 380 -138l-47 -147q-85 62 -152.5 88t-148.5 26q-147 0 -247 -115v-495h-207zM538 559q117 0 220 70v507h-405v-382q0 -97 48 -146t137 -49z" />
    <glyph glyph-name="baraprehalfdeva" horiz-adv-x="688" 
d="M509 387q52 0 97 14l-276 319q-43 -49 -43 -130.5t62 -142t160 -60.5zM523 789q-37 0 -67 -6l267 -310q50 56 50 127t-72 130t-178 59zM98 624q0 143 104 234t275 91q113 0 205.5 -32.5t149.5 -85t87.5 -115.5t30.5 -129q0 -100 -57.5 -186.5t-156.5 -133.5l-544 -334
l-102 142l284 173q-128 43 -202 146.5t-74 229.5zM718 1283v-147h-748v147h748z" />
    <glyph glyph-name="bharaprehalfdeva" horiz-adv-x="901" 
d="M627 494v-99q0 -88 -73 -88q-37 0 -86.5 25.5t-94.5 70t-74 96.5t-29 90t21.5 58.5t63.5 20.5h74v108q-219 9 -332 98.5t-113 231.5q0 101 72.5 175t208.5 74q165 0 263.5 -101t98.5 -262v-324h510l12 -144l69 -83l-597 -517l-121 129l513 441h-386zM168 1083
q0 -145 261 -153v84q0 80 -41 129t-100.5 49t-89.5 -33t-30 -76z" />
    <glyph glyph-name="maraprehalfdeva" horiz-adv-x="732" 
d="M441 494v-99q0 -88 -73 -88q-38 0 -87.5 25.5t-94 70t-74 97t-29.5 90t21.5 58t64.5 20.5h65v468h-264v147h792v-147h-321v-468h504l23 -153l43 -90l-627 -507l-113 135l552 441h-382z" />
    <glyph glyph-name="yaraprehalfdeva" horiz-adv-x="813" 
d="M364 985v151h-394v147h873v-147h-272v-165q0 -146 -61 -244.5t-189 -154.5q113 -124 282 -124q235 0 417 212l85 -157q-90 -114 -213 -175l-629 -411l-108 148l345 222q-135 34 -250 124.5t-186 225.5l5 21q165 55 230 131t65 196z" />
    <glyph glyph-name="raraprehalfdeva" horiz-adv-x="472" 
d="M813 -382l-358 243l-358 -244l-106 137l407 277h102l411 -277zM450 389q-203 0 -422 113l42 162q175 -89 347 -89q80 0 144.5 14t138.5 51l62 -184q-79 -37 -150 -52t-162 -15zM502 1136h-532v147h532v-147z" />
    <glyph glyph-name="laraprehalfdeva" horiz-adv-x="1044" 
d="M1292 478l108 -129l-523 -441l-114 121zM170.5 266.5q-73.5 129.5 -73.5 277t103.5 250t273.5 102.5q140 0 254.5 -60.5t227.5 -186.5l274 175l56 -178l-592 -378l-118 138l225 144q-77 86 -146.5 123.5t-154.5 37.5t-143 -61t-58 -153t55 -181.5t193 -216.5l-158 -95
q-145 133 -218.5 262.5zM1061 1136h-1091v147h1091v-147z" />
    <glyph glyph-name="llaraprehalfdeva" horiz-adv-x="1677" 
d="M1507 -344l-358 243l-358 -244l-106 137l407 277h102l411 -277zM343 330.5q53 -56.5 137.5 -56.5t151 66.5t125.5 211.5q21 50 40 88q-134 95 -268 95q-111 0 -175 -68t-64 -174t53 -162.5zM1171 276q109 0 173.5 65.5t64.5 183.5q0 97 -53.5 155.5t-135.5 58.5
t-154.5 -61.5t-119.5 -183.5q-28 -69 -50 -110q136 -108 275 -108zM1197 100q-106 0 -199 36.5t-189 112.5q-126 -149 -309.5 -149t-291.5 112t-108 292t109 294t288 114q213 0 389 -140q128 145 315.5 145t289 -114.5t101.5 -299.5t-109 -294t-286 -109zM1707 1283v-147
h-1737v147h1737z" />
    <glyph glyph-name="varaprehalfdeva" horiz-adv-x="688" 
d="M351.5 449.5q61.5 -60.5 165 -60.5t179 62.5t75.5 140.5t-72 136.5t-180 58.5t-168.5 -51.5t-60.5 -138.5t61.5 -147.5zM98 623q0 142 103 233t279 91q89 0 166.5 -21t132 -56t93.5 -82q78 -91 78 -194t-55 -187.5t-150 -133.5l-553 -340l-102 142l283 173
q-127 43 -201 146.5t-74 228.5zM718 1283v-147h-748v147h748z" />
    <glyph glyph-name="sharaprehalfdeva" horiz-adv-x="997" 
d="M613.5 931.5q26.5 42.5 26.5 94t-38 88.5t-101 37t-99.5 -37.5t-36.5 -95.5t44.5 -102.5t114.5 -74.5q63 48 89.5 90.5zM369 742q-184 125 -184 299q0 113 83 192.5t226 79.5t234 -86t91 -210.5t-100 -234.5q180 -38 451 -58l53 -186l-723 -490l-106 152l570 382
q-238 22 -398 71q-42 -29 -90 -57l-298 -177l-100 157z" />
    <glyph glyph-name="ssaraprehalfdeva" horiz-adv-x="648" 
d="M393 576.5q51 -48.5 140.5 -48.5t175.5 28l-367 446v-279q0 -98 51 -146.5zM142 764v372h-172v147h708v-147h-269l429 -519q10 6 30 20l87 -156q-38 -25 -74 -44l-596 -491l-115 137l339 275q-169 13 -268 117.5t-99 288.5z" />
    <glyph glyph-name="saraprehalfdeva" horiz-adv-x="940" 
d="M93 656q-49 72 -49 111.5t24.5 64.5t65.5 25q57 0 96 -55l88 -127q79 37 116 102t37 165v194h-501v147h1000v-147h-292v-227q0 -128 -56 -227q142 -55 314 -55q104 0 227 37l41 -173l-3 -1l-355 -365l-124 118l201 211q-217 6 -419 99q-38 -27 -84 -48l307 -433
l-151 -101z" />
    <glyph glyph-name="haraprehalfdeva" horiz-adv-x="1221" 
d="M391 -452l72 152l531 -252l-71 -152zM195 223q0 123 70 216q-176 110 -176 267q0 97 75 163.5t219 66.5h407v200h-820v147h1281v-147h-254v-351h-556q-77 0 -113.5 -31t-36.5 -81q0 -78 101 -125q111 60 262 60q209 0 325 -95t116 -233q0 -112 -54 -200l-164 37
q43 76 43 150.5t-52 119.5l-189 -305l-148 69l176 292q-11 1 -35 1q-129 0 -206 -71.5t-77 -168.5q0 -63 30 -114t97 -94q134 -87 454 -125l-54 -152q-353 32 -537 164.5t-184 339.5z" />
    <glyph glyph-name="kassaraprehalfdeva" horiz-adv-x="1033" 
d="M408 61q-154 0 -257 86.5t-103 221.5q0 115 75.5 202.5t259.5 175.5q-154 132 -154 304q0 114 80.5 188.5t229 74.5t236 -84.5t87.5 -204.5q0 -151 -149 -274q203 -68 503 -69l14 -160l-317 -422l-148 103l256 328q-279 26 -474 114q-188 -94 -248.5 -154t-60.5 -128
t42 -108t115 -40h2q-13 36 -13 74t34 64t92 26q96 0 162.5 -40t66.5 -95q0 -35 -28 -72t-81 -64l95 -206l-158 -55l-94 217q-31 -3 -65 -3zM450.5 1116q-36.5 -36 -36.5 -89q0 -108 128 -194q146 93 146 194q0 53 -38.5 89t-100.5 36t-98.5 -36z" />
    <glyph glyph-name="janyaraprehalfdeva" horiz-adv-x="1150" 
d="M128 184q0 49 38 85t92.5 36t104.5 -26t113 -87q132 8 202 58t70 112q0 50 -39 79t-118.5 29t-208.5 -73h-12q-268 125 -268 322q0 101 75.5 166.5t229.5 65.5h971l-20 -149h-929q-68 0 -104 -31t-36 -79q0 -71 78 -117q127 55 243 55q151 0 238.5 -75t87.5 -191
t-86.5 -204t-241.5 -116l189 -203l-132 -91l-255 279q-144 5 -213 50t-69 105zM1294 695l135 -113l-403 -567l-144 104zM1180 1136h-1210v147h1210v-147z" />
    <glyph glyph-name="kanuktaraprehalfdeva" horiz-adv-x="1239" 
d="M719 0v297l-490 -356l-109 142l235 167q-119 36 -191.5 134.5t-72.5 227.5t88.5 215.5t249 87t290.5 -58.5v280h-749v147h1299v-147h-344v-407q100 52 217 52q215 0 382 -139l-50 -147q-84 62 -152 88t-150 26q-146 0 -247 -116v-493h-206zM-114 224q0 48 30.5 80.5
t85.5 32.5t85 -32.5t30 -80.5t-30.5 -81t-84.5 -33t-85 33t-31 81zM454 396q152 0 265 132v169q-118 56 -231 56t-165.5 -48t-52.5 -126.5t51 -130.5t133 -52z" />
    <glyph glyph-name="khanuktaraprehalfdeva" horiz-adv-x="1337" 
d="M176 23q0 48 30.5 80.5t85.5 32.5t85 -32.5t30 -80.5t-30.5 -81t-84.5 -33t-85 33t-31 81zM1020.5 562q48.5 -43 127.5 -43t138 49t59 109t-58.5 101.5t-141.5 41.5t-128 -41.5t-45 -107.5t48.5 -109zM379 507q201 -252 542 -302l274 169q-26 -2 -39 -2q-145 0 -245 92.5
t-100 227.5q0 116 78.5 193.5t224.5 78.5q89 0 162 -25.5t119 -68.5q96 -88 96 -209q0 -65 -35 -125l40 24l84 -153l-946 -584l-103 141l198 123q-249 71 -418 241q-144 142 -226 312q-31 60 -31 97.5t25 63.5t61 26t63 -18t58 -62l31 -51q88 41 121.5 105.5t33.5 169.5v165
h-477v147h1397v-147h-713v-180q0 -75 -11.5 -134.5t-40.5 -118.5q-58 -119 -223 -196z" />
    <glyph glyph-name="ganuktaraprehalfdeva" horiz-adv-x="717" 
d="M29 220q0 48 30.5 80.5t85.5 32.5t85 -32.5t30 -80.5t-30.5 -81t-84.5 -33t-85 33t-31 81zM936 557l109 -139l-627 -483l-108 138zM422 377q-59 0 -132.5 48.5t-123.5 112.5t-50 109q0 71 84 71h98v418h-328v147h777v-147h-242v-663q0 -96 -83 -96z" />
    <glyph glyph-name="januktaraprehalfdeva" horiz-adv-x="1113" 
d="M81 -8q0 48 30.5 80.5t85.5 32.5t85 -32.5t30 -80.5t-30.5 -81t-84.5 -33t-85 33t-31 81zM1316 539l87 -152l-691 -593l-120 128zM612 79q-320 0 -563 409l105 141q224 -365 435 -365q83 0 130 43t47 119q0 92 -79 169t-217 112v152h898l-26 -173h-524q136 -116 136 -287
q0 -136 -92.5 -228t-249.5 -92zM1142 1136h-1172v147h1172v-147z" />
    <glyph glyph-name="ddanuktaraprehalfdeva" horiz-adv-x="1187" 
d="M470 -420l72 152l531 -252l-71 -152zM614 176q124 0 189 45.5t65 117.5q0 57 -47.5 91.5t-132.5 34.5q-135 0 -254 -72h-15q-271 127 -271 328q0 97 74.5 163t218.5 66h299v186h-770v147h1247v-147h-270v-335h-472q-67 0 -101.5 -30.5t-34.5 -78.5q0 -73 79 -119
q123 55 270 55q175 0 273.5 -82t98.5 -206t-76.5 -209t-229.5 -109l322 -217l-98 -136l-358 243l-358 -244l-106 137l326 222q-181 28 -367 123l46 162q235 -136 453 -136zM-56 -38q0 48 30.5 80.5t85.5 32.5t85 -32.5t30 -80.5t-30.5 -81t-84.5 -33t-85 33t-31 81z" />
    <glyph glyph-name="ddhanuktaraprehalfdeva" horiz-adv-x="1201" 
d="M506 -409l72 152l531 -252l-71 -152zM214 782q55 54 145 84t207 30h184v240h-780v147h1261v-147h-274v-395h-321q-178 0 -259 -73t-81 -193q0 -86 60 -161t162 -115q-13 43 -13 98q0 107 81.5 180.5t227.5 73.5t234 -73t88 -180.5t-87 -181t-254 -86.5l317 -214l-98 -136
l-358 243l-358 -244l-106 137l342 233q-193 47 -311 175t-118 289t109 269zM18 17q0 48 30.5 80.5t85.5 32.5t85 -32.5t30 -80.5t-30.5 -81t-84.5 -33t-85 33t-31 81zM704 165q128 0 197 41.5t69 101.5q0 46 -35 74t-102.5 28t-111.5 -42t-44 -98.5t23 -104.5h4z" />
    <glyph glyph-name="nanuktaraprehalfdeva" horiz-adv-x="670" 
d="M25 72q0 48 30.5 80.5t85.5 32.5t85 -32.5t30 -80.5t-30.5 -81t-84.5 -33t-85 33t-31 81zM890 534l118 -134l-595 -482l-117 132zM364 273.5q-20 -23.5 -58 -23.5t-81.5 43.5t-84 140.5t-40.5 175q0 109 120 109h669v-173h-505v-205q0 -43 -20 -66.5zM700 1136h-730v147
h730v-147z" />
    <glyph glyph-name="phanuktaraprehalfdeva" horiz-adv-x="1277" 
d="M-32 241q0 48 30.5 80.5t85.5 32.5t85 -32.5t30 -80.5t-30.5 -81t-84.5 -33t-85 33t-31 81zM758 0v373l-509 -427l-115 137l372 307q-169 16 -264 121t-95 289v336h-177v147h1337v-147h-342v-405q100 50 215 50q213 0 380 -138l-47 -147q-85 62 -152.5 88t-148.5 26
q-147 0 -247 -115v-495h-207zM538 559q117 0 220 70v507h-405v-382q0 -97 48 -146t137 -49z" />
    <glyph glyph-name="yanuktaraprehalfdeva" horiz-adv-x="813" 
d="M-42 227q0 48 30.5 80.5t85.5 32.5t85 -32.5t30 -80.5t-30.5 -81t-84.5 -33t-85 33t-31 81zM364 985v151h-394v147h873v-147h-272v-165q0 -146 -61 -244.5t-189 -154.5q113 -124 282 -124q235 0 417 212l85 -157q-90 -114 -213 -175l-629 -411l-108 148l345 222
q-135 34 -250 124.5t-186 225.5l5 21q165 55 230 131t65 196z" />
    <glyph glyph-name="ranuktaraprehalfdeva" horiz-adv-x="472" 
d="M813 -382l-358 243l-358 -244l-106 137l407 277h102l411 -277zM-31 96q0 48 30.5 80.5t85.5 32.5t85 -32.5t30 -80.5t-30.5 -81t-84.5 -33t-85 33t-31 81zM450 389q-203 0 -422 113l42 162q175 -89 347 -89q80 0 144.5 14t138.5 51l62 -184q-79 -37 -150 -52t-162 -15z
M502 1136h-532v147h532v-147z" />
    <glyph glyph-name="llanuktaraprehalfdeva" horiz-adv-x="1677" 
d="M1507 -344l-358 243l-358 -244l-106 137l407 277h102l411 -277zM160 -99q0 48 30.5 80.5t85.5 32.5t85 -32.5t30 -80.5t-30.5 -81t-84.5 -33t-85 33t-31 81zM343 330.5q53 -56.5 137.5 -56.5t151 66.5t125.5 211.5q21 50 40 88q-134 95 -268 95q-111 0 -175 -68t-64 -174
t53 -162.5zM1171 276q109 0 173.5 65.5t64.5 183.5q0 97 -53.5 155.5t-135.5 58.5t-154.5 -61.5t-119.5 -183.5q-28 -69 -50 -110q136 -108 275 -108zM1197 100q-106 0 -199 36.5t-189 112.5q-126 -149 -309.5 -149t-291.5 112t-108 292t109 294t288 114q213 0 389 -140
q128 145 315.5 145t289 -114.5t101.5 -299.5t-109 -294t-286 -109zM1707 1283v-147h-1737v147h1737z" />
    <glyph glyph-name="haudeva" horiz-adv-x="1198" 
d="M988 -630.5q-97 -82.5 -250.5 -82.5t-310.5 61.5t-300 173.5l67 150q139 -110 266.5 -165t229.5 -55t157 42t55 105t-42 100.5t-113 37.5q-107 0 -224 -96l-84 145q24 21 51 39q-287 131 -287 398q0 120 70 211q-184 111 -184 272q0 97 75 163.5t219 66.5h385v200h-798
v147h1258v-147h-254v-351h-533q-77 0 -113.5 -31t-36.5 -81q0 -82 113 -131q102 52 238 52q191 0 305.5 -91.5t114.5 -223.5q0 -113 -54 -199l-174 39q41 68 41 150q0 66 -56 112t-164.5 46t-178.5 -68.5t-70 -155.5q0 -113 91.5 -188.5t289.5 -115.5q134 -12 216 -98
t82 -217.5t-97 -214z" />
    <glyph glyph-name="hauudeva" horiz-adv-x="1198" 
d="M622 -667q-151 0 -254 84t-103 219q0 73 34.5 136t99.5 103q-196 130 -196 348q0 120 70 211q-184 111 -184 272q0 97 75 163.5t219 66.5h385v200h-798v147h1258v-147h-254v-351h-533q-77 0 -113.5 -31t-36.5 -81q0 -82 113 -131q102 52 238 52q191 0 305.5 -91.5
t114.5 -223.5q0 -113 -54 -199l-174 39q41 68 41 150q0 66 -56 112t-164.5 46t-178.5 -68.5t-70 -155.5q0 -215 335 -294q254 -66 501 -383l-104 -119q-279 348 -518 348q-82 0 -127.5 -41.5t-45.5 -100t43.5 -93t124.5 -34.5t180 47l52 -148q-97 -52 -225 -52z" />
    <glyph glyph-name="harvocalicdeva" horiz-adv-x="1198" 
d="M177 205q0 134 80 236q-165 109 -165 266q0 97 74 163t210 66h392v200h-798v147h1258v-147h-254v-351h-534q-75 0 -111.5 -31.5t-36.5 -80.5q0 -77 99 -126q110 55 258 55q205 0 333 -96t130 -227q0 -65 -3 -80h-138q-84 0 -124 -31.5t-40 -80t38 -78.5t115.5 -30
t174.5 33l25 -129q-102 -34 -210 -34q-136 0 -225 70.5t-89 173.5t73.5 166t211.5 63h5q-16 50 -85.5 83t-173.5 33q-141 0 -221 -76.5t-80 -193t80.5 -221.5t268.5 -221l-120 -107q-197 115 -307.5 267t-110.5 319z" />
    <glyph glyph-name="harrvocalicdeva" horiz-adv-x="1198" 
d="M1220 -338q-90 -44 -197.5 -44t-177 58t-69.5 140q0 56 25 98q-69 29 -107 84t-38 123q0 88 72.5 144.5t197.5 56.5q-16 50 -85.5 83t-173.5 33q-141 0 -221 -76.5t-80 -193t80.5 -221.5t268.5 -221l-120 -107q-197 115 -307.5 267t-110.5 319q0 134 80 236
q-165 109 -165 266q0 97 74 163t210 66h392v200h-798v147h1258v-147h-254v-351h-534q-75 0 -111.5 -31.5t-36.5 -80.5q0 -77 99 -126q110 55 258 55q205 0 333 -96t130 -227q0 -65 -3 -78h-132q-153 0 -153 -97q0 -39 36 -63.5t109.5 -24.5t159.5 28l25 -121
q-87 -33 -189 -36q-40 -25 -40 -65t28.5 -62.5t90.5 -22.5t152 40z" />
    <glyph glyph-name="haraudeva" horiz-adv-x="1221" 
d="M983 -630.5q-97 -82.5 -250.5 -82.5t-310.5 61.5t-300 173.5l67 150q139 -110 266.5 -165t229.5 -55t157 42t55 105t-42 100.5t-113 37.5q-107 0 -224 -96l-84 145q17 16 50 38q-140 65 -214.5 166.5t-74.5 228.5t70 220q-176 110 -176 267q0 97 75 163.5t219 66.5h407
v200h-820v147h1281v-147h-254v-351h-556q-77 0 -113.5 -31t-36.5 -81q0 -78 101 -125q111 60 262 60q209 0 325 -95t116 -233q0 -112 -54 -200l-164 37q43 76 43 150.5t-54 121.5l-190 -308l-145 70l176 292q-11 1 -35 1q-129 0 -206 -71.5t-77 -168.5q0 -113 97.5 -188
t304.5 -118q131 -14 210 -99t79 -216t-97 -213.5z" />
    <glyph glyph-name="harauudeva" horiz-adv-x="1221" 
d="M618 -666q-151 0 -254 84t-103 219q0 73 34.5 136t99.5 103q-200 131 -200 347q0 123 70 216q-176 110 -176 267q0 97 75 163.5t219 66.5h407v200h-820v147h1281v-147h-254v-351h-556q-77 0 -113.5 -31t-36.5 -81q0 -78 101 -125q111 60 262 60q209 0 325 -95t116 -233
q0 -112 -54 -200l-164 37q43 76 43 150.5t-54 121.5l-190 -308l-145 70l176 292q-11 1 -35 1q-129 0 -206 -71.5t-77 -170.5q0 -204 337 -289v-1q258 -61 512 -385l-104 -119q-279 348 -518 348q-82 0 -127.5 -41.5t-45.5 -100t43.5 -93t124.5 -34.5t180 47l52 -148
q-97 -52 -225 -52z" />
    <glyph glyph-name="raudeva" horiz-adv-x="1252" 
d="M95 657q-51 69 -51 109t25 65.5t65 25.5q54 0 94 -55l105 -145q99 36 143.5 104.5t44.5 176.5v198h-551v147h1312v-147h-554v-231q0 -28 -3 -55q52 11 103 11q160 0 247 -81t87 -210q0 -80 -36.5 -164t-90.5 -144l-169 66q116 137 116 242q0 55 -36 90.5t-101 35.5
q-110 0 -246 -115q-62 -59 -156 -94l305 -415l-148 -100z" />
    <glyph glyph-name="rauudeva" horiz-adv-x="1495" 
d="M95 657q-51 69 -51 109t25 65.5t65 25.5q54 0 94 -55l105 -145q99 36 143.5 104.5t44.5 176.5v198h-551v147h1555v-147h-797v-231q0 -25 -1 -37q70 49 168 49q187 0 320 -129.5t222 -421.5l-138 -73q-84 255 -180 355q-87 91 -190 91q-59 0 -95 -33.5t-36 -82.5
q0 -61 60 -100.5t188 -41.5l-18 -155q-178 1 -283 77t-123 201q-68 -76 -179 -117l305 -415l-148 -100z" />
    <glyph glyph-name="ranuktaudeva" horiz-adv-x="1252" 
d="M37 28q0 48 30.5 80.5t85.5 32.5t85 -32.5t30 -80.5t-30.5 -81t-84.5 -33t-85 33t-31 81zM95 657q-51 69 -51 109t25 65.5t65 25.5q54 0 94 -55l105 -145q99 36 143.5 104.5t44.5 176.5v198h-551v147h1312v-147h-554v-231q0 -28 -3 -55q52 11 103 11q160 0 247 -81
t87 -210q0 -80 -36.5 -164t-90.5 -144l-169 66q116 137 116 242q0 55 -36 90.5t-101 35.5q-110 0 -246 -115q-62 -59 -156 -94l305 -415l-148 -100z" />
    <glyph glyph-name="ranuktauudeva" horiz-adv-x="1495" 
d="M31 38q0 48 30.5 80.5t85.5 32.5t85 -32.5t30 -80.5t-30.5 -81t-84.5 -33t-85 33t-31 81zM95 657q-51 69 -51 109t25 65.5t65 25.5q54 0 94 -55l105 -145q99 36 143.5 104.5t44.5 176.5v198h-551v147h1555v-147h-797v-231q0 -25 -1 -37q70 49 168 49q187 0 320 -129.5
t222 -421.5l-138 -73q-84 255 -180 355q-87 91 -190 91q-59 0 -95 -33.5t-36 -82.5q0 -61 60 -100.5t188 -41.5l-18 -155q-178 1 -283 77t-123 201q-68 -76 -179 -117l305 -415l-148 -100z" />
    <glyph glyph-name="daudeva" horiz-adv-x="1139" 
d="M1047 -573.5q-97 -82.5 -250.5 -82.5t-310.5 61.5t-300 173.5l67 150q139 -110 266.5 -165t229.5 -55t157 42t55 105t-42 100.5t-113 37.5q-107 0 -224 -96l-84 145q131 115 310 115h7l-77 153q-47 -5 -91 -5q-244 0 -394 119.5t-150 312.5q0 151 105 252q53 51 139 80
t197 29h160v237h-734v147h1199v-147h-258v-393h-300q-161 0 -237.5 -65.5t-76.5 -170t88 -173.5t221 -69q32 0 47 1q-25 49 -23.5 92t35.5 69.5t100 26.5q104 0 183 -42.5t79 -99.5q0 -39 -31.5 -80.5t-91.5 -72.5l144 -287q96 -88 96 -225.5t-97 -220z" />
    <glyph glyph-name="dauudeva" horiz-adv-x="1139" 
d="M775 -638q-151 0 -254 84t-103 211.5t89 213t245 85.5q37 0 65 -4l-79 159q-47 -5 -91 -5q-244 0 -394 119.5t-150 312.5q0 151 105 252q53 51 139 80t197 29h160v237h-734v147h1199v-147h-258v-393h-300q-161 0 -237.5 -65.5t-76.5 -170t88 -173.5t221 -69q32 0 47 1
q-25 49 -23.5 92t35.5 69.5t100 26.5q104 0 183 -42.5t79 -99.5q0 -39 -31.5 -80.5t-91.5 -72.5l143 -284q174 -97 348 -320l-104 -119q-279 348 -518 348q-82 0 -127.5 -41.5t-45.5 -100t43.5 -93t124.5 -34.5t180 47l52 -148q-97 -52 -225 -52z" />
    <glyph glyph-name="darvocalicdeva" horiz-adv-x="1139" 
d="M1148 -535q-118 -43 -251 -43t-228.5 76t-95.5 203q0 94 63.5 163.5t180.5 89.5l-79 157q-47 -5 -91 -5q-244 0 -394 119.5t-150 312.5q0 151 105 252q53 51 139 80t197 29h160v237h-734v147h1199v-147h-258v-393h-300q-161 0 -237.5 -65.5t-76.5 -170t88 -173.5t221 -69
q32 0 47 1q-25 49 -23.5 92t35.5 69.5t100 26.5q104 0 183 -42.5t79 -99.5q0 -39 -31.5 -80.5t-91.5 -72.5l155 -308l-2 -25h-111q-100 0 -151 -40.5t-51 -99.5t43.5 -92t129 -33t203.5 50z" />
    <glyph glyph-name="kassadeva" horiz-adv-x="1560" 
d="M502 61q-179 0 -292 92t-113 233q0 101 65 187t203 169q-94 65 -141.5 144.5t-47.5 163.5q0 112 81 188t228 76t234 -82t87 -204q0 -138 -119 -254q181 -47 436 -53v415h-166v147h633v-147h-257v-1136h-210v552q-351 7 -591 102q-4 -4 -12 -8q-132 -85 -183.5 -147
t-51.5 -130t52.5 -111t143.5 -43q15 0 22 1q-15 35 -15 74t32.5 65t92.5 26q96 0 170 -38t74 -94q0 -40 -30.5 -77.5t-87.5 -64.5l94 -205l-158 -54l-95 217q-32 -4 -78 -4zM359 1018q0 -100 153 -179q122 94 122 188q0 53 -39.5 89t-100.5 36t-98 -37t-37 -97z" />
    <glyph glyph-name="janyadeva" horiz-adv-x="1603" 
d="M128 184q0 49 38 85t92.5 36t105.5 -26t113 -88q135 8 208.5 58t73.5 112q0 51 -38.5 79.5t-112.5 28.5q-97 0 -226 -73h-12q-268 125 -268 322q0 101 75.5 166.5t229.5 65.5h752v186h-1189v147h1663v-147h-264v-1136h-210v801h-730q-68 0 -104 -31t-36 -79
q0 -71 78 -117q127 55 255 55q151 0 238 -75t87 -190.5t-90.5 -203.5t-247.5 -117l188 -202l-132 -91l-255 279q-144 5 -213 50t-69 105z" />
    <glyph glyph-name="katadeva" horiz-adv-x="1829" 
d="M33 722v174h889v240h-952v147h1889v-147h-731v-298q90 30 200 30q180 0 289 -104.5t109 -276.5q0 -207 -150 -409l-175 64q136 190 136 359q0 87 -53 138.5t-136 51.5q-120 0 -220 -75v-616h-206v721h-218q-134 0 -201 -63t-67 -169q0 -183 186 -448l-174 -58
q-100 141 -155.5 288t-54 259.5t45.5 191.5h-251z" />
    <glyph glyph-name="ngayadeva" horiz-adv-x="2574" 
d="M2143 0v196q-94 -57 -229 -57q-160 0 -304 95.5t-233 268.5l5 15q322 74 322 188q0 94 -172 94h-649v1h-405q-67 0 -101.5 -30.5t-34.5 -78.5q0 -73 79 -119q123 55 267 55q174 0 273 -80.5t99 -207.5q0 -143 -107.5 -234t-318.5 -91q-256 0 -524 140l45 161
q237 -140 456 -140q124 0 190.5 46.5t66.5 118.5q0 56 -48 90t-132 34q-135 0 -254 -72h-15q-268 125 -268 328q0 98 74.5 163.5t218.5 65.5h296v186h-770v147h2634v-147h-255v-1136h-206zM1069 607q0 51 30 84t92 33t92 -33t30 -84t-31 -84t-92 -33t-91 33t-30 84z
M1858 316q175 0 285 120v700h-1196v-186h630q155 0 235 -67.5t80 -175.5q0 -187 -261 -280q97 -111 227 -111z" />
    <glyph glyph-name="chayadeva" horiz-adv-x="2750" 
d="M1069 780.5q-33 -41.5 -33 -108t42 -127.5t138 -122q73 107 73 205.5t-35 146t-93.5 47.5t-91.5 -41.5zM736 177q211 0 373 130q-257 174 -257 405q0 113 79.5 195.5t210.5 82.5q39 0 77 -8h527q159 0 240.5 -72.5t81.5 -186.5q0 -203 -262 -296q99 -111 228 -111
q175 0 285 121v699h-1886q-126 -64 -126 -189.5t175 -190.5q82 29 184 30h10l52 -168h-10q-147 -3 -216.5 -64t-69.5 -154.5t82 -158t222 -64.5zM2319 0v196q-94 -57 -230 -57q-160 0 -304 95.5t-233 268.5l5 15q173 40 247.5 88.5t74.5 109.5q0 50 -48.5 82.5t-137.5 32.5
h-273q47 -88 47 -202t-51.5 -224.5t-142 -199.5t-227.5 -144.5t-280.5 -55.5t-246 35t-165.5 94q-128 121 -128 290q0 136 97 234q-111 55 -164 136t-53 174t62 168h-198v147h2810v-147h-255v-1136h-206z" />
    <glyph glyph-name="jajadeva" horiz-adv-x="2348" 
d="M762 504l-4 6l2 2q-20 78 -96 140.5t-194 92.5v151h1445v240h-1945v147h2408v-147h-256v-1136h-207v723h-390q138 -124 138 -303q0 -135 -92.5 -227t-249.5 -92q-218 0 -400 189q-40 -79 -119.5 -126t-189.5 -47q-321 0 -563 408l105 141q223 -364 435 -364
q83 0 130 42.5t47 118.5q0 22 -4 41zM1298 286q83 0 130 43t47 121.5t-61 154t-168 118.5h-427q94 -81 122 -189q181 -248 357 -248z" />
    <glyph glyph-name="jathadeva" horiz-adv-x="2295" 
d="M1864 0v328q-97 -59 -234 -59q-162 0 -312.5 88t-245.5 243h-249q131 -113 131 -278q0 -136 -92.5 -227.5t-249.5 -91.5q-321 0 -563 408l105 141q224 -364 435 -364q82 0 129.5 43t47.5 118q0 91 -78.5 164t-217.5 109v151h837q-160 31 -246 117.5t-86 202.5q0 24 4 43
h-1009v147h1105q70 47 168 47q169 0 275 -104.5t106 -262.5q0 -137 -85.5 -236.5t-229.5 -158.5q113 -121 269 -121q176 0 286 122v567h-101v147h562v-147h-255v-1136h-206zM1161 1060q0 -62 64.5 -107.5t201.5 -60.5q20 43 20 91q0 82 -50 135.5t-121 53.5q-55 0 -85 -31
t-30 -81z" />
    <glyph glyph-name="januktathadeva" horiz-adv-x="2295" 
d="M30 -59q0 48 30.5 80.5t85.5 32.5t85 -32.5t30 -80.5t-30.5 -81t-84.5 -33t-85 33t-31 81zM1864 0v328q-97 -59 -234 -59q-162 0 -312.5 88t-245.5 243h-249q131 -113 131 -278q0 -136 -92.5 -227.5t-249.5 -91.5q-321 0 -563 408l105 141q224 -364 435 -364
q82 0 129.5 43t47.5 118q0 91 -78.5 164t-217.5 109v151h837q-160 31 -246 117.5t-86 202.5q0 24 4 43h-1009v147h1105q70 47 168 47q169 0 275 -104.5t106 -262.5q0 -137 -85.5 -236.5t-229.5 -158.5q113 -121 269 -121q176 0 286 122v567h-101v147h562v-147h-255v-1136
h-206zM1161 1060q0 -62 64.5 -107.5t201.5 -60.5q20 43 20 91q0 82 -50 135.5t-121 53.5q-55 0 -85 -31t-30 -81z" />
    <glyph glyph-name="jayadeva" horiz-adv-x="2322" 
d="M1891 0v329q-97 -60 -233 -60q-168 0 -321 91.5t-247 256.5h-261q125 -108 125 -272q0 -136 -92.5 -228t-249.5 -92q-320 0 -563 409l105 141q224 -365 435 -365q83 0 130 43t47 119q0 91 -78 161t-218 106v152h845q64 74 64 194v151h-1409v147h2383v-147h-255v-1136
h-207zM1606 450q175 0 285 119v567h-305v-166q0 -146 -61 -244t-189 -154q113 -122 270 -122z" />
    <glyph glyph-name="jasadeva" horiz-adv-x="2551" 
d="M954 397q0 -135 -92.5 -227t-249.5 -92q-320 0 -563 409l105 141q224 -365 435 -365q83 0 130 43t47 119q0 92 -79 169t-217 112v151h718q54 0 94 -55l92 -126q78 37 114.5 102t36.5 164v194h-1555v147h2617v-147h-255v-1136h-207v508q-92 -23 -203 -23q-178 0 -358 73
q-39 -29 -83 -49l321 -437l-149 -100q-516 699 -525 712h-309q135 -117 135 -287zM1684 699q108 -33 220.5 -33t220.5 34v436h-394v-227q0 -119 -47 -210z" />
    <glyph glyph-name="januktayadeva" horiz-adv-x="2322" 
d="M31 -38q0 48 30.5 80.5t85.5 32.5t85 -32.5t30 -80.5t-30.5 -81t-84.5 -33t-85 33t-31 81zM1891 0v329q-97 -60 -233 -60q-168 0 -321 91.5t-247 256.5h-261q125 -108 125 -272q0 -136 -92.5 -228t-249.5 -92q-320 0 -563 409l105 141q224 -365 435 -365q83 0 130 43
t47 119q0 91 -78 161t-218 106v152h845q64 74 64 194v151h-1409v147h2383v-147h-255v-1136h-207zM1606 450q175 0 285 119v567h-305v-166q0 -146 -61 -244t-189 -154q113 -122 270 -122z" />
    <glyph glyph-name="januktasadeva" horiz-adv-x="2557" 
d="M54 -24q0 48 30.5 80.5t85.5 32.5t85 -32.5t30 -80.5t-30.5 -81t-84.5 -33t-85 33t-31 81zM954 397q0 -135 -92.5 -227t-249.5 -92q-320 0 -563 409l105 141q224 -365 435 -365q83 0 130 43t47 119q0 92 -79 169t-217 112v151h718q54 0 94 -55l92 -126q78 37 114.5 102
t36.5 164v194h-1555v147h2617v-147h-255v-1136h-207v508q-92 -23 -203 -23q-178 0 -358 73q-39 -29 -83 -49l321 -437l-149 -100q-516 699 -525 712h-309q135 -117 135 -287zM1684 699q108 -33 220.5 -33t220.5 34v436h-394v-227q0 -119 -47 -210z" />
    <glyph glyph-name="ttattadeva" horiz-adv-x="1162" 
d="M796.5 -567q-78.5 -16 -183 -16t-199.5 30t-155 81q-124 107 -124 251.5t105 230.5t307 86h89v128q-246 3 -385.5 117t-139.5 285q0 153 113 247t328 94h174v169h-756v147h1222v-147h-260v-328h-319q-154 0 -225 -55.5t-71 -147t80.5 -152t241.5 -60.5t341 68l43 -169
q-95 -38 -181 -52v-300h-231q-273 0 -273 -176q0 -78 71 -129.5t209 -51.5t311 68l43 -166q-97 -36 -175.5 -52z" />
    <glyph glyph-name="ttatthadeva" horiz-adv-x="1162" 
d="M389 -386q77 -56 223 -56t223.5 54.5t77.5 145.5q0 60 -40 110.5t-107 72.5h-180q-141 0 -207.5 -52.5t-66.5 -135.5t77 -139zM975.5 -502.5q-118.5 -95.5 -350 -95.5t-370 111t-138.5 268q0 137 109.5 229t302.5 92h110v122q-247 2 -387.5 116t-140.5 286q0 153 113 247
t328 94h174v169h-756v147h1222v-147h-260v-328h-319q-154 0 -225 -55.5t-71 -147t80.5 -152t241.5 -60.5t341 68l43 -169q-92 -36 -177 -52v-160q116 -47 182 -138.5t66 -202.5q0 -146 -118.5 -241.5z" />
    <glyph glyph-name="ttayadeva" horiz-adv-x="2314" 
d="M1883 0v173q-94 -57 -240 -57t-284 88t-237 257l6 17q171 39 243.5 81.5t72.5 91.5q0 86 -158 86h-652q-161 0 -237 -70t-76 -183.5t86 -183t239.5 -69.5t333.5 69l43 -179q-92 -35 -173.5 -50t-195.5 -15t-218.5 36t-173.5 97.5t-107 144.5t-38 177q0 175 117 280
t335 105h157v240h-756v147h2374v-147h-254v-1136h-207zM1599 293q173 0 284 120v723h-951v-240h388q153 0 231.5 -64t78.5 -173q0 -180 -254 -270q99 -96 223 -96z" />
    <glyph glyph-name="tthatthadeva" horiz-adv-x="1277" 
d="M408 -385.5q77 -56.5 223.5 -56.5t224 55t77.5 145q0 63 -38.5 112t-113.5 71h-166q-147 0 -215.5 -52.5t-68.5 -135t77 -139zM995.5 -502.5q-118.5 -95.5 -350 -95.5t-370 111t-138.5 268q0 138 110.5 229.5t311.5 91.5h102v125q-130 1 -235.5 33t-172.5 87t-103 127
t-36 155q0 148 117.5 243t323.5 95h281v169h-866v147h1337v-147h-264v-247q124 -140 124 -304q0 -111 -75.5 -202.5t-223.5 -130.5v-173q121 -50 183.5 -139.5t62.5 -200.5q0 -146 -118.5 -241.5zM399.5 450.5q84.5 -60.5 244.5 -60.5t244.5 63t84.5 154q0 124 -102 201
h-250q-157 0 -231.5 -56.5t-74.5 -148.5t84.5 -152.5z" />
    <glyph glyph-name="tthayadeva" horiz-adv-x="2491" 
d="M397 293.5q91 -77.5 253 -77.5t253.5 77t91.5 197q0 146 -123 248h-229q-172 0 -254.5 -68.5t-82.5 -183.5t91 -192.5zM2059 0v174q-96 -57 -229 -57q-156 0 -294.5 88.5t-237.5 256.5l6 17q171 40 243.5 82t72.5 92q0 84 -158 84h-365q84 -129 85 -269q2 -177 -126 -300
q-62 -59 -162.5 -93.5t-225.5 -34.5q-255 0 -407.5 136.5t-152.5 338.5q0 172 123 276.5t334 104.5h274v240h-869v147h2551v-147h-256v-1136h-206zM1774 295q175 0 285 119v722h-1014v-240h451q152 0 230.5 -63.5t78.5 -172.5q0 -180 -252 -270q98 -95 221 -95z" />
    <glyph glyph-name="ddaddhadeva" horiz-adv-x="1187" 
d="M633 -464q129 0 187.5 29t58.5 69t-31 63t-93.5 23t-104.5 -35.5t-42 -84.5q0 -33 11 -64h14zM645 -592q-136 0 -245 31.5t-176 84.5q-140 111 -140 265q0 125 98 211q50 44 135 69t197 25h130v92h-1q-257 0 -538 126l38 154q260 -130 476 -130q131 0 190.5 34t59.5 84
t-44 79.5t-137 29.5q-136 0 -267 -70h-14q-124 51 -188.5 124.5t-64.5 157t75 143t229 59.5h282v159h-770v147h1247v-147h-270v-300h-453q-157 0 -157 -92q0 -59 66 -94q137 60 300.5 60t258 -71.5t94.5 -184.5q0 -87 -51.5 -150.5t-157.5 -93.5v-262h-276q-304 0 -304 -194
q0 -66 49.5 -118t140.5 -78q-6 32 -6 69q0 85 76 149.5t217 64.5t215 -60t74 -153t-98.5 -156.5t-289.5 -63.5z" />
    <glyph glyph-name="ddaddadeva" horiz-adv-x="1187" 
d="M651 -618q-136 0 -254.5 25.5t-265.5 88.5l38 143q245 -120 452 -120q114 0 169 32.5t55 75t-41 68t-110.5 25.5t-139 -18t-122.5 -44h-13q-124 52 -181 115t-57 140.5t66 129.5t196 52h254v92q-17 -1 -54 -1q-257 0 -538 126l38 154q260 -130 476 -130q131 0 190.5 34
t59.5 84t-44 79.5t-137 29.5q-136 0 -267 -70h-14q-124 51 -188.5 124.5t-64.5 157t75 143t229 59.5h282v159h-770v147h1247v-147h-270v-300h-453q-157 0 -157 -92q0 -59 66 -94q137 60 300.5 60t258 -71.5t94.5 -184.5q0 -157 -155 -224v-266h-430q-59 0 -88 -22t-29 -57
q0 -49 59 -81q137 54 287.5 54t236 -64t85.5 -169.5t-92.5 -174t-278.5 -68.5z" />
    <glyph glyph-name="ddayadeva" horiz-adv-x="2384" 
d="M1952 0v208q-96 -64 -249 -64t-294.5 91.5t-233.5 264.5l5 15q322 74 322 185q0 46 -38 73.5t-120 27.5h-869q-67 0 -101.5 -30.5t-34.5 -78.5q0 -73 79 -119q123 55 270 55q175 0 273.5 -82t98.5 -217t-105 -225t-315 -90q-259 0 -525 136l46 162q235 -136 453 -136
q124 0 189 45.5t65 117.5q0 57 -47.5 91.5t-132.5 34.5q-135 0 -254 -72h-15q-271 127 -271 328q0 97 74.5 163t218.5 66h299v186h-770v147h2444v-147h-255v-1136h-207zM1656 321q185 0 296 132v683h-1005v-186h441q147 0 224.5 -67.5t77.5 -177.5q0 -93 -67 -164t-193 -116
q96 -104 226 -104z" />
    <glyph glyph-name="ddhaddhadeva" horiz-adv-x="1178" 
d="M648 -464q127 0 185 29t58 69t-30 63t-91 23t-103 -35.5t-42 -84.5q0 -33 11 -64h12zM659 -594q-133 0 -240.5 31t-174.5 84q-138 109 -138 264q0 125 98 213q50 45 135.5 70.5t197.5 25.5h121v121q-264 8 -411 126t-147 290q0 144 117.5 240t341.5 96h168v169h-757v147
h1238v-147h-274v-321h-305q-338 0 -338 -223q0 -75 57.5 -134t157.5 -88q-11 36 -11 81q0 97 81 164t225 67t225 -65t81 -163q0 -77 -63.5 -136.5t-181.5 -85.5v-284h-269q-303 0 -303 -194q0 -67 47 -118.5t137 -77.5q-7 29 -7 69q0 85 76 149.5t216 64.5t213 -60t73 -153
t-98.5 -157.5t-287.5 -64.5zM662 424q0 -38 18 -77q126 0 192.5 33.5t66.5 77.5t-33.5 66.5t-97.5 22.5t-105 -33.5t-41 -89.5z" />
    <glyph glyph-name="ddhayadeva" horiz-adv-x="2413" 
d="M704 165q128 0 197 41.5t69 101.5q0 46 -35 74t-102.5 28t-111.5 -42t-44 -98.5t23 -104.5h4zM1980 0v174q-96 -57 -228 -57q-157 0 -295 88.5t-237 256.5l6 17q171 39 243.5 82t72.5 93q0 87 -158 87h-748q-178 0 -259 -73t-81 -193q0 -86 60 -161t162 -115
q-13 43 -13 98q0 107 81.5 180.5t227.5 73.5t234 -73t88 -179q0 -120 -105 -196t-306 -76q-134 0 -251 39.5t-197 106t-126 154t-46 176t27.5 157t82 122.5t144.5 84t207 30h184v240h-780v147h2473v-147h-256v-1136h-207zM1696 295q175 0 284 118v723h-1023v-237h461
q152 0 230.5 -63.5t78.5 -173.5q0 -182 -252 -272q98 -95 221 -95z" />
    <glyph glyph-name="tatadeva" horiz-adv-x="1353" 
d="M33 722v174h889v240h-952v147h1413v-147h-255v-1136h-206v721h-218q-134 0 -201 -63t-67 -169q0 -183 186 -448l-174 -58q-100 141 -155.5 288t-54 259.5t45.5 191.5h-251z" />
    <glyph glyph-name="tataprehalfdeva" horiz-adv-x="792" 
d="M235 511q0 94 41 166h-252v174h979l-5 -174h-299q-139 0 -202.5 -59.5t-63.5 -159.5q0 -170 167 -417l-173 -58q-192 289 -192 528zM822 1283v-147h-852v147h852z" />
    <glyph glyph-name="takhadeva" horiz-adv-x="2465" 
d="M535 827h271q36 -1 62.5 -19t56.5 -61l32 -51q86 41 120 105.5t34 169.5v165h-1141v147h2525v-147h-256v-1136h-207v66q-148 -41 -339 -41t-380.5 71t-318.5 200q-72 73 -138.5 168t-107.5 176q-1 2 -2.5 5.5t-2.5 5.5h-152q-144 0 -211 -56.5t-67 -141t40 -177
t144 -247.5l-172 -57q-112 165 -161 288.5t-48 232.5q1 148 106.5 241t312.5 93zM1805 522q132 0 227 86v163q-103 46 -216 46q-86 0 -132 -41.5t-46 -105t47 -106t120 -42.5zM1384 242.5q150 -58.5 324 -58.5t324 58v175q-88 -48 -212 -48q-146 0 -247.5 94.5t-101.5 234.5
q0 119 82 193t225.5 74t253.5 -44v215h-714v-180q0 -74 -11.5 -133t-40.5 -119q-59 -120 -225 -198q37 -49 91 -103q102 -102 252 -160.5z" />
    <glyph glyph-name="tathadeva" horiz-adv-x="1984" 
d="M501 813q216 0 419 -92q54 27 86 50q-165 29 -253.5 116.5t-88.5 205.5q0 24 4 43h-698v147h723v-77q31 57 92.5 90.5t146.5 33.5q169 0 275 -104.5t106 -262.5q0 -137 -85.5 -236.5t-229.5 -158.5q113 -121 269 -121q176 0 286 122v567h-101v147h562v-147h-255v-1136
h-206v328q-97 -59 -245.5 -59t-297 85t-243.5 237q-101 39 -217 39t-176 -50.5t-60 -131t42.5 -173t141.5 -235.5l-173 -57q-107 155 -158 277.5t-51 231.5q1 143 103.5 232t281.5 89zM850 1060q0 -62 64.5 -107.5t201.5 -60.5q20 43 20 91q0 82 -50 135.5t-121 53.5
q-55 0 -85 -31t-30 -81z" />
    <glyph glyph-name="tanadeva" horiz-adv-x="1923" 
d="M118 490q0 148 101.5 232.5t311.5 84.5h960v329h-1521v147h1983v-147h-255v-1136h-207v635h-427v-206q0 -42 -20.5 -66t-58 -24t-77 39.5t-74 112t-47.5 144.5h-203q-143 0 -205 -49.5t-62 -141.5q0 -68 39.5 -161t140.5 -243l-173 -57q-206 300 -206 507z" />
    <glyph glyph-name="tasadeva" horiz-adv-x="2169" 
d="M594 681q-144 0 -211 -59.5t-67 -149t40 -185.5t144 -251l-174 -56q-111 163 -160 291t-49 241q0 153 106.5 249t314.5 96h269q54 0 94 -55l92 -126q78 37 114.5 102t36.5 164v194h-1174v147h2236v-147h-255v-1136h-207v508q-92 -23 -203 -23q-178 0 -358 73
q-39 -29 -83 -49l321 -437l-149 -100q-519 703 -523 709h-155zM1303 699q108 -33 220.5 -33t220.5 34v436h-394v-227q0 -119 -47 -210z" />
    <glyph glyph-name="tayadeva" horiz-adv-x="1959" 
d="M219.5 724q102.5 89 292 89t375.5 -78q69 46 98.5 106.5t29.5 143.5v151h-1045v147h2019v-147h-255v-1136h-207v329q-97 -60 -233 -60q-164 0 -314 87.5t-245 245.5q-84 28 -192.5 28t-168.5 -50.5t-60 -131t42.5 -173t141.5 -235.5l-173 -57q-107 155 -158 277.5
t-51 231.5q1 143 103.5 232zM1242 450q175 0 285 119v567h-305v-166q0 -146 -61 -244t-189 -154q113 -122 270 -122z" />
    <glyph glyph-name="daghadeva" horiz-adv-x="1451" 
d="M965 -227.5q-102 -65.5 -233.5 -65.5t-216.5 80t-85 198q0 32 6 67q-44 -9 -106 -9q-131 0 -219 78.5t-88 199.5t96.5 206t250.5 85q36 0 52 -1q25 128 135 208t300 80h159v237h-1046v147h1511v-147h-258v-393h-299q-161 0 -237.5 -65.5t-76.5 -170t87.5 -173.5
t221.5 -69q31 0 46 1q-25 49 -23.5 92t35.5 69.5t101 26.5q104 0 183 -42.5t79 -99.5q0 -39 -32 -80.5t-92 -72.5l178 -351l-157 -66l-106 210q-64 -114 -166 -179.5zM734 -138q90 0 164.5 66t106.5 179q-15 -1 -46 -1q-148 0 -265 46q-97 -67 -99 -165q0 -57 36.5 -91
t102.5 -34zM356 184q97 0 184 49q2 3 8 7q-105 92 -127 227q-8 1 -24 1q-92 0 -143 -44.5t-51 -107t43 -97.5t110 -35z" />
    <glyph glyph-name="dagadeva" horiz-adv-x="1139" 
d="M497 -299.5q-16 -22.5 -61.5 -22.5t-111 31.5t-113 78.5t-47.5 85q0 57 68 66l73 8l-30 262q-83 58 -127.5 142.5t-44.5 186.5q0 151 105 252q53 51 139 80t197 29h160v237h-734v147h1199v-147h-258v-393h-300q-161 0 -237.5 -65.5t-76.5 -170t88 -173.5t221 -69
q32 0 47 1q-25 49 -23.5 92t35.5 69.5t100 26.5q104 0 183 -42.5t79 -99.5q0 -39 -31.5 -80.5t-91.5 -72.5l178 -351l-158 -66l-186 369q-47 -5 -117 -5t-155 20l42 -357q5 -46 -11 -68.5z" />
    <glyph glyph-name="dabadeva" horiz-adv-x="1139" 
d="M654 -232.5q-103 -64.5 -215.5 -64.5t-191 43.5t-118 111.5t-39.5 145q0 152 122 260q-109 112 -109 275q0 151 105 252q53 51 139 80t197 29h160v237h-734v147h1199v-147h-258v-393h-300q-161 0 -237.5 -65.5t-76.5 -170t88 -173.5t221 -69q32 0 47 1q-25 49 -23.5 92
t35.5 69.5t100 26.5q104 0 183 -42.5t79 -99.5q0 -39 -31.5 -80.5t-91.5 -72.5l178 -351l-158 -66l-102 203q-65 -113 -168 -177.5zM422 -149q49 0 99 22l-216 252q-51 -58 -49.5 -124.5t48 -108t118.5 -41.5zM647 106q-103 0 -187 22l156 -183q60 66 85 163q-36 -2 -54 -2z
" />
    <glyph glyph-name="dabhadeva" horiz-adv-x="1349" 
d="M757 -238q24 -33 24 -60t-34.5 -47.5t-104.5 -20.5q-108 0 -185.5 34.5t-77.5 79.5q0 37 40 69l60 46l-67 94q-101 -91 -209 -91t-178.5 64.5t-70.5 153.5t64.5 150t172.5 61q170 0 287 -156l138 -182l216 149q-233 7 -376 126t-143 306q0 155 112.5 258t329.5 103h160
v237h-945v147h1409v-147h-258v-393h-299q-161 0 -237.5 -65.5t-76.5 -170t87.5 -173.5t221.5 -69q31 0 46 1q-25 49 -23.5 92t35.5 69.5t101 26.5q104 0 183 -42.5t79 -99.5q0 -39 -32 -80.5t-92 -72.5l179 -352l-157 -66l-143 283l-281 -198zM339 61q-64 96 -142 96
q-43 0 -68.5 -24t-25.5 -60t24 -58t65 -22q78 0 147 68z" />
    <glyph glyph-name="davadeva" horiz-adv-x="1139" 
d="M654 -232.5q-103 -64.5 -215.5 -64.5t-191 43.5t-118 111.5t-39.5 145q0 152 122 260q-109 112 -109 275q0 151 105 252q53 51 139 80t197 29h160v237h-734v147h1199v-147h-258v-393h-300q-161 0 -237.5 -65.5t-76.5 -170t88 -173.5t221 -69q32 0 47 1q-25 49 -23.5 92
t35.5 69.5t100 26.5q104 0 183 -42.5t79 -99.5q0 -39 -31.5 -80.5t-91.5 -72.5l178 -351l-158 -66l-102 203q-65 -113 -168 -177.5zM307 -102.5q42 -37.5 123 -37.5t158.5 67.5t109.5 180.5q-32 -2 -51 -2q-164 0 -293 58q-91 -72 -91 -167q2 -62 44 -99.5z" />
    <glyph glyph-name="dadhadeva" horiz-adv-x="1486" 
d="M1000.5 -228q-101.5 -65 -233.5 -65t-217 80t-85 198q0 32 6 67q-44 -10 -113 -10q-160 0 -263.5 89t-103.5 227q0 103 59.5 171t158.5 68t158 -59.5t59 -154.5q0 -57 -26.5 -108.5t-72.5 -87.5q21 -3 42 -3q117 0 206 50q1 1 3.5 3t3.5 3q-133 117 -133 298
q0 155 112.5 258t329.5 103h160v237h-1081v147h1546v-147h-258v-393h-300q-161 0 -237.5 -65.5t-76.5 -170t88 -173.5t221 -69q32 0 47 1q-25 49 -23.5 92t35.5 69.5t100 26.5q104 0 183 -42.5t79 -99.5q0 -39 -31.5 -80.5t-91.5 -72.5l178 -351l-158 -66l-105 209
q-64 -114 -165.5 -179zM769 -138q90 0 164.5 66t107.5 179q-15 -1 -47 -1q-148 0 -265 46q-98 -69 -98 -165q0 -57 36 -91t102 -34zM145 349q0 -65 55 -111q89 63 89 148q0 33 -17.5 52.5t-50.5 19.5t-54.5 -30t-21.5 -79z" />
    <glyph glyph-name="dadhayadeva" horiz-adv-x="2582" 
d="M1000.5 -228q-101.5 -65 -233.5 -65t-217 80t-85 198q0 32 6 67q-44 -10 -113 -10q-160 0 -263.5 89t-103.5 227q0 103 59.5 171t158.5 68t158 -59.5t59 -154.5q0 -57 -26.5 -108.5t-72.5 -87.5q21 -3 42 -3q117 0 206 50q1 1 3.5 3t3.5 3q-133 117 -133 298
q0 155 112.5 258t329.5 103h160v237h-1081v147h2642v-147h-255v-1136h-206v173q-94 -57 -240 -57t-284 88t-237 257l6 17q176 37 246.5 79t70.5 97q0 89 -168 89h-587q-161 0 -237.5 -65.5t-76.5 -170t88 -173.5t221 -69q32 0 47 1q-25 49 -23.5 92t35.5 69.5t100 26.5
q104 0 183 -42.5t79 -99.5q0 -39 -31.5 -80.5t-91.5 -72.5l178 -351l-158 -66l-105 209q-64 -114 -165.5 -179zM769 -138q90 0 164.5 66t107.5 179q-15 -1 -47 -1q-148 0 -265 46q-98 -69 -98 -165q0 -57 36 -91t102 -34zM145 349q0 -65 55 -111q89 63 89 148
q0 33 -17.5 52.5t-50.5 19.5t-54.5 -30t-21.5 -79zM1867 293q174 0 284 119v724h-893v-237h316q159 0 241.5 -67.5t82.5 -174.5q0 -186 -251 -269q98 -95 220 -95z" />
    <glyph glyph-name="dadadeva" horiz-adv-x="1145" 
d="M669 -104q-231 0 -366.5 108t-135.5 272q0 104 62 188q-140 103 -140 242q0 98 75.5 164t215.5 66h335v200h-745v147h1205v-147h-254v-351h-483q-75 0 -111 -31.5t-36 -79.5q0 -62 66 -107q107 52 249 52q203 0 362 -66l-33 -142q-128 49 -276 49t-222.5 -59
t-74.5 -145.5t72.5 -143t199.5 -56.5q29 0 43 1q-57 113 10 164q33 25 103 25q106 0 186.5 -42.5t80.5 -100.5q0 -40 -33 -81.5t-96 -72.5l142 -277l-158 -66l-150 296q-44 -6 -93 -6z" />
    <glyph glyph-name="damadeva" horiz-adv-x="1574" 
d="M1145 -1v245h-283v-105q0 -88 -71 -88q-30 0 -70.5 22t-84 66t-74.5 98.5t-31 95t26 63t72 22.5h20q-31 37 -106 37h-107q-155 0 -250.5 79.5t-95.5 188t72.5 171.5t224.5 63h219v179h-636v147h1634v-147h-252v-1137h-207zM575 618q127 0 201.5 -56t90.5 -144h278v718
h-333v-333h-369q-148 0 -148 -94q0 -42 36 -66.5t98 -24.5h146z" />
    <glyph glyph-name="dayadeva" horiz-adv-x="1491" 
d="M1059 -1v150q-143 -93 -325.5 -93t-289.5 90t-107 220q0 36 9 70q-142 37 -219 116.5t-77 180t75.5 163.5t225.5 63h167v177h-548v147h1551v-147h-255v-1137h-207zM588.5 259.5q48.5 -34.5 134 -34.5t178 41t158.5 117v753h-335v-324h-317q-158 0 -158 -106q0 -48 49 -84
t148 -53q108 72 302 72h29l43 -152h-16q-138 0 -201 -41t-63 -97.5t48.5 -91z" />
    <glyph glyph-name="dayaprehalfdeva" horiz-adv-x="976" 
d="M727 56q-176 0 -283 90t-107 220q0 36 9 70q-142 37 -219 116.5t-77 180t75.5 163.5t225.5 63h167v177h-548v147h1036v-147h-282v-324h-317q-158 0 -158 -106q0 -48 49 -84t148 -53q108 72 302 72h29l43 -152h-16q-138 0 -201 -41t-63 -97.5t48.5 -91t128.5 -34.5
q290 0 509 335l125 -139q-269 -365 -624 -365z" />
    <glyph glyph-name="nabhadeva" horiz-adv-x="1904" 
d="M1472 0v494h-392v-99q0 -88 -73 -88q-37 0 -86.5 25.5t-94 70t-71.5 92.5h-371v-205q0 -43 -20.5 -67t-57.5 -24t-81 44t-84.5 140.5t-40.5 175.5q0 109 120 109h662v108q-219 9 -332 98.5t-113 231.5q0 10 2 30h-469v147h542q77 72 206 72q165 0 263.5 -101t98.5 -262
v-324h392v468h-142v147h604v-147h-255v-1136h-207zM621 1083q0 -145 261 -153v87q0 78 -41.5 126.5t-100.5 48.5t-89 -33t-30 -76z" />
    <glyph glyph-name="namadeva" horiz-adv-x="1891" 
d="M1460 0v494h-421v-99q0 -88 -73 -88q-38 0 -87.5 25.5t-93 69.5t-72.5 93h-326v-205q0 -43 -20.5 -67t-57.5 -24t-81.5 44t-84.5 141t-40 175q0 109 120 109h609v468h-862v147h1951v-147h-255v-1136h-206zM1460 1136h-421v-468h421v468z" />
    <glyph glyph-name="lajadeva" horiz-adv-x="2794" 
d="M2362 0v723h-390q138 -124 138 -303q0 -135 -92.5 -227t-249.5 -92q-318 0 -560 405l-1 -1q-39 61 -76 87.5t-80 26.5q-155 0 -292 -316l-165 81q51 126 114 216q-95 89 -209 89q-91 0 -145 -56.5t-54 -141t57 -177t186 -213.5l-155 -95q-286 267 -286 524
q0 145 98 243.5t265 98.5q200 0 359 -143q100 80 211 80q88 0 153 -37t122 -121l2 -3q119 -194 225 -278t208 -84q83 0 130 43t47 119q0 94 -80.5 178t-215.5 119v151h736v240h-2392v147h2855v-147h-256v-1136h-207z" />
    <glyph glyph-name="lazadeva" horiz-adv-x="2794" 
d="M1182 5q0 48 30.5 80.5t85.5 32.5t85 -32.5t30 -80.5t-30.5 -81t-84.5 -33t-85 33t-31 81zM2362 0v723h-390q138 -124 138 -303q0 -135 -92.5 -227t-249.5 -92q-318 0 -560 405l-1 -1q-39 61 -76 87.5t-80 26.5q-155 0 -292 -316l-165 81q51 126 114 216q-95 89 -209 89
q-91 0 -145 -56.5t-54 -141t57 -177t186 -213.5l-155 -95q-286 267 -286 524q0 145 98 243.5t265 98.5q200 0 359 -143q100 80 211 80q88 0 153 -37t122 -121l2 -3q119 -194 225 -278t208 -84q83 0 130 43t47 119q0 94 -80.5 178t-215.5 119v151h736v240h-2392v147h2855
v-147h-256v-1136h-207z" />
    <glyph glyph-name="lathadeva" horiz-adv-x="2405" 
d="M1973 0v328q-97 -59 -234 -59q-163 0 -313 88t-245 244q-45 23 -106 23q-80 0 -160 -78t-153 -243l-167 82q51 121 115 213q-97 91 -211 91q-91 0 -145 -56.5t-54 -141t57 -177t186 -213.5l-156 -95q-286 270 -286 524q0 145 98.5 244t265.5 99q200 0 363 -148
q105 82 228 82q147 0 268 -94q59 28 102 58q-165 29 -253.5 116.5t-88.5 205.5q0 24 4 43h-1118v147h1210v-3q71 50 172 50q169 0 275 -104.5t106 -262.5q0 -137 -85.5 -236.5t-229.5 -158.5q113 -121 269 -121q176 0 286 122v567h-101v147h562v-147h-255v-1136h-206z
M1270 1060q0 -62 64.5 -107.5t201.5 -60.5q20 43 20 91q0 82 -50 135.5t-121 53.5q-55 0 -85 -31t-30 -81z" />
    <glyph glyph-name="labhadeva" horiz-adv-x="2410" 
d="M101 517q0 145 98.5 244t265.5 99q205 0 366 -151q100 72 216 72q164 0 297 -113h43v108q-219 9 -332 98.5t-113 231.5q0 10 2 30h-974v147h1047q77 72 206 72q165 0 263.5 -101t98.5 -262v-324h392v468h-142v147h604v-147h-255v-1136h-207v494h-392v-99q0 -88 -73 -88
q-37 0 -86.5 25.5t-92.5 68.5q-63 61 -91 129q-71 68 -167 68q-180 0 -313 -301l-167 82q53 125 115 207q-97 91 -211 91q-91 0 -145 -56.5t-54 -141t55.5 -177t184.5 -210.5l-155 -95q-136 128 -210 260.5t-74 259.5zM1126 1083q0 -145 261 -153v87q0 78 -41.5 126.5
t-100.5 48.5t-89 -33t-30 -76z" />
    <glyph glyph-name="lamadeva" horiz-adv-x="2408" 
d="M1977 0v494h-421v-99q0 -88 -73 -88q-38 0 -87.5 25.5t-94 70t-73.5 96t-30 92.5q-52 33 -127.5 33t-155.5 -78t-153 -243l-167 82q51 121 115 213q-97 91 -211 91q-91 0 -145 -56.5t-54 -141t57 -177t186 -213.5l-155 -94q-287 266 -287 523q0 145 98.5 244t265.5 99
q200 0 363 -148q105 82 228 82q162 0 293 -116v445h-1379v147h2468v-147h-255v-1136h-206zM1977 1136h-421v-468h421v468z" />
    <glyph glyph-name="layadeva" horiz-adv-x="2397" 
d="M1965 0v329q-97 -60 -233 -60q-165 0 -315.5 88.5t-245.5 248.5q-42 18 -96 18q-80 0 -160 -78t-153 -243l-167 82q51 121 115 213q-97 91 -211 91q-91 0 -145 -56.5t-54 -141t57 -177t186 -213.5l-156 -95q-286 270 -286 524q0 145 98.5 244t265.5 99q200 0 363 -148
q105 82 236.5 82t244.5 -82q78 48 111 110.5t33 149.5v151h-1483v147h2457v-147h-255v-1136h-207zM1680 450q175 0 285 119v567h-305v-166q0 -146 -61 -244t-189 -154q113 -122 270 -122z" />
    <glyph glyph-name="ssattadeva" horiz-adv-x="1237" 
d="M641 -105q-217 0 -345.5 107.5t-128.5 279.5q0 83 37.5 153t107.5 117q-146 106 -146 309v275h-196v147h1297v-147h-226v-313q0 -166 -108 -261.5t-316 -95.5h-19q-104 -6 -166.5 -61t-61.5 -141t69.5 -140.5t186.5 -54.5q88 0 164.5 18t170.5 61l48 -173
q-101 -44 -182.5 -62t-185.5 -18zM432.5 681q62.5 -45 145 -45t135.5 15l-343 430v-268q0 -87 62.5 -132zM837 835v301h-339l320 -401q19 39 19 100z" />
    <glyph glyph-name="ssatthadeva" horiz-adv-x="1237" 
d="M414 112q74 -57 208 -57t207.5 59.5t73.5 152.5q0 61 -35.5 114.5t-97.5 84.5h-140q-150 0 -220 -59t-70 -148.5t74 -146.5zM432.5 681q62.5 -45 145 -45t135.5 15l-343 430v-268q0 -87 62.5 -132zM837 835v301h-339l320 -401q19 39 19 100zM638 -106q-119 0 -215 31
t-156 85q-124 110 -124 271q0 88 40.5 161t117.5 119q-135 105 -135 300v275h-196v147h1297v-147h-226v-313q0 -171 -112 -265q164 -119 164 -312q0 -148 -120 -250t-335 -102z" />
    </font>
</defs>
</svg>
