<?xml version="1.0" encoding="UTF-8" standalone="no"?>
<!DOCTYPE svg PUBLIC "-//W3C//DTD SVG 1.1//EN" "http://www.w3.org/Graphics/SVG/1.1/DTD/svg11.dtd">
<svg width="100%" height="100%" viewBox="0 0 2660 570" version="1.1" xmlns="http://www.w3.org/2000/svg" xmlns:xlink="http://www.w3.org/1999/xlink" xml:space="preserve" xmlns:serif="http://www.serif.com/" style="fill-rule:evenodd;clip-rule:evenodd;">
    <g id="Artboard1" transform="matrix(0.954522,0,0,0.905494,66.3429,113.847)">
        <rect x="-69.504" y="-96.896" width="2664.05" height="600.961" style="fill:none;"/>
        <g id="Khronos" transform="matrix(1.00174,0,0,1.05598,-63.8554,-28.1089)">
            <g>
                <path d="M44.618,263.079L1.206,263.079L1.206,41.086L44.618,41.086L44.618,263.079ZM45.276,152.795L112.477,41.086L160.931,41.086L89.674,151.26L160.931,262.97L112.477,262.97L45.276,152.795Z" style="fill-rule:nonzero;"/>
                <path d="M309.365,172.966L309.365,263.079L265.953,263.079L265.953,41.086L309.365,41.086L309.365,131.199L380.951,131.199L380.951,41.086L424.363,41.086L424.363,263.079L380.951,263.079L380.951,172.966L309.365,172.966Z" style="fill-rule:nonzero;"/>
                <path d="M595.599,263.079L552.078,263.079L552.078,41.086L604.808,41.086C621.581,41.086 634.078,41.634 642.3,42.84C650.522,44.046 657.538,45.91 663.239,48.541C675.846,54.46 685.493,62.682 692.07,73.207C698.648,83.84 702.046,96.228 702.046,110.479C702.046,127.691 697.332,142.271 687.905,154.22C678.477,166.17 665.65,173.734 649.426,177.023L704.897,263.079L653.153,263.079L595.599,160.14L595.599,263.079ZM595.49,149.287L605.137,149.287C622.787,149.287 636.161,146.108 645.37,139.75C654.469,133.391 659.073,124.073 659.073,111.905C659.073,100.065 655.236,91.405 647.562,85.814C639.888,80.223 627.939,77.372 611.714,77.372L595.49,77.372L595.49,149.287Z" style="fill-rule:nonzero;"/>
                <path d="M1318.04,263.079L1275.4,263.079L1275.4,41.086L1316.62,41.086L1408.48,182.833L1408.48,41.086L1451.13,41.086L1451.13,263.079L1410.78,263.079L1318.04,117.057L1318.04,263.079Z" style="fill-rule:nonzero;"/>
                <path d="M1569.52,151.589C1569.52,139.421 1571.16,127.91 1574.45,117.057C1577.74,106.204 1582.57,96.118 1588.92,86.691C1599.89,70.685 1613.7,58.407 1630.25,49.747C1646.81,41.086 1664.89,36.701 1684.52,36.701C1699.32,36.701 1713.46,39.551 1727.16,45.252C1740.87,50.952 1753.03,59.174 1763.89,69.808C1774.96,80.88 1783.4,93.378 1789.21,107.191C1795.02,121.004 1797.87,135.584 1797.87,150.822C1797.87,166.718 1795.13,181.517 1789.65,195.44C1784.17,209.362 1776.16,221.75 1765.64,232.493C1755.01,243.785 1742.51,252.445 1728.37,258.475C1714.23,264.504 1699.32,267.574 1683.86,267.574C1667.31,267.574 1652.07,264.614 1638.04,258.694C1624.11,252.774 1611.73,244.114 1600.98,232.493C1590.57,221.531 1582.78,209.253 1577.41,195.549C1572.15,181.846 1569.52,167.156 1569.52,151.589ZM1614.9,150.055C1614.9,159.592 1616.44,168.472 1619.62,176.694C1622.8,184.916 1627.4,192.48 1633.65,199.277C1640.45,206.731 1648.23,212.432 1656.89,216.378C1665.55,220.435 1674.54,222.408 1683.75,222.408C1703.15,222.408 1719.49,215.501 1732.64,201.688C1745.8,187.876 1752.38,170.664 1752.38,150.055C1752.38,131.199 1745.69,115.084 1732.42,101.709C1719.16,88.335 1703.15,81.648 1684.52,81.648C1665.11,81.648 1648.56,88.335 1635.08,101.6C1621.7,114.974 1614.9,131.089 1614.9,150.055Z" style="fill-rule:nonzero;"/>
                <path d="M1902.67,194.344L1942.46,194.234L1942.46,197.413C1942.46,206.731 1944.88,214.186 1949.7,219.777C1954.52,225.368 1960.99,228.218 1968.99,228.218C1977.65,228.218 1984.45,225.587 1989.49,220.435C1994.54,215.173 1997.06,208.156 1997.06,199.167C1997.06,184.916 1986.86,174.611 1966.47,168.472C1963.84,167.704 1961.76,167.047 1960.22,166.498C1943.01,161.127 1930.19,153.453 1921.85,143.587C1913.52,133.72 1909.36,121.113 1909.36,105.985C1909.36,85.156 1915.17,68.383 1926.68,55.776C1938.19,43.169 1953.54,36.811 1972.83,36.811C1990.81,36.811 2005.17,42.402 2015.8,53.583C2026.44,64.765 2032.47,80.552 2033.67,100.723L1994.32,100.723L1994.32,98.859C1994.32,91.843 1992.12,86.142 1987.85,81.867C1983.57,77.592 1977.98,75.399 1971.08,75.399C1963.95,75.399 1958.36,77.592 1954.19,82.086C1950.03,86.581 1948.06,92.61 1948.06,100.284C1948.06,103.573 1948.49,106.423 1949.37,108.835C1950.25,111.356 1951.56,113.549 1953.43,115.522C1957.59,120.127 1966.58,124.292 1980.29,128.239C1986.42,129.883 1991.03,131.199 1994.32,132.405C2009.56,137.557 2020.85,145.012 2028.08,154.659C2035.32,164.306 2038.93,176.694 2038.93,191.713C2038.93,214.624 2032.58,232.932 2019.86,246.855C2007.14,260.777 1990.26,267.683 1969.32,267.683C1949.48,267.683 1933.58,260.996 1921.31,247.622C1909.25,234.028 1903,216.269 1902.67,194.344Z" style="fill-rule:nonzero;"/>
            </g>
            <g>
                <path d="M14.69,499.543C12.059,499.543 9.757,499.324 7.893,498.776C6.029,498.227 4.495,497.46 3.289,496.583C2.083,495.596 1.206,494.5 0.767,493.185C0.219,491.869 -0,490.444 -0,488.8L-0,465.559C-0,464.024 0.219,462.489 0.767,461.174C1.316,459.858 2.193,458.652 3.289,457.775C4.495,456.789 6.029,456.021 7.893,455.583C9.757,455.035 12.059,454.815 14.69,454.815L52.621,454.815L52.621,461.503L14.69,461.503C10.743,461.503 8.77,462.928 8.77,465.668L8.77,489.019C8.77,491.759 10.743,493.185 14.69,493.185L52.621,493.185L52.621,499.872L14.69,499.872L14.69,499.543Z" style="fill-rule:nonzero;stroke:black;stroke-width:1.07px;"/>
                <path d="M85.837,499.543C83.206,499.543 80.904,499.324 79.041,498.776C77.177,498.227 75.642,497.46 74.436,496.583C73.23,495.596 72.353,494.5 71.915,493.185C71.367,491.869 71.147,490.444 71.147,488.8L71.147,465.559C71.147,464.024 71.367,462.489 71.915,461.174C72.463,459.858 73.34,458.652 74.436,457.775C75.642,456.789 77.177,456.021 79.041,455.583C80.904,455.035 83.206,454.815 85.837,454.815L116.862,454.815C119.493,454.815 121.795,455.035 123.658,455.583C125.522,456.131 127.057,456.898 128.263,457.775C129.469,458.762 130.346,459.858 130.784,461.174C131.332,462.489 131.551,464.024 131.551,465.559L131.551,488.8C131.551,490.444 131.332,491.869 130.784,493.185C130.236,494.5 129.359,495.596 128.263,496.583C127.057,497.57 125.522,498.337 123.658,498.776C121.795,499.324 119.493,499.543 116.862,499.543L85.837,499.543ZM122.781,465.34C122.781,462.599 120.808,461.174 116.862,461.174L85.728,461.174C81.781,461.174 79.808,462.599 79.808,465.34L79.808,488.69C79.808,491.431 81.781,492.856 85.728,492.856L116.862,492.856C120.808,492.856 122.781,491.431 122.781,488.69L122.781,465.34Z" style="fill-rule:nonzero;stroke:black;stroke-width:1.07px;"/>
                <path d="M209.276,499.543L159.068,464.572L159.068,499.543L151.284,499.543L151.284,454.596L159.068,454.596L205.878,488.032L205.878,454.596L213.662,454.596L213.662,499.543L209.276,499.543Z" style="fill-rule:nonzero;stroke:black;stroke-width:1.07px;"/>
                <path d="M291.606,499.543L241.397,464.572L241.397,499.543L233.613,499.543L233.613,454.596L241.397,454.596L288.207,488.032L288.207,454.596L295.991,454.596L295.991,499.543L291.606,499.543Z" style="fill-rule:nonzero;stroke:black;stroke-width:1.07px;"/>
                <path d="M315.724,499.762L315.724,454.596L364.178,454.596L364.178,461.283L324.603,461.283L324.603,472.575L362.095,472.575L362.095,479.262L324.603,479.262L324.603,493.075L364.178,493.075L364.178,499.762L315.724,499.762Z" style="fill-rule:nonzero;stroke:black;stroke-width:1.07px;"/>
                <path d="M397.395,499.543C394.764,499.543 392.462,499.324 390.598,498.776C388.735,498.227 387.2,497.46 385.994,496.583C384.788,495.596 383.911,494.5 383.473,493.185C382.924,491.869 382.705,490.444 382.705,488.8L382.705,465.559C382.705,464.024 382.924,462.489 383.473,461.174C384.021,459.858 384.898,458.652 385.994,457.775C387.2,456.789 388.735,456.021 390.598,455.583C392.462,455.035 394.764,454.815 397.395,454.815L435.326,454.815L435.326,461.503L397.395,461.503C393.449,461.503 391.475,462.928 391.475,465.668L391.475,489.019C391.475,491.759 393.449,493.185 397.395,493.185L435.326,493.185L435.326,499.872L397.395,499.872L397.395,499.543Z" style="fill-rule:nonzero;stroke:black;stroke-width:1.07px;"/>
                <path d="M475.887,499.543L475.887,461.174L451.222,461.174L451.222,454.487L508.775,454.487L508.775,461.174L484.767,461.174L484.767,499.543L475.887,499.543Z" style="fill-rule:nonzero;stroke:black;stroke-width:1.07px;"/>
                <rect x="526.316" y="454.596" width="8.88" height="44.947" style="stroke:black;stroke-width:1.07px;"/>
                <path d="M613.578,499.543L563.369,464.572L563.369,499.543L555.586,499.543L555.586,454.596L563.369,454.596L610.18,488.032L610.18,454.596L617.963,454.596L617.963,499.543L613.578,499.543Z" style="fill-rule:nonzero;stroke:black;stroke-width:1.07px;"/>
                <path d="M654.249,499.543C643.067,499.543 637.477,496.254 637.477,489.786L637.477,464.243C637.477,457.775 643.067,454.487 654.249,454.487L691.084,454.487L691.084,461.174L654.249,461.174C648.987,461.174 646.356,462.16 646.356,464.243L646.356,489.786C646.356,491.869 648.987,492.856 654.249,492.856L675.078,492.856C680.34,492.856 682.971,491.869 682.971,489.896L682.971,474.987L691.851,474.987L691.851,489.896C691.851,496.254 686.26,499.433 675.078,499.433L654.249,499.433L654.249,499.543Z" style="fill-rule:nonzero;stroke:black;stroke-width:1.07px;"/>
                <path d="M764.314,499.543L764.314,492.856L805.314,492.856C809.261,492.856 811.234,491.431 811.234,488.69L811.234,482.989C811.234,480.249 809.261,478.824 805.314,478.824L777.579,478.824C774.948,478.824 772.646,478.604 770.782,478.056C768.918,477.508 767.384,476.741 766.178,475.864C764.972,474.877 764.095,473.781 763.656,472.465C763.108,471.15 762.889,469.725 762.889,468.08L762.889,465.449C762.889,463.914 763.108,462.38 763.656,461.064C764.204,459.749 765.081,458.543 766.178,457.666C767.384,456.679 768.918,455.912 770.782,455.473C772.646,454.925 774.948,454.706 777.579,454.706L817.483,454.706L817.483,461.393L777.579,461.393C773.632,461.393 771.659,462.818 771.659,465.559L771.659,468.299C771.659,471.04 773.632,472.465 777.579,472.465L805.314,472.465C807.945,472.465 810.247,472.685 812.111,473.233C813.975,473.781 815.51,474.548 816.715,475.425C817.921,476.412 818.798,477.508 819.237,478.824C819.785,480.139 820.004,481.674 820.004,483.209L820.004,488.8C820.004,490.444 819.785,491.869 819.237,493.185C818.689,494.5 817.812,495.596 816.715,496.583C815.51,497.57 813.975,498.337 812.111,498.776C810.247,499.324 807.945,499.543 805.314,499.543L764.314,499.543Z" style="fill-rule:nonzero;stroke:black;stroke-width:1.07px;"/>
                <path d="M853.002,499.543C850.371,499.543 848.068,499.324 846.205,498.776C844.341,498.227 842.806,497.46 841.601,496.583C840.395,495.596 839.518,494.5 839.079,493.185C838.531,491.869 838.312,490.444 838.312,488.8L838.312,465.559C838.312,464.024 838.531,462.489 839.079,461.174C839.627,459.858 840.504,458.652 841.601,457.775C842.806,456.789 844.341,456.021 846.205,455.583C848.068,455.035 850.371,454.815 853.002,454.815L884.136,454.815C886.767,454.815 889.069,455.035 890.932,455.583C892.796,456.131 894.331,456.898 895.537,457.775C896.743,458.762 897.62,459.858 898.058,461.174C898.606,462.489 898.825,464.024 898.825,465.559L898.825,488.8C898.825,490.444 898.606,491.869 898.058,493.185C897.51,494.5 896.633,495.596 895.537,496.583C894.331,497.57 892.796,498.337 890.932,498.776C889.069,499.324 886.767,499.543 884.136,499.543L853.002,499.543ZM889.946,465.34C889.946,462.599 887.972,461.174 884.026,461.174L852.892,461.174C848.946,461.174 846.972,462.599 846.972,465.34L846.972,488.69C846.972,491.431 848.946,492.856 852.892,492.856L884.026,492.856C887.972,492.856 889.946,491.431 889.946,488.69L889.946,465.34Z" style="fill-rule:nonzero;stroke:black;stroke-width:1.07px;"/>
                <path d="M927.328,481.016L927.328,499.543L918.449,499.543L918.449,454.596L966.903,454.596L966.903,461.283L927.328,461.283L927.328,474.439L964.272,474.439L964.272,481.126L927.328,481.126L927.328,481.016Z" style="fill-rule:nonzero;stroke:black;stroke-width:1.07px;"/>
                <path d="M1007.14,499.543L1007.14,461.174L982.474,461.174L982.474,454.487L1040.03,454.487L1040.03,461.174L1016.02,461.174L1016.02,499.543L1007.14,499.543Z" style="fill-rule:nonzero;stroke:black;stroke-width:1.07px;"/>
                <path d="M1114.02,499.543L1097.68,465.011L1081.02,499.543L1074.55,499.543L1052.85,454.596L1061.4,454.596L1077.73,489.128L1094.29,454.596L1100.87,454.596L1117.2,489.128L1133.75,454.596L1142.41,454.596L1120.71,499.543L1114.02,499.543Z" style="fill-rule:nonzero;stroke:black;stroke-width:1.07px;"/>
                <path d="M1201.83,499.543L1193.17,486.717L1160.72,486.717L1152.06,499.543L1142.52,499.543L1173.77,454.596L1180.23,454.596L1211.37,499.543L1201.83,499.543ZM1177.16,462.818L1165.43,480.139L1188.89,480.139L1177.16,462.818Z" style="fill-rule:nonzero;stroke:black;stroke-width:1.07px;"/>
                <path d="M1272.1,499.543L1261.03,479.481L1236.25,479.481L1236.25,499.543L1227.37,499.543L1227.37,454.596L1267.39,454.596C1270.02,454.596 1272.32,454.815 1274.18,455.364C1276.05,455.912 1277.58,456.679 1278.79,457.556C1279.99,458.543 1280.87,459.639 1281.31,460.955C1281.86,462.27 1282.08,463.805 1282.08,465.34L1282.08,468.519C1282.08,471.369 1281.2,473.781 1279.44,475.754C1277.69,477.727 1274.62,478.824 1270.45,479.262L1281.53,499.433L1272.1,499.433L1272.1,499.543ZM1273.2,465.34C1273.2,462.599 1271.22,461.174 1267.28,461.174L1236.14,461.174L1236.14,472.794L1267.28,472.794C1271.22,472.794 1273.2,471.369 1273.2,468.628L1273.2,465.34Z" style="fill-rule:nonzero;stroke:black;stroke-width:1.07px;"/>
                <path d="M1300.5,499.762L1300.5,454.596L1348.95,454.596L1348.95,461.283L1309.38,461.283L1309.38,472.575L1346.87,472.575L1346.87,479.262L1309.38,479.262L1309.38,493.075L1348.95,493.075L1348.95,499.762L1300.5,499.762Z" style="fill-rule:nonzero;stroke:black;stroke-width:1.07px;"/>
                <path d="M1442.13,499.543L1442.13,461.174L1417.46,461.174L1417.46,454.487L1475.02,454.487L1475.02,461.174L1451.01,461.174L1451.01,499.543L1442.13,499.543Z" style="fill-rule:nonzero;stroke:black;stroke-width:1.07px;"/>
                <path d="M1504.73,499.543C1502.1,499.543 1499.8,499.324 1497.93,498.776C1496.07,498.227 1494.53,497.46 1493.33,496.583C1492.12,495.596 1491.25,494.5 1490.81,493.185C1490.26,491.869 1490.04,490.444 1490.04,488.8L1490.04,465.559C1490.04,464.024 1490.26,462.489 1490.81,461.174C1491.36,459.858 1492.23,458.652 1493.33,457.775C1494.53,456.789 1496.07,456.021 1497.93,455.583C1499.8,455.035 1502.1,454.815 1504.73,454.815L1535.86,454.815C1538.49,454.815 1540.8,455.035 1542.66,455.583C1544.52,456.131 1546.06,456.898 1547.27,457.775C1548.47,458.762 1549.35,459.858 1549.79,461.174C1550.33,462.489 1550.55,464.024 1550.55,465.559L1550.55,488.8C1550.55,490.444 1550.33,491.869 1549.79,493.185C1549.24,494.5 1548.36,495.596 1547.27,496.583C1546.06,497.57 1544.52,498.337 1542.66,498.776C1540.8,499.324 1538.49,499.543 1535.86,499.543L1504.73,499.543ZM1541.67,465.34C1541.67,462.599 1539.7,461.174 1535.75,461.174L1504.73,461.174C1500.78,461.174 1498.81,462.599 1498.81,465.34L1498.81,488.69C1498.81,491.431 1500.78,492.856 1504.73,492.856L1535.86,492.856C1539.81,492.856 1541.78,491.431 1541.78,488.69L1541.78,465.34L1541.67,465.34Z" style="fill-rule:nonzero;stroke:black;stroke-width:1.07px;"/>
                <path d="M1623.35,499.543L1623.35,492.856L1664.24,492.856C1668.19,492.856 1670.16,491.431 1670.16,488.69L1670.16,482.989C1670.16,480.249 1668.19,478.824 1664.24,478.824L1636.51,478.824C1633.87,478.824 1631.57,478.604 1629.71,478.056C1627.85,477.508 1626.31,476.741 1625.1,475.864C1623.9,474.877 1623.02,473.781 1622.58,472.465C1622.04,471.15 1621.82,469.725 1621.82,468.08L1621.82,465.449C1621.82,463.914 1622.04,462.38 1622.58,461.064C1623.13,459.749 1624.01,458.543 1625.1,457.666C1626.31,456.679 1627.85,455.912 1629.71,455.473C1631.57,454.925 1633.87,454.706 1636.51,454.706L1676.41,454.706L1676.41,461.393L1636.51,461.393C1632.56,461.393 1630.59,462.818 1630.59,465.559L1630.59,468.299C1630.59,471.04 1632.56,472.465 1636.51,472.465L1664.24,472.465C1666.87,472.465 1669.17,472.685 1671.04,473.233C1672.9,473.781 1674.44,474.548 1675.64,475.425C1676.85,476.412 1677.73,477.508 1678.16,478.824C1678.71,480.139 1678.93,481.674 1678.93,483.209L1678.93,488.8C1678.93,490.444 1678.71,491.869 1678.16,493.185C1677.62,494.5 1676.74,495.596 1675.64,496.583C1674.44,497.57 1672.9,498.337 1671.04,498.776C1669.17,499.324 1666.87,499.543 1664.24,499.543L1623.35,499.543Z" style="fill-rule:nonzero;stroke:black;stroke-width:1.07px;"/>
                <rect x="1697.89" y="454.596" width="8.88" height="44.947" style="stroke:black;stroke-width:1.07px;"/>
                <path d="M1727.05,499.653L1727.05,454.596L1735.93,454.596L1735.93,492.965L1774.08,492.965L1774.08,499.653L1727.05,499.653Z" style="fill-rule:nonzero;stroke:black;stroke-width:1.07px;"/>
                <rect x="1791.95" y="454.596" width="8.88" height="44.947" style="stroke:black;stroke-width:1.07px;"/>
                <path d="M1835.58,499.543C1832.95,499.543 1830.65,499.324 1828.78,498.776C1826.92,498.227 1825.38,497.46 1824.18,496.583C1822.97,495.596 1822.1,494.5 1821.66,493.185C1821.11,491.869 1820.89,490.444 1820.89,488.8L1820.89,465.559C1820.89,464.024 1821.11,462.489 1821.66,461.174C1822.2,459.858 1823.08,458.652 1824.18,457.775C1825.38,456.789 1826.92,456.021 1828.78,455.583C1830.65,455.035 1832.95,454.815 1835.58,454.815L1873.51,454.815L1873.51,461.503L1835.58,461.503C1831.63,461.503 1829.66,462.928 1829.66,465.668L1829.66,489.019C1829.66,491.759 1831.63,493.185 1835.58,493.185L1873.51,493.185L1873.51,499.872L1835.58,499.872L1835.58,499.543Z" style="fill-rule:nonzero;stroke:black;stroke-width:1.07px;"/>
                <path d="M1906.62,499.543C1903.99,499.543 1901.69,499.324 1899.82,498.776C1897.96,498.227 1896.42,497.46 1895.22,496.583C1894.01,495.596 1893.14,494.5 1892.7,493.185C1892.15,491.869 1891.93,490.444 1891.93,488.8L1891.93,465.559C1891.93,464.024 1892.15,462.489 1892.7,461.174C1893.25,459.858 1894.12,458.652 1895.22,457.775C1896.42,456.789 1897.96,456.021 1899.82,455.583C1901.69,455.035 1903.99,454.815 1906.62,454.815L1937.75,454.815C1940.38,454.815 1942.69,455.035 1944.55,455.583C1946.41,456.131 1947.95,456.898 1949.15,457.775C1950.36,458.762 1951.24,459.858 1951.68,461.174C1952.23,462.489 1952.44,464.024 1952.44,465.559L1952.44,488.8C1952.44,490.444 1952.23,491.869 1951.68,493.185C1951.13,494.5 1950.25,495.596 1949.15,496.583C1947.95,497.57 1946.41,498.337 1944.55,498.776C1942.69,499.324 1940.38,499.543 1937.75,499.543L1906.62,499.543ZM1943.56,465.34C1943.56,462.599 1941.59,461.174 1937.64,461.174L1906.51,461.174C1902.56,461.174 1900.59,462.599 1900.59,465.34L1900.59,488.69C1900.59,491.431 1902.56,492.856 1906.51,492.856L1937.64,492.856C1941.59,492.856 1943.56,491.431 1943.56,488.69L1943.56,465.34Z" style="fill-rule:nonzero;stroke:black;stroke-width:1.07px;"/>
                <path d="M2030.17,499.543L1979.96,464.572L1979.96,499.543L1972.18,499.543L1972.18,454.596L1979.96,454.596L2026.77,488.032L2026.77,454.596L2034.56,454.596L2034.56,499.543L2030.17,499.543Z" style="fill-rule:nonzero;stroke:black;stroke-width:1.07px;"/>
            </g>
            <g>
                <path d="M1475.46,307.916L1469.54,314.494C1466.69,311.972 1463.73,310.109 1460.77,309.013C1457.81,307.807 1454.74,307.259 1451.34,307.259C1444.55,307.259 1438.85,309.67 1434.35,314.384C1429.75,319.098 1427.55,324.908 1427.55,331.815C1427.55,338.721 1429.86,344.531 1434.35,349.245C1438.95,353.959 1444.55,356.371 1451.34,356.371C1454.3,356.371 1457.15,355.933 1459.89,354.946C1462.52,353.959 1465.05,352.534 1467.35,350.671L1467.35,335.981L1454.19,335.981L1454.19,327.211L1476.78,327.211L1476.78,355.713C1472.61,358.893 1468.44,361.304 1464.28,362.949C1460.11,364.483 1455.84,365.36 1451.34,365.36C1441.7,365.36 1433.69,362.181 1427.33,355.823C1420.98,349.465 1417.8,341.462 1417.8,331.815C1417.8,327.539 1418.56,323.483 1420.1,319.537C1421.63,315.59 1423.83,312.082 1426.57,309.013C1429.75,305.505 1433.47,302.874 1437.64,301.01C1441.81,299.146 1446.41,298.269 1451.34,298.269C1456.06,298.269 1460.55,299.146 1464.83,300.791C1469.1,302.545 1472.72,304.847 1475.46,307.916Z" style="fill-rule:nonzero;"/>
                <path d="M1567.98,299.914L1580.26,299.914C1583.66,299.914 1586.51,300.133 1588.7,300.462C1590.89,300.9 1592.87,301.448 1594.51,302.325C1597.25,303.751 1599.44,305.943 1600.98,308.793C1602.62,311.644 1603.39,314.932 1603.39,318.44C1603.39,322.606 1602.07,326.224 1599.33,329.293C1596.59,332.363 1592.98,334.227 1588.48,334.994L1607.88,361.304L1598.89,365.141L1577.52,334.117L1577.52,363.387L1567.98,364.155L1567.98,299.914ZM1577.63,308.245L1577.63,328.526L1581.03,328.526C1585.08,328.526 1588.26,327.649 1590.56,325.785C1592.76,323.922 1593.96,321.4 1593.96,318.112C1593.96,314.823 1592.87,312.411 1590.78,310.767C1588.7,309.122 1585.52,308.245 1581.35,308.245L1577.63,308.245Z" style="fill-rule:nonzero;"/>
                <path d="M1725.19,298.269C1729.36,298.269 1733.3,298.927 1737.03,300.352C1740.76,301.668 1744.15,303.641 1747.01,306.272C1750.73,309.67 1753.69,313.507 1755.67,317.892C1757.64,322.277 1758.63,326.991 1758.63,331.815C1758.63,335.981 1757.86,340.146 1756.32,344.093C1754.79,348.04 1752.6,351.548 1749.75,354.727C1746.57,358.235 1742.95,360.866 1738.67,362.729C1734.51,364.593 1729.9,365.47 1724.97,365.47C1720.81,365.47 1716.86,364.812 1713.02,363.387C1709.29,362.072 1706.01,360.098 1703.15,357.467C1699.32,354.069 1696.47,350.232 1694.5,345.737C1692.52,341.352 1691.42,336.638 1691.42,331.815C1691.42,326.991 1692.41,322.277 1694.5,317.892C1696.47,313.507 1699.43,309.561 1703.15,306.272C1706.01,303.751 1709.29,301.777 1713.02,300.352C1716.97,298.927 1720.91,298.269 1725.19,298.269ZM1725.19,307.149C1718.39,307.149 1712.69,309.561 1708.2,314.275C1703.59,318.989 1701.4,324.799 1701.4,331.705C1701.4,338.612 1703.7,344.422 1708.2,349.136C1712.8,353.85 1718.39,356.152 1725.3,356.152C1732.1,356.152 1737.69,353.74 1742.29,349.026C1746.9,344.312 1749.2,338.502 1749.2,331.596C1749.2,324.689 1746.9,318.879 1742.4,314.165C1737.69,309.561 1731.99,307.149 1725.19,307.149Z" style="fill-rule:nonzero;"/>
                <path d="M1857.94,299.037L1857.94,335.213C1857.94,342.887 1858.93,348.259 1860.9,351.438C1862.87,354.507 1866.16,356.042 1870.88,356.042C1875.59,356.042 1878.99,354.617 1881.07,351.657C1883.15,348.697 1884.25,343.874 1884.25,337.077L1884.25,300.023L1893.46,299.146L1893.46,339.269C1893.46,344.422 1893.13,348.478 1892.36,351.219C1891.6,353.959 1890.28,356.371 1888.53,358.454C1886.77,360.537 1884.25,362.181 1881.18,363.497C1878.11,364.703 1874.82,365.36 1871.42,365.36C1863.75,365.36 1857.94,363.168 1854.21,358.893C1850.38,354.617 1848.51,348.04 1848.51,339.269L1848.51,300.133L1857.94,299.037Z" style="fill-rule:nonzero;"/>
                <path d="M1986.54,299.914L2003.42,299.914C2010.66,299.914 2016.25,301.558 2020.09,304.847C2023.92,308.136 2025.79,312.959 2025.79,319.208C2025.79,325.128 2023.59,329.842 2019.21,333.35C2014.82,336.858 2008.79,338.502 2001.12,338.502C2000.13,338.502 1998.49,338.392 1996.3,338.283L1996.08,338.283L1996.08,363.497L1986.54,364.264L1986.54,299.914ZM1996.08,308.355L1996.08,329.622C1996.95,329.732 1997.83,329.842 1998.71,329.951C1999.69,330.061 2000.68,330.061 2001.89,330.061C2006.49,330.061 2010,329.184 2012.41,327.32C2014.82,325.457 2016.03,322.825 2016.03,319.208C2016.03,315.481 2014.93,312.74 2012.74,310.986C2010.55,309.232 2007.04,308.355 2002.33,308.355L1996.08,308.355Z" style="fill-rule:nonzero;"/>
            </g>
            <path d="M974.687,248.609C898.497,245.868 794.461,211.116 772.865,160.908C754.228,115.193 772.755,62.025 860.676,24.204C912.858,2.498 991.788,-3.641 1052.63,1.95C1138.91,9.843 1221.13,54.46 1221.24,54.57L1221.24,117.167L1221.13,121.332C1221.13,121.332 1194.38,97.105 1160.94,77.592C1129.48,59.174 1100.65,46.239 1043.42,40.976C1030.05,39.771 1007.25,36.701 970.302,41.853C955.393,43.936 934.344,45.471 886.986,66.3C871.638,73.645 857.496,81.429 846.534,90.528C840.833,95.241 833.05,101.929 827.568,107.629C814.084,124.512 806.959,137.228 810.357,160.25C814.304,177.571 821.977,188.424 844.232,204.977C853.879,212.213 854.975,212.103 859.25,214.296C899.045,234.905 930.836,242.469 976.222,248.17" style="fill:rgb(204,51,51);fill-rule:nonzero;"/>
            <path d="M978.853,53.474C1055.26,53.145 1163.57,83.731 1191.75,133.062C1216.41,177.9 1205.01,231.726 1122.35,272.836C1073.24,296.625 995.297,305.833 933.906,302.654C846.753,298.16 758.833,256.83 758.723,256.721L750.392,194.344L749.843,190.178C749.843,190.178 779.771,213.309 815.729,231.507C849.603,248.609 880.079,260.448 937.852,263.408C951.336,264.175 974.468,266.149 1010.64,259.681C1025.22,257.05 1046.05,254.638 1090.45,232.055C1104.81,224.162 1117.86,215.83 1127.51,206.293C1132.55,201.36 1139.45,194.344 1144.17,188.533C1155.35,171.103 1160.83,158.167 1154.36,135.365C1148.12,118.263 1139.02,107.739 1114.68,92.062C1104.15,85.265 1103.06,85.375 1098.45,83.292C1056.03,64.327 1023.36,58.078 977.208,54.132" style="fill:rgb(204,51,51);fill-rule:nonzero;"/>
        </g>
        <g id="OpenGL" transform="matrix(1.00174,0,0,1.05598,-63.8554,-28.1089)">
            <path d="M2100,58.517C2100,62.573 2099.01,66.3 2096.93,69.808C2094.96,73.316 2092.11,76.057 2088.71,78.03C2085.2,80.003 2081.47,81.1 2077.42,81.1C2073.36,81.1 2069.63,80.113 2066.12,78.03C2062.62,76.057 2059.88,73.316 2057.9,69.808C2055.93,66.3 2054.83,62.573 2054.83,58.517C2054.83,54.46 2055.82,50.733 2057.9,47.225C2059.88,43.717 2062.73,40.976 2066.12,39.003C2069.63,37.03 2073.36,35.934 2077.42,35.934C2081.47,35.934 2085.2,36.92 2088.71,39.003C2092.22,40.976 2094.96,43.717 2096.93,47.225C2099.01,50.733 2100,54.57 2100,58.517ZM2095.62,58.517C2095.62,53.474 2093.86,49.198 2090.24,45.69C2086.74,42.182 2082.35,40.319 2077.42,40.319C2072.37,40.319 2068.1,42.073 2064.59,45.69C2061.08,49.198 2059.22,53.583 2059.22,58.517C2059.22,63.45 2060.97,67.835 2064.59,71.343C2068.1,74.851 2072.48,76.715 2077.42,76.715C2082.46,76.715 2086.74,74.961 2090.24,71.343C2093.86,67.835 2095.62,63.559 2095.62,58.517ZM2067.22,46.458L2077.97,46.458C2081.03,46.458 2083.23,47.116 2084.65,48.321C2085.97,49.527 2086.74,51.172 2086.74,53.255C2086.74,54.899 2086.19,56.324 2085.2,57.42C2084.1,58.626 2082.46,59.503 2080.27,59.942C2081.14,60.271 2081.91,60.709 2082.35,61.038C2083.01,61.586 2083.56,62.354 2084.32,63.45C2084.32,63.559 2085.64,65.862 2088.27,70.466L2081.14,70.466C2078.84,65.862 2077.31,63.121 2076.54,62.244C2075.77,61.367 2075.01,60.928 2074.13,60.928C2073.91,60.928 2073.69,60.928 2073.36,61.038L2073.36,70.576L2067.33,70.576L2067.22,46.458ZM2073.14,56.763L2075.77,56.763C2077.53,56.763 2078.73,56.434 2079.39,55.886C2080.05,55.337 2080.49,54.57 2080.49,53.693C2080.49,52.816 2080.16,52.049 2079.5,51.501C2078.84,50.952 2077.64,50.624 2075.99,50.624L2073.14,50.624L2073.14,56.763Z" style="fill-rule:nonzero;"/>
        </g>
        <g transform="matrix(1.41373,0,0,1.49028,2271.78,-118.655)">
            <g>
                <g id="White_on_Red">
                    <g>
                        <g>
                            <g>
                                <clipPath id="_clip1">
                                    <rect x="0" y="0" width="311.528" height="436.84"/>
                                </clipPath>
                                <g clip-path="url(#_clip1)">
                                    <path id="Top_Swoosh_00000113347748532510405150000006719090387056239516_" d="M166.243,328.693C77.207,345.241 -52.397,331.889 -90.432,279.274C-123.872,231.103 -116.16,164.668 -24.027,98.06C30.848,59.387 120.762,31.835 192.744,22.565C294.806,9.379 401.673,39.817 401.857,40.043L418.063,112.61L419.015,117.468C419.015,117.468 381.733,96.307 337.919,82.341C296.676,69.136 259.903,61.604 192.201,70.319C176.384,72.384 149.155,74.729 107.66,90.267C90.915,96.541 66.911,103.77 17.402,140.178C1.511,152.666 -12.868,165.351 -23.222,178.737C-28.61,185.678 -35.902,195.445 -40.78,203.473C-52.041,226.536 -57.01,243.123 -47.11,268.932C-38.05,287.99 -26.344,298.585 3.74,312.014C16.797,317.904 18.04,317.493 23.564,318.928C75.033,332.518 113.847,333.056 167.937,327.915" style="fill:rgb(203,52,51);fill-rule:nonzero;"/>
                                    <path id="Bottom_Swoosh_00000148640733520206785880000000976432816034671537_" d="M120.022,106.541C208.517,86.377 341.999,93.794 387.433,143.689C427.636,189.283 428.354,254.635 343.173,323.693C292.396,363.986 204.42,394.841 132.428,407.049C30.229,424.402 -82.396,399.252 -82.552,399.154L-108.36,328.997L-110.074,324.31C-110.074,324.31 -69.39,343.377 -22.994,355.165C20.704,366.221 59.1,372.056 126.842,360.53C142.673,357.929 169.999,354.228 210.264,337.363C226.485,330.539 250.008,322.35 295.632,284.675C310.237,271.807 323.203,258.771 331.918,245.216C336.487,238.192 342.677,228.27 346.638,220.314C355.088,197.212 358.093,180.796 344.692,156.036C333.02,137.828 319.747,127.984 287.475,116.111C273.515,110.956 272.272,111.367 266.395,110.144C212.302,99.142 172.812,100.356 118.286,107.729" style="fill:rgb(203,52,51);fill-rule:nonzero;"/>
                                </g>
                            </g>
                        </g>
                        <g>
                            <path d="M156.379,173.174C152.634,181.613 145.471,186.983 143.191,188.517C135.702,194.041 124.142,199.257 105.093,206.622C89.301,212.759 88.974,212.298 79.857,218.282L149.378,218.282L143.516,242.37L30.688,242.37L36.55,218.436C44.202,210.304 46.806,206.161 65.042,198.336L105.419,180.846C112.908,177.624 116.327,175.783 118.932,173.021C119.421,172.561 121.537,170.106 121.374,167.498C121.374,165.503 120.397,163.969 119.909,163.509C115.676,158.139 106.07,158.599 105.256,158.599C102.976,158.599 88.812,158.292 83.764,168.265C81.973,171.64 81.323,176.857 81.323,177.624L46.97,177.164C47.295,175.016 47.621,172.714 48.109,170.566C49.086,165.196 51.691,153.843 64.716,145.404C73.182,139.881 85.392,135.278 107.21,135.278C109.326,135.278 134.562,134.511 148.563,144.483C157.355,150.621 158.658,159.826 158.658,163.509C158.658,165.503 158.495,168.572 156.379,173.174Z" style="fill:rgb(203,52,51);fill-rule:nonzero;"/>
                            <path d="M278.974,161.821L207.501,161.821L202.453,178.544C209.292,176.243 215.804,173.481 230.782,173.481C253.576,173.481 267.903,180.692 274.091,187.903C276.37,190.512 280.114,196.035 280.114,204.627C280.114,206.775 279.789,211.531 277.51,216.901C274.579,223.958 267.578,233.931 249.994,239.915C242.016,242.676 232.085,244.825 213.687,244.825C210.757,244.825 182.916,245.285 166.635,234.699C165.007,233.624 162.076,231.63 159.145,227.948C155.238,222.884 154.424,218.589 153.61,212.759L192.684,211.531C193.011,213.065 193.336,214.293 194.475,215.674C197.406,219.509 204.244,221.964 214.99,221.964C217.106,221.964 222.968,221.964 228.666,219.816C237.458,216.441 239.737,210.457 239.737,206.775C239.737,205.548 239.249,202.479 237.132,199.717C232.899,194.348 225.084,193.273 218.734,193.273C214.501,193.273 206.523,193.887 202.453,195.882C200.5,196.802 199.034,198.183 197.569,199.717L162.564,198.336L179.497,137.886L286.464,137.886L278.974,161.821Z" style="fill:rgb(203,52,51);fill-rule:nonzero;"/>
                        </g>
                        <g>
                            <path d="M52.978,283.39L50.421,293.752L36.6,293.752L39.32,283.141L29.852,258.58L44.163,258.58L48.462,273.277L60.487,258.58L76.811,258.58L52.978,283.39Z" style="fill:rgb(203,52,51);fill-rule:nonzero;"/>
                            <path d="M119.252,266.302L93.242,266.302L91.773,272.18L116.585,272.18L114.626,279.953L89.814,279.953L88.291,285.782L116.204,285.782L114.191,293.752L72.728,293.752L81.597,258.58L121.21,258.58L119.252,266.302Z" style="fill:rgb(203,52,51);fill-rule:nonzero;"/>
                            <path d="M151.299,293.752L150.592,288.123L135.138,288.123L131.601,293.752L116.529,293.752L142.43,258.58L158.59,258.58L165.283,293.752L151.299,293.752ZM147.979,267.796L140.09,280.301L149.612,280.301L147.979,267.796Z" style="fill:rgb(203,52,51);fill-rule:nonzero;"/>
                            <path d="M212.512,278.009C211.096,278.807 209.628,279.305 208.104,279.853L214.416,293.752L200.595,293.752L195.534,281.447L187.1,281.447L183.999,293.752L170.559,293.752L179.482,258.58L203.751,258.58C204.513,258.58 207.125,258.629 209.573,259.127C210.933,259.376 215.395,260.374 217.245,264.309C217.572,265.006 218.17,266.501 218.17,268.543C218.17,272.331 215.994,275.967 212.512,278.009ZM204.077,267.747C203.044,266.252 200.867,266.352 200.323,266.352L190.964,266.352L189.222,273.327L198.69,273.327C200.704,273.327 202.663,272.878 203.805,271.284C204.023,271.035 204.513,270.238 204.513,269.242C204.513,268.743 204.349,268.145 204.077,267.747Z" style="fill:rgb(203,52,51);fill-rule:nonzero;"/>
                            <path d="M250.763,268.643C250.763,268.095 250.763,267.647 250.436,267.099C249.347,265.405 245.811,265.156 244.015,265.156C241.186,265.156 239.336,265.803 238.574,266.701C238.085,267.199 238.03,267.647 238.03,267.896C238.085,268.394 238.248,268.842 238.574,269.192C239.39,270.039 240.751,270.487 242.22,270.885L251.687,273.327C254.789,274.124 255.878,274.721 257.183,275.519C260.611,277.71 260.992,280.949 260.992,282.294C260.992,284.436 260.067,288.572 255.17,291.561C252.123,293.404 247.77,294.899 239.717,294.899C232.153,294.899 227.202,293.254 224.59,291.561C224.155,291.311 223.339,290.763 222.522,289.817C220.618,287.575 220.455,285.632 220.4,282.992L232.861,282.494C232.915,283.39 232.97,283.739 233.187,284.187C234.33,286.728 237.975,287.126 240.533,287.126C240.914,287.126 243.798,287.176 245.702,286.18C246.192,285.931 247.553,285.134 247.553,283.44C247.553,282.693 247.28,281.746 245.594,281.048C244.614,280.65 242.547,280.202 241.621,279.953L234.33,278.009C234.112,277.91 231.719,277.262 230.304,276.615C228.834,275.917 224.917,273.625 224.917,268.942C224.917,266.9 225.733,262.815 230.684,260.125C233.731,258.48 237.921,257.384 245.757,257.384C247.009,257.384 251.579,257.384 255.66,258.679C258.652,259.626 261.264,261.17 262.515,263.96C263.06,265.206 263.114,266.402 263.114,267.747L250.763,268.643Z" style="fill:rgb(203,52,51);fill-rule:nonzero;"/>
                        </g>
                    </g>
                </g>
            </g>
        </g>
    </g>
</svg>
